{"glyphs":{"0":{"ha":799,"x_min":58,"x_max":740,"o":"m 399 -11 q 167 26 236 -11 q 78 159 99 64 q 58 478 58 254 q 78 797 58 701 q 167 929 99 892 q 399 967 236 967 q 631 929 561 967 q 720 797 700 892 q 740 478 740 701 q 720 159 740 254 q 631 26 700 64 q 399 -11 561 -11 m 399 186 q 463 200 446 186 q 483 268 479 214 q 488 478 488 322 q 483 688 488 633 q 463 756 479 742 q 399 769 446 769 q 335 756 351 769 q 315 688 319 742 q 311 478 311 633 q 315 268 311 322 q 335 200 319 214 q 399 186 351 186 z "},"1":{"ha":501,"x_min":17,"x_max":425,"o":"m 171 0 l 171 697 l 17 636 l 17 839 l 246 956 l 425 956 l 425 0 l 171 0 z "},"2":{"ha":747,"x_min":57,"x_max":689,"o":"m 303 200 l 689 200 l 689 0 l 57 0 l 57 132 q 64 322 57 260 q 98 424 71 383 q 186 493 125 464 l 258 525 q 364 574 333 558 q 411 600 397 589 q 430 628 425 611 q 435 682 435 646 q 424 740 435 722 q 390 764 414 758 q 311 769 365 769 q 74 753 228 769 l 74 938 q 219 958 133 950 q 375 967 304 967 q 541 948 475 967 q 648 870 607 929 q 689 696 689 811 q 655 509 689 569 q 553 419 621 449 l 357 333 q 330 319 343 326 q 313 301 317 311 q 305 269 307 289 q 303 213 303 250 l 303 200 z "},"3":{"ha":736,"x_min":50,"x_max":679,"o":"m 332 -11 q 190 -3 269 -11 q 50 18 110 6 l 50 200 q 296 186 193 186 q 378 192 353 186 q 415 217 404 197 q 425 281 425 236 q 416 349 425 328 q 387 378 407 371 q 325 386 367 386 l 183 386 l 183 581 l 325 581 q 384 587 365 581 q 410 613 403 593 q 417 676 417 633 q 408 740 417 721 q 372 764 399 758 q 285 769 346 769 q 54 754 179 769 l 54 938 q 192 958 113 950 q 333 967 271 967 q 532 941 458 967 q 638 860 606 915 q 671 717 671 806 q 635 563 671 615 q 524 490 600 510 l 524 485 q 642 416 606 465 q 679 254 679 367 q 649 105 679 163 q 542 18 618 47 q 332 -11 467 -11 z "},"4":{"ha":790,"x_min":35,"x_max":761,"o":"m 418 0 l 418 183 l 35 183 l 35 357 l 282 956 l 550 956 l 292 381 l 425 381 l 499 592 l 668 592 l 668 381 l 761 381 l 761 183 l 668 183 l 668 0 l 418 0 z "},"5":{"ha":760,"x_min":78,"x_max":706,"o":"m 78 200 q 315 186 207 186 q 405 194 378 186 q 442 224 432 201 q 451 300 451 247 q 441 376 451 353 q 403 406 431 399 q 314 414 376 414 q 86 401 208 414 l 86 956 l 649 956 l 649 756 l 308 756 l 308 600 q 444 610 371 610 q 649 538 593 610 q 706 318 706 465 q 677 127 706 197 q 574 23 649 57 q 360 -11 499 -11 q 217 -3 296 -11 q 78 17 139 4 l 78 200 z "},"6":{"ha":800,"x_min":58,"x_max":747,"o":"m 414 -11 q 253 1 314 -11 q 152 51 193 14 q 88 160 111 88 q 58 478 58 242 q 92 788 58 694 q 204 926 126 886 q 431 967 282 967 q 560 958 483 967 q 701 936 636 950 l 701 753 q 476 769 551 769 q 365 753 399 769 q 320 693 331 738 q 310 543 310 649 l 319 543 q 376 590 336 569 q 489 610 415 610 q 634 588 579 610 q 718 504 689 567 q 747 324 747 442 q 720 125 747 196 q 622 22 693 54 q 414 -11 550 -11 m 406 183 q 471 190 451 183 q 499 219 490 196 q 507 297 507 243 q 499 376 507 353 q 472 407 492 400 q 406 414 451 414 q 343 406 363 414 q 318 376 324 397 q 313 308 313 356 q 321 222 313 247 q 347 190 329 196 q 406 183 365 183 z "},"7":{"ha":701,"x_min":36,"x_max":668,"o":"m 103 0 l 404 756 l 36 756 l 36 956 l 668 956 l 668 775 l 376 0 l 103 0 z "},"8":{"ha":819,"x_min":56,"x_max":764,"o":"m 410 -11 q 195 18 272 -11 q 87 104 118 47 q 56 254 56 161 q 92 416 56 367 q 211 485 129 465 l 211 490 q 99 562 135 510 q 64 717 64 614 q 97 860 64 806 q 206 941 131 915 q 410 967 282 967 q 613 941 538 967 q 722 860 689 915 q 756 717 756 806 q 720 563 756 615 q 608 490 685 510 l 608 485 q 727 416 690 465 q 764 254 764 367 q 733 104 764 161 q 624 18 701 47 q 410 -11 547 -11 m 410 569 q 473 576 454 569 q 499 603 492 582 q 506 672 506 624 q 499 743 506 722 q 474 771 493 764 q 410 778 454 778 q 347 771 365 778 q 322 743 328 764 q 315 672 315 722 q 322 603 315 624 q 347 576 328 582 q 410 569 365 569 m 410 178 q 475 185 454 178 q 503 214 496 192 q 511 286 511 236 q 503 360 511 338 q 476 389 496 382 q 410 396 456 396 q 344 389 364 396 q 316 360 324 382 q 308 286 308 338 q 316 214 308 236 q 344 185 324 192 q 410 178 365 178 z "},"9":{"ha":800,"x_min":53,"x_max":742,"o":"m 369 -11 q 237 -3 313 -11 q 99 19 161 6 l 99 203 q 324 186 251 186 q 435 202 401 186 q 480 263 469 218 q 490 413 490 307 l 482 413 q 424 366 465 386 q 311 346 383 346 q 166 367 221 346 q 82 451 111 389 q 53 632 53 514 q 80 831 53 760 q 178 934 107 901 q 386 967 250 967 q 554 953 492 967 q 656 904 617 940 q 714 797 694 868 q 742 478 742 696 q 732 278 742 360 q 699 146 722 197 q 584 24 661 60 q 369 -11 507 -11 m 394 542 q 457 550 438 542 q 482 579 476 558 q 488 647 488 600 q 479 734 488 708 q 453 766 471 760 q 394 772 435 772 q 329 766 349 772 q 301 736 310 760 q 293 658 293 713 q 301 579 293 603 q 328 549 308 556 q 394 542 349 542 z "},"\u0000":{"ha":0,"x_min":0,"x_max":0,"o":""},"\r":{"ha":310,"x_min":0,"x_max":0,"o":""}," ":{"ha":310,"x_min":0,"x_max":0,"o":""},"A":{"ha":843,"x_min":4,"x_max":839,"o":"m 585 0 l 546 172 l 290 172 l 254 0 l 4 0 l 243 956 l 600 956 l 839 0 l 585 0 m 422 738 l 413 738 l 333 365 l 503 365 l 422 738 z "},"Á":{"ha":842,"x_min":4,"x_max":839,"o":"m 585 0 l 546 172 l 290 172 l 254 0 l 4 0 l 243 956 l 600 956 l 839 0 l 585 0 m 422 738 l 413 738 l 333 365 l 503 365 l 422 738 m 301 1042 l 301 1049 l 400 1246 l 624 1246 l 624 1239 l 472 1042 l 301 1042 z "},"Ă":{"ha":843,"x_min":4,"x_max":839,"o":"m 585 0 l 546 172 l 290 172 l 254 0 l 4 0 l 243 956 l 600 956 l 839 0 l 585 0 m 422 738 l 413 738 l 333 365 l 503 365 l 422 738 m 625 1233 q 610 1125 625 1168 q 550 1058 594 1082 q 421 1033 506 1033 q 292 1058 336 1033 q 234 1124 249 1082 q 219 1233 219 1167 l 349 1233 q 352 1190 349 1206 q 371 1166 356 1175 q 421 1157 386 1157 q 471 1166 456 1157 q 490 1190 486 1175 q 494 1233 494 1206 l 625 1233 z "},"Ắ":{"ha":843,"x_min":4,"x_max":839,"o":"m 585 0 l 546 172 l 290 172 l 254 0 l 4 0 l 243 956 l 600 956 l 839 0 l 585 0 m 422 738 l 413 738 l 333 365 l 503 365 l 422 738 m 624 1233 q 608 1125 624 1168 q 549 1058 593 1082 q 419 1033 504 1033 q 291 1058 335 1033 q 233 1124 247 1082 q 218 1233 218 1167 l 347 1233 q 351 1190 347 1206 q 369 1166 354 1175 q 419 1157 385 1157 q 469 1166 454 1157 q 489 1190 485 1175 q 493 1233 493 1206 l 624 1233 m 322 1269 l 322 1276 l 421 1474 l 644 1474 l 644 1467 l 493 1269 l 322 1269 z "},"Ặ":{"ha":843,"x_min":4,"x_max":839,"o":"m 585 0 l 546 172 l 290 172 l 254 0 l 4 0 l 243 956 l 600 956 l 839 0 l 585 0 m 422 738 l 413 738 l 333 365 l 503 365 l 422 738 m 299 -294 l 299 -86 l 546 -86 l 546 -294 l 299 -294 m 625 1233 q 610 1125 625 1168 q 550 1058 594 1082 q 421 1033 506 1033 q 292 1058 336 1033 q 234 1124 249 1082 q 219 1233 219 1167 l 349 1233 q 352 1190 349 1206 q 371 1166 356 1175 q 421 1157 386 1157 q 471 1166 456 1157 q 490 1190 486 1175 q 494 1233 494 1206 l 625 1233 z "},"Ằ":{"ha":843,"x_min":4,"x_max":839,"o":"m 585 0 l 546 172 l 290 172 l 254 0 l 4 0 l 243 956 l 600 956 l 839 0 l 585 0 m 422 738 l 413 738 l 333 365 l 503 365 l 422 738 m 629 1233 q 614 1125 629 1168 q 554 1058 599 1082 q 425 1033 510 1033 q 297 1058 340 1033 q 238 1124 253 1082 q 224 1233 224 1167 l 353 1233 q 356 1190 353 1206 q 375 1166 360 1175 q 425 1157 390 1157 q 475 1166 460 1157 q 494 1190 490 1175 q 499 1233 499 1206 l 629 1233 m 346 1269 l 196 1467 l 196 1474 l 419 1474 l 518 1276 l 518 1269 l 346 1269 z "},"Ẳ":{"ha":843,"x_min":4,"x_max":839,"o":"m 585 0 l 546 172 l 290 172 l 254 0 l 4 0 l 243 956 l 600 956 l 839 0 l 585 0 m 422 738 l 413 738 l 333 365 l 503 365 l 422 738 m 619 1233 q 604 1125 619 1168 q 544 1058 589 1082 q 415 1033 500 1033 q 287 1058 331 1033 q 228 1124 243 1082 q 214 1233 214 1167 l 343 1233 q 347 1190 343 1206 q 365 1166 350 1175 q 415 1157 381 1157 q 465 1166 450 1157 q 485 1190 481 1175 q 489 1233 489 1206 l 619 1233 m 347 1258 q 360 1320 347 1303 q 410 1349 372 1338 l 429 1356 q 467 1372 458 1365 q 476 1394 476 1379 q 463 1419 476 1414 q 408 1425 450 1425 q 265 1418 332 1425 l 265 1531 q 350 1542 301 1538 q 439 1547 399 1547 q 542 1538 501 1547 q 606 1500 582 1529 q 629 1413 629 1471 q 610 1335 629 1358 q 540 1294 590 1311 l 521 1286 q 483 1268 490 1275 q 475 1243 475 1261 l 347 1243 l 347 1258 z "},"Ẵ":{"ha":843,"x_min":4,"x_max":839,"o":"m 585 0 l 546 172 l 290 172 l 254 0 l 4 0 l 243 956 l 600 956 l 839 0 l 585 0 m 422 738 l 413 738 l 333 365 l 503 365 l 422 738 m 622 1233 q 607 1125 622 1168 q 547 1058 592 1082 q 418 1033 503 1033 q 290 1058 333 1033 q 231 1124 246 1082 q 217 1233 217 1167 l 346 1233 q 349 1190 346 1206 q 368 1166 353 1175 q 418 1157 383 1157 q 468 1166 453 1157 q 488 1190 483 1175 q 492 1233 492 1206 l 622 1233 m 674 1511 q 667 1396 674 1435 q 635 1335 661 1357 q 550 1313 608 1313 q 406 1336 497 1313 l 378 1342 q 319 1351 339 1351 q 296 1340 300 1351 q 292 1296 292 1329 l 171 1296 q 177 1411 171 1372 q 210 1472 183 1450 q 296 1494 238 1494 q 367 1488 328 1494 q 440 1472 407 1481 q 525 1457 504 1457 q 550 1467 546 1457 q 554 1511 554 1478 l 674 1511 z "},"Ǎ":{"ha":843,"x_min":4,"x_max":839,"o":"m 585 0 l 546 172 l 290 172 l 254 0 l 4 0 l 243 956 l 600 956 l 839 0 l 585 0 m 422 738 l 413 738 l 333 365 l 503 365 l 422 738 m 313 1039 l 197 1222 l 197 1233 l 350 1233 l 424 1133 l 496 1233 l 647 1233 l 647 1222 l 531 1039 l 313 1039 z "},"Â":{"ha":842,"x_min":4,"x_max":839,"o":"m 585 0 l 546 172 l 290 172 l 254 0 l 4 0 l 243 956 l 600 956 l 839 0 l 585 0 m 422 738 l 413 738 l 333 365 l 503 365 l 422 738 m 196 1042 l 196 1053 l 310 1236 l 528 1236 l 646 1053 l 646 1042 l 493 1042 l 419 1142 l 347 1042 l 196 1042 z "},"Ấ":{"ha":843,"x_min":4,"x_max":839,"o":"m 585 0 l 546 172 l 290 172 l 254 0 l 4 0 l 243 956 l 600 956 l 839 0 l 585 0 m 422 738 l 413 738 l 333 365 l 503 365 l 422 738 m 197 1024 l 197 1035 l 311 1218 l 529 1218 l 647 1035 l 647 1024 l 494 1024 l 421 1124 l 349 1024 l 197 1024 m 439 1254 l 439 1261 l 538 1458 l 761 1458 l 761 1451 l 610 1254 l 439 1254 z "},"Ậ":{"ha":843,"x_min":4,"x_max":839,"o":"m 585 0 l 546 172 l 290 172 l 254 0 l 4 0 l 243 956 l 600 956 l 839 0 l 585 0 m 422 738 l 413 738 l 333 365 l 503 365 l 422 738 m 299 -294 l 299 -86 l 546 -86 l 546 -294 l 299 -294 m 197 1039 l 197 1050 l 311 1233 l 529 1233 l 647 1050 l 647 1039 l 494 1039 l 421 1139 l 349 1039 l 197 1039 z "},"Ầ":{"ha":843,"x_min":4,"x_max":839,"o":"m 585 0 l 546 172 l 290 172 l 254 0 l 4 0 l 243 956 l 600 956 l 839 0 l 585 0 m 422 738 l 413 738 l 333 365 l 503 365 l 422 738 m 185 1019 l 185 1031 l 299 1214 l 517 1214 l 635 1031 l 635 1019 l 482 1019 l 408 1119 l 336 1019 l 185 1019 m 486 1250 l 336 1447 l 336 1454 l 560 1454 l 658 1257 l 658 1250 l 486 1250 z "},"Ẩ":{"ha":843,"x_min":4,"x_max":839,"o":"m 585 0 l 546 172 l 290 172 l 254 0 l 4 0 l 243 956 l 600 956 l 839 0 l 585 0 m 422 738 l 413 738 l 333 365 l 503 365 l 422 738 m 197 1019 l 197 1031 l 311 1214 l 529 1214 l 647 1031 l 647 1019 l 494 1019 l 421 1119 l 349 1019 l 197 1019 m 488 1257 q 500 1319 488 1301 q 550 1347 513 1336 l 569 1354 q 608 1371 599 1364 q 617 1393 617 1378 q 603 1418 617 1413 q 549 1424 590 1424 q 406 1417 472 1424 l 406 1529 q 490 1541 442 1536 q 579 1546 539 1546 q 682 1537 642 1546 q 746 1499 722 1528 q 769 1411 769 1469 q 750 1333 769 1357 q 681 1293 731 1310 l 661 1285 q 623 1267 631 1274 q 615 1242 615 1260 l 488 1242 l 488 1257 z "},"Ẫ":{"ha":843,"x_min":4,"x_max":839,"o":"m 585 0 l 546 172 l 290 172 l 254 0 l 4 0 l 243 956 l 600 956 l 839 0 l 585 0 m 422 738 l 413 738 l 333 365 l 503 365 l 422 738 m 194 1019 l 194 1031 l 308 1214 l 526 1214 l 644 1031 l 644 1019 l 492 1019 l 418 1119 l 346 1019 l 194 1019 m 672 1454 q 666 1339 672 1378 q 633 1278 660 1300 q 549 1256 607 1256 q 404 1279 496 1256 l 376 1285 q 318 1294 338 1294 q 294 1283 299 1294 q 290 1239 290 1272 l 169 1239 q 176 1354 169 1315 q 209 1415 182 1393 q 294 1438 236 1438 q 366 1431 326 1438 q 439 1415 406 1424 q 524 1400 503 1400 q 549 1410 544 1400 q 553 1454 553 1421 l 672 1454 z "},"Ȁ":{"ha":843,"x_min":4,"x_max":839,"o":"m 585 0 l 546 172 l 290 172 l 254 0 l 4 0 l 243 956 l 600 956 l 839 0 l 585 0 m 422 738 l 413 738 l 333 365 l 503 365 l 422 738 m 386 1049 l 244 1049 l 122 1210 l 122 1215 l 304 1215 l 386 1056 l 386 1049 m 621 1049 l 482 1049 l 358 1210 l 358 1215 l 540 1215 l 621 1056 l 621 1049 z "},"Ä":{"ha":842,"x_min":4,"x_max":839,"o":"m 585 0 l 546 172 l 290 172 l 254 0 l 4 0 l 243 956 l 600 956 l 839 0 l 585 0 m 422 738 l 413 738 l 333 365 l 503 365 l 422 738 m 189 1081 l 189 1238 l 378 1238 l 378 1081 l 189 1081 m 461 1081 l 461 1238 l 651 1238 l 651 1081 l 461 1081 z "},"Ạ":{"ha":843,"x_min":4,"x_max":839,"o":"m 585 0 l 546 172 l 290 172 l 254 0 l 4 0 l 243 956 l 600 956 l 839 0 l 585 0 m 422 738 l 413 738 l 333 365 l 503 365 l 422 738 m 299 -294 l 299 -86 l 546 -86 l 546 -294 l 299 -294 z "},"À":{"ha":842,"x_min":4,"x_max":839,"o":"m 585 0 l 546 172 l 290 172 l 254 0 l 4 0 l 243 956 l 600 956 l 839 0 l 585 0 m 422 738 l 413 738 l 333 365 l 503 365 l 422 738 m 351 1040 l 201 1238 l 201 1244 l 425 1244 l 524 1047 l 524 1040 l 351 1040 z "},"Ả":{"ha":843,"x_min":4,"x_max":839,"o":"m 585 0 l 546 172 l 290 172 l 254 0 l 4 0 l 243 956 l 600 956 l 839 0 l 585 0 m 422 738 l 413 738 l 333 365 l 503 365 l 422 738 m 321 1022 q 333 1085 321 1067 q 383 1114 346 1103 l 403 1119 q 441 1136 432 1129 q 450 1158 450 1143 q 438 1184 450 1179 q 382 1189 425 1189 q 239 1182 306 1189 l 239 1294 q 324 1306 275 1301 q 413 1311 372 1311 q 515 1302 475 1311 q 579 1264 556 1293 q 603 1176 603 1235 q 583 1099 603 1122 q 514 1058 564 1076 l 494 1051 q 456 1033 464 1040 q 449 1007 449 1025 l 321 1007 l 321 1022 z "},"Ȃ":{"ha":843,"x_min":4,"x_max":839,"o":"m 585 0 l 546 172 l 290 172 l 254 0 l 4 0 l 243 956 l 600 956 l 839 0 l 585 0 m 422 738 l 413 738 l 333 365 l 503 365 l 422 738 m 218 1040 q 233 1149 218 1106 q 293 1216 249 1192 q 422 1240 338 1240 q 551 1216 507 1240 q 609 1149 594 1192 q 624 1040 624 1107 l 494 1040 q 491 1083 494 1068 q 472 1108 488 1099 q 422 1117 457 1117 q 372 1108 388 1117 q 353 1083 357 1099 q 349 1040 349 1068 l 218 1040 z "},"Ā":{"ha":843,"x_min":4,"x_max":839,"o":"m 585 0 l 546 172 l 290 172 l 254 0 l 4 0 l 243 956 l 600 956 l 839 0 l 585 0 m 422 738 l 413 738 l 333 365 l 503 365 l 422 738 m 247 1044 l 247 1233 l 596 1233 l 596 1044 l 247 1044 z "},"Ą":{"ha":842,"x_min":4,"x_max":838,"o":"m 690 -107 q 703 -143 690 -131 q 750 -156 717 -156 q 771 -154 761 -156 l 771 -267 q 675 -272 715 -272 q 544 -239 583 -272 q 506 -151 506 -206 q 526 -73 506 -112 q 583 1 547 -33 l 544 172 l 290 172 l 253 0 l 4 0 l 242 956 l 600 956 l 838 0 l 761 0 q 712 -51 733 -21 q 690 -107 690 -81 m 332 364 l 503 364 l 422 738 l 411 738 l 332 364 z "},"Å":{"ha":843,"x_min":4,"x_max":839,"o":"m 839 0 l 585 0 l 546 172 l 290 172 l 254 0 l 4 0 l 242 954 q 215 1003 221 974 q 208 1085 208 1033 q 222 1191 208 1156 q 280 1244 235 1226 q 421 1261 325 1261 q 563 1244 518 1261 q 620 1191 607 1226 q 633 1085 633 1156 q 627 1003 633 1033 q 601 954 621 972 l 839 0 m 421 1156 q 369 1149 385 1156 q 351 1130 354 1143 q 347 1085 347 1117 q 351 1041 347 1054 q 369 1022 354 1028 q 421 1017 385 1017 q 474 1022 458 1017 q 492 1040 489 1028 q 496 1085 496 1053 q 492 1130 496 1117 q 474 1149 489 1143 q 421 1156 458 1156 m 333 365 l 503 365 l 422 738 l 413 738 l 333 365 z "},"Ǻ":{"ha":843,"x_min":4,"x_max":839,"o":"m 839 0 l 585 0 l 546 172 l 290 172 l 254 0 l 4 0 l 242 954 q 215 1003 221 974 q 208 1085 208 1033 q 222 1191 208 1156 q 280 1244 235 1226 q 421 1261 325 1261 q 563 1244 518 1261 q 620 1191 607 1226 q 633 1085 633 1156 q 627 1003 633 1033 q 601 954 621 972 l 839 0 m 421 1156 q 369 1149 385 1156 q 351 1130 354 1143 q 347 1085 347 1117 q 351 1041 347 1054 q 369 1022 354 1028 q 421 1017 385 1017 q 474 1022 458 1017 q 492 1040 489 1028 q 496 1085 496 1053 q 492 1130 496 1117 q 474 1149 489 1143 q 421 1156 458 1156 m 333 365 l 503 365 l 422 738 l 413 738 l 333 365 m 326 1335 l 326 1342 l 425 1539 l 649 1539 l 649 1532 l 497 1335 l 326 1335 z "},"Ã":{"ha":842,"x_min":4,"x_max":839,"o":"m 585 0 l 546 172 l 290 172 l 254 0 l 4 0 l 243 956 l 600 956 l 839 0 l 585 0 m 422 738 l 413 738 l 333 365 l 503 365 l 422 738 m 672 1257 q 666 1142 672 1181 q 633 1081 660 1103 q 549 1058 607 1058 q 404 1082 496 1058 l 376 1088 q 318 1097 338 1097 q 294 1087 299 1097 q 290 1042 290 1076 l 169 1042 q 176 1157 169 1118 q 209 1218 182 1196 q 294 1240 236 1240 q 366 1233 326 1240 q 439 1218 406 1226 q 524 1203 503 1203 q 549 1213 544 1203 q 553 1257 553 1224 l 672 1257 z "},"Æ":{"ha":1169,"x_min":-25,"x_max":1110,"o":"m 558 0 l 539 174 l 281 174 l 224 0 l -25 0 l 331 956 l 1110 956 l 1110 757 l 706 757 l 728 581 l 1057 581 l 1057 385 l 751 385 l 775 199 l 1110 199 l 1110 0 l 558 0 m 478 750 l 468 750 l 344 367 l 519 367 l 478 750 z "},"Ǽ":{"ha":1169,"x_min":-25,"x_max":1110,"o":"m 558 0 l 539 174 l 281 174 l 224 0 l -25 0 l 331 956 l 1110 956 l 1110 757 l 706 757 l 728 581 l 1057 581 l 1057 385 l 751 385 l 775 199 l 1110 199 l 1110 0 l 558 0 m 478 750 l 468 750 l 344 367 l 519 367 l 478 750 m 490 1029 l 490 1036 l 589 1233 l 813 1233 l 813 1226 l 661 1029 l 490 1029 z "},"B":{"ha":810,"x_min":75,"x_max":760,"o":"m 75 956 l 499 956 q 754 715 754 956 q 718 562 754 614 q 604 490 682 510 l 604 485 q 723 416 686 465 q 760 256 760 367 q 698 64 760 128 q 497 0 636 0 l 75 0 l 75 956 m 413 572 q 469 579 451 572 q 494 606 488 586 q 501 667 501 625 q 495 728 501 710 q 471 754 489 747 q 413 761 453 761 l 326 761 l 326 572 l 413 572 m 415 194 q 474 201 456 194 q 499 228 493 208 q 506 293 506 249 q 499 358 506 338 q 474 386 492 379 q 415 393 456 393 l 326 393 l 326 194 l 415 194 z "},"C":{"ha":681,"x_min":58,"x_max":635,"o":"m 635 13 q 535 -4 596 3 q 418 -11 474 -11 q 183 33 258 -11 q 83 176 107 76 q 58 478 58 275 q 83 779 58 679 q 183 923 108 879 q 418 967 258 967 q 533 960 474 967 q 631 942 592 953 l 631 757 q 475 768 504 768 q 361 751 392 768 q 322 679 331 733 q 314 478 314 625 q 322 276 314 329 q 361 205 331 222 q 475 188 392 188 q 635 199 564 188 l 635 13 z "},"Ć":{"ha":681,"x_min":58,"x_max":635,"o":"m 635 13 q 535 -4 596 3 q 418 -11 474 -11 q 183 33 258 -11 q 83 176 107 76 q 58 478 58 275 q 83 779 58 679 q 183 923 108 879 q 418 967 258 967 q 533 960 474 967 q 631 942 592 953 l 631 757 q 475 768 504 768 q 361 751 392 768 q 322 679 331 733 q 314 478 314 625 q 322 276 314 329 q 361 205 331 222 q 475 188 392 188 q 635 199 564 188 l 635 13 m 246 1029 l 246 1036 l 344 1233 l 568 1233 l 568 1226 l 417 1029 l 246 1029 z "},"Č":{"ha":681,"x_min":58,"x_max":635,"o":"m 635 13 q 535 -4 596 3 q 418 -11 474 -11 q 183 33 258 -11 q 83 176 107 76 q 58 478 58 275 q 83 779 58 679 q 183 923 108 879 q 418 967 258 967 q 533 960 474 967 q 631 942 592 953 l 631 757 q 475 768 504 768 q 361 751 392 768 q 322 679 331 733 q 314 478 314 625 q 322 276 314 329 q 361 205 331 222 q 475 188 392 188 q 635 199 564 188 l 635 13 m 231 1039 l 115 1222 l 115 1233 l 268 1233 l 342 1133 l 414 1233 l 565 1233 l 565 1222 l 449 1039 l 231 1039 z "},"Ç":{"ha":681,"x_min":58,"x_max":635,"o":"m 475 188 q 635 199 564 188 l 635 13 q 535 -4 596 3 q 418 -11 474 -11 l 417 -11 l 371 -262 l 165 -262 l 165 -256 l 264 3 q 132 76 176 22 q 73 222 88 129 q 58 478 58 314 q 83 779 58 679 q 183 923 108 879 q 418 967 258 967 q 533 960 474 967 q 631 942 592 953 l 631 757 q 475 768 504 768 q 361 751 392 768 q 322 679 331 733 q 314 478 314 625 q 322 276 314 329 q 361 205 331 222 q 475 188 392 188 z "},"Ĉ":{"ha":681,"x_min":58,"x_max":635,"o":"m 635 13 q 535 -4 596 3 q 418 -11 474 -11 q 183 33 258 -11 q 83 176 107 76 q 58 478 58 275 q 83 779 58 679 q 183 923 108 879 q 418 967 258 967 q 533 960 474 967 q 631 942 592 953 l 631 757 q 475 768 504 768 q 361 751 392 768 q 322 679 331 733 q 314 478 314 625 q 322 276 314 329 q 361 205 331 222 q 475 188 392 188 q 635 199 564 188 l 635 13 m 115 1039 l 115 1050 l 229 1233 l 447 1233 l 565 1050 l 565 1039 l 413 1039 l 339 1139 l 267 1039 l 115 1039 z "},"Ċ":{"ha":681,"x_min":58,"x_max":635,"o":"m 635 13 q 535 -4 596 3 q 418 -11 474 -11 q 183 33 258 -11 q 83 176 107 76 q 58 478 58 275 q 83 779 58 679 q 183 923 108 879 q 418 967 258 967 q 533 960 474 967 q 631 942 592 953 l 631 757 q 475 768 504 768 q 361 751 392 768 q 322 679 331 733 q 314 478 314 625 q 322 276 314 329 q 361 205 331 222 q 475 188 392 188 q 635 199 564 188 l 635 13 m 246 1058 l 246 1215 l 435 1215 l 435 1058 l 246 1058 z "},"D":{"ha":822,"x_min":75,"x_max":764,"o":"m 75 956 l 383 956 q 648 915 569 956 q 745 783 726 874 q 764 478 764 693 q 745 172 764 263 q 648 41 726 82 q 383 0 569 0 l 75 0 l 75 956 m 383 199 q 474 212 450 199 q 503 277 497 225 q 510 478 510 329 q 503 679 510 628 q 474 744 497 731 q 383 757 451 757 l 329 757 l 329 199 l 383 199 z "},"Ǳ":{"ha":1568,"x_min":75,"x_max":1518,"o":"m 75 956 l 383 956 q 648 915 569 956 q 745 783 726 874 q 764 478 764 693 q 745 172 764 263 q 648 41 726 82 q 383 0 569 0 l 75 0 l 75 956 m 383 199 q 474 212 450 199 q 503 277 497 225 q 510 478 510 329 q 503 679 510 628 q 474 744 497 731 q 383 757 451 757 l 329 757 l 329 199 l 383 199 m 871 0 l 871 189 l 1217 757 l 885 757 l 885 956 l 1518 956 l 1518 771 l 1169 199 l 1518 199 l 1518 0 l 871 0 z "},"Ǆ":{"ha":1568,"x_min":75,"x_max":1518,"o":"m 75 956 l 383 956 q 648 915 569 956 q 745 783 726 874 q 764 478 764 693 q 745 172 764 263 q 648 41 726 82 q 383 0 569 0 l 75 0 l 75 956 m 383 199 q 474 212 450 199 q 503 277 497 225 q 510 478 510 329 q 503 679 510 628 q 474 744 497 731 q 383 757 451 757 l 329 757 l 329 199 l 383 199 m 871 0 l 871 189 l 1217 757 l 885 757 l 885 956 l 1518 956 l 1518 771 l 1169 199 l 1518 199 l 1518 0 l 871 0 m 1082 1039 l 967 1222 l 967 1233 l 1119 1233 l 1193 1133 l 1265 1233 l 1417 1233 l 1417 1222 l 1300 1039 l 1082 1039 z "},"Ð":{"ha":824,"x_min":-1,"x_max":764,"o":"m 75 396 l -1 396 l -1 571 l 75 571 l 75 956 l 383 956 q 648 915 569 956 q 745 783 726 874 q 764 478 764 693 q 745 172 764 263 q 648 41 726 82 q 383 0 569 0 l 75 0 l 75 396 m 383 199 q 474 212 450 199 q 503 277 497 225 q 510 478 510 329 q 503 679 510 628 q 474 744 497 731 q 383 757 451 757 l 329 757 l 329 571 l 418 571 l 418 396 l 329 396 l 329 199 l 383 199 z "},"Ď":{"ha":822,"x_min":75,"x_max":764,"o":"m 75 956 l 383 956 q 648 915 569 956 q 745 783 726 874 q 764 478 764 693 q 745 172 764 263 q 648 41 726 82 q 383 0 569 0 l 75 0 l 75 956 m 383 199 q 474 212 450 199 q 503 277 497 225 q 510 478 510 329 q 503 679 510 628 q 474 744 497 731 q 383 757 451 757 l 329 757 l 329 199 l 383 199 m 301 1039 l 186 1222 l 186 1233 l 339 1233 l 413 1133 l 485 1233 l 636 1233 l 636 1222 l 519 1039 l 301 1039 z "},"Đ":{"ha":824,"x_min":-1,"x_max":764,"o":"m 75 396 l -1 396 l -1 571 l 75 571 l 75 956 l 383 956 q 648 915 569 956 q 745 783 726 874 q 764 478 764 693 q 745 172 764 263 q 648 41 726 82 q 383 0 569 0 l 75 0 l 75 396 m 383 199 q 474 212 450 199 q 503 277 497 225 q 510 478 510 329 q 503 679 510 628 q 474 744 497 731 q 383 757 451 757 l 329 757 l 329 571 l 418 571 l 418 396 l 329 396 l 329 199 l 383 199 z "},"Ḍ":{"ha":822,"x_min":75,"x_max":764,"o":"m 75 956 l 383 956 q 648 915 569 956 q 745 783 726 874 q 764 478 764 693 q 745 172 764 263 q 648 41 726 82 q 383 0 569 0 l 75 0 l 75 956 m 383 199 q 474 212 450 199 q 503 277 497 225 q 510 478 510 329 q 503 679 510 628 q 474 744 497 731 q 383 757 451 757 l 329 757 l 329 199 l 383 199 m 288 -294 l 288 -86 l 535 -86 l 535 -294 l 288 -294 z "},"ǲ":{"ha":1475,"x_min":75,"x_max":1426,"o":"m 75 956 l 383 956 q 648 915 569 956 q 745 783 726 874 q 764 478 764 693 q 745 172 764 263 q 648 41 726 82 q 383 0 569 0 l 75 0 l 75 956 m 383 199 q 474 212 450 199 q 503 277 497 225 q 510 478 510 329 q 503 679 510 628 q 474 744 497 731 q 383 757 451 757 l 329 757 l 329 199 l 383 199 m 871 0 l 871 167 l 1138 531 l 883 531 l 883 708 l 1424 708 l 1424 542 l 1157 178 l 1426 178 l 1426 0 l 871 0 z "},"ǅ":{"ha":1475,"x_min":75,"x_max":1426,"o":"m 75 956 l 383 956 q 648 915 569 956 q 745 783 726 874 q 764 478 764 693 q 745 172 764 263 q 648 41 726 82 q 383 0 569 0 l 75 0 l 75 956 m 383 199 q 474 212 450 199 q 503 277 497 225 q 510 478 510 329 q 503 679 510 628 q 474 744 497 731 q 383 757 451 757 l 329 757 l 329 199 l 383 199 m 871 0 l 871 167 l 1138 531 l 883 531 l 883 708 l 1424 708 l 1424 542 l 1157 178 l 1426 178 l 1426 0 l 871 0 m 1046 838 l 931 1021 l 931 1032 l 1083 1032 l 1157 932 l 1229 1032 l 1381 1032 l 1381 1021 l 1264 838 l 1046 838 z "},"E":{"ha":725,"x_min":75,"x_max":665,"o":"m 75 0 l 75 956 l 665 956 l 665 757 l 329 757 l 329 581 l 613 581 l 613 385 l 329 385 l 329 199 l 665 199 l 665 0 l 75 0 z "},"É":{"ha":721,"x_min":75,"x_max":665,"o":"m 75 0 l 75 956 l 665 956 l 665 757 l 329 757 l 329 581 l 613 581 l 613 385 l 329 385 l 329 199 l 665 199 l 665 0 l 75 0 m 279 1042 l 279 1049 l 378 1246 l 601 1246 l 601 1239 l 450 1042 l 279 1042 z "},"Ĕ":{"ha":725,"x_min":75,"x_max":665,"o":"m 75 0 l 75 956 l 665 956 l 665 757 l 329 757 l 329 581 l 613 581 l 613 385 l 329 385 l 329 199 l 665 199 l 665 0 l 75 0 m 571 1233 q 556 1125 571 1168 q 496 1058 540 1082 q 367 1033 451 1033 q 238 1058 282 1033 q 180 1124 194 1082 q 165 1233 165 1167 l 294 1233 q 298 1190 294 1206 q 317 1166 301 1175 q 367 1157 332 1157 q 417 1166 401 1157 q 436 1190 432 1175 q 440 1233 440 1206 l 571 1233 z "},"Ě":{"ha":725,"x_min":75,"x_max":665,"o":"m 75 0 l 75 956 l 665 956 l 665 757 l 329 757 l 329 581 l 613 581 l 613 385 l 329 385 l 329 199 l 665 199 l 665 0 l 75 0 m 258 1039 l 143 1222 l 143 1233 l 296 1233 l 369 1133 l 442 1233 l 593 1233 l 593 1222 l 476 1039 l 258 1039 z "},"Ê":{"ha":721,"x_min":75,"x_max":665,"o":"m 75 0 l 75 956 l 665 956 l 665 757 l 329 757 l 329 581 l 613 581 l 613 385 l 329 385 l 329 199 l 665 199 l 665 0 l 75 0 m 142 1042 l 142 1053 l 256 1236 l 474 1236 l 592 1053 l 592 1042 l 439 1042 l 365 1142 l 293 1042 l 142 1042 z "},"Ế":{"ha":725,"x_min":75,"x_max":707,"o":"m 75 0 l 75 956 l 665 956 l 665 757 l 329 757 l 329 581 l 613 581 l 613 385 l 329 385 l 329 199 l 665 199 l 665 0 l 75 0 m 143 1024 l 143 1035 l 257 1218 l 475 1218 l 593 1035 l 593 1024 l 440 1024 l 367 1124 l 294 1024 l 143 1024 m 385 1254 l 385 1261 l 483 1458 l 707 1458 l 707 1451 l 556 1254 l 385 1254 z "},"Ệ":{"ha":725,"x_min":75,"x_max":665,"o":"m 75 0 l 75 956 l 665 956 l 665 757 l 329 757 l 329 581 l 613 581 l 613 385 l 329 385 l 329 199 l 665 199 l 665 0 l 75 0 m 244 -294 l 244 -86 l 492 -86 l 492 -294 l 244 -294 m 143 1039 l 143 1050 l 257 1233 l 475 1233 l 593 1050 l 593 1039 l 440 1039 l 367 1139 l 294 1039 l 143 1039 z "},"Ề":{"ha":725,"x_min":75,"x_max":665,"o":"m 75 0 l 75 956 l 665 956 l 665 757 l 329 757 l 329 581 l 613 581 l 613 385 l 329 385 l 329 199 l 665 199 l 665 0 l 75 0 m 131 1019 l 131 1031 l 244 1214 l 463 1214 l 581 1031 l 581 1019 l 428 1019 l 354 1119 l 282 1019 l 131 1019 m 432 1250 l 282 1447 l 282 1454 l 506 1454 l 604 1257 l 604 1250 l 432 1250 z "},"Ể":{"ha":725,"x_min":75,"x_max":715,"o":"m 75 0 l 75 956 l 665 956 l 665 757 l 329 757 l 329 581 l 613 581 l 613 385 l 329 385 l 329 199 l 665 199 l 665 0 l 75 0 m 143 1019 l 143 1031 l 257 1214 l 475 1214 l 593 1031 l 593 1019 l 440 1019 l 367 1119 l 294 1019 l 143 1019 m 433 1257 q 446 1319 433 1301 q 496 1347 458 1336 l 515 1354 q 553 1371 544 1364 q 563 1393 563 1378 q 549 1418 563 1413 q 494 1424 536 1424 q 351 1417 418 1424 l 351 1529 q 436 1541 388 1536 q 525 1546 485 1546 q 628 1537 588 1546 q 692 1499 668 1528 q 715 1411 715 1469 q 696 1333 715 1357 q 626 1293 676 1310 l 607 1285 q 569 1267 576 1274 q 561 1242 561 1260 l 433 1242 l 433 1257 z "},"Ễ":{"ha":725,"x_min":75,"x_max":665,"o":"m 75 0 l 75 956 l 665 956 l 665 757 l 329 757 l 329 581 l 613 581 l 613 385 l 329 385 l 329 199 l 665 199 l 665 0 l 75 0 m 140 1019 l 140 1031 l 254 1214 l 472 1214 l 590 1031 l 590 1019 l 438 1019 l 364 1119 l 292 1019 l 140 1019 m 618 1454 q 612 1339 618 1378 q 579 1278 606 1300 q 494 1256 553 1256 q 350 1279 442 1256 l 322 1285 q 264 1294 283 1294 q 240 1283 244 1294 q 236 1239 236 1272 l 115 1239 q 122 1354 115 1315 q 155 1415 128 1393 q 240 1438 182 1438 q 312 1431 272 1438 q 385 1415 351 1424 q 469 1400 449 1400 q 494 1410 490 1400 q 499 1454 499 1421 l 618 1454 z "},"Ȅ":{"ha":725,"x_min":68,"x_max":665,"o":"m 75 0 l 75 956 l 665 956 l 665 757 l 329 757 l 329 581 l 613 581 l 613 385 l 329 385 l 329 199 l 665 199 l 665 0 l 75 0 m 332 1049 l 190 1049 l 68 1210 l 68 1215 l 250 1215 l 332 1056 l 332 1049 m 567 1049 l 428 1049 l 304 1210 l 304 1215 l 486 1215 l 567 1056 l 567 1049 z "},"Ë":{"ha":721,"x_min":75,"x_max":665,"o":"m 75 0 l 75 956 l 665 956 l 665 757 l 329 757 l 329 581 l 613 581 l 613 385 l 329 385 l 329 199 l 665 199 l 665 0 l 75 0 m 138 1061 l 138 1218 l 326 1218 l 326 1061 l 138 1061 m 410 1061 l 410 1218 l 600 1218 l 600 1061 l 410 1061 z "},"Ė":{"ha":725,"x_min":75,"x_max":665,"o":"m 75 0 l 75 956 l 665 956 l 665 757 l 329 757 l 329 581 l 613 581 l 613 385 l 329 385 l 329 199 l 665 199 l 665 0 l 75 0 m 274 1058 l 274 1215 l 463 1215 l 463 1058 l 274 1058 z "},"Ẹ":{"ha":725,"x_min":75,"x_max":665,"o":"m 75 0 l 75 956 l 665 956 l 665 757 l 329 757 l 329 581 l 613 581 l 613 385 l 329 385 l 329 199 l 665 199 l 665 0 l 75 0 m 244 -294 l 244 -86 l 492 -86 l 492 -294 l 244 -294 z "},"È":{"ha":721,"x_min":75,"x_max":665,"o":"m 75 0 l 75 956 l 665 956 l 665 757 l 329 757 l 329 581 l 613 581 l 613 385 l 329 385 l 329 199 l 665 199 l 665 0 l 75 0 m 313 1042 l 163 1239 l 163 1246 l 386 1246 l 485 1049 l 485 1042 l 313 1042 z "},"Ẻ":{"ha":725,"x_min":75,"x_max":665,"o":"m 75 0 l 75 956 l 665 956 l 665 757 l 329 757 l 329 581 l 613 581 l 613 385 l 329 385 l 329 199 l 665 199 l 665 0 l 75 0 m 267 1022 q 279 1085 267 1067 q 329 1114 292 1103 l 349 1119 q 387 1136 378 1129 q 396 1158 396 1143 q 383 1184 396 1179 q 328 1189 371 1189 q 185 1182 251 1189 l 185 1294 q 269 1306 221 1301 q 358 1311 318 1311 q 461 1302 421 1311 q 525 1264 501 1293 q 549 1176 549 1235 q 529 1099 549 1122 q 460 1058 510 1076 l 440 1051 q 402 1033 410 1040 q 394 1007 394 1025 l 267 1007 l 267 1022 z "},"Ȇ":{"ha":725,"x_min":75,"x_max":665,"o":"m 75 0 l 75 956 l 665 956 l 665 757 l 329 757 l 329 581 l 613 581 l 613 385 l 329 385 l 329 199 l 665 199 l 665 0 l 75 0 m 164 1040 q 179 1149 164 1106 q 239 1216 194 1192 q 368 1240 283 1240 q 497 1216 453 1240 q 555 1149 540 1192 q 569 1040 569 1107 l 440 1040 q 437 1083 440 1068 q 418 1108 433 1099 q 368 1117 403 1117 q 318 1108 333 1117 q 299 1083 303 1099 q 294 1040 294 1068 l 164 1040 z "},"Ē":{"ha":725,"x_min":75,"x_max":665,"o":"m 75 0 l 75 956 l 665 956 l 665 757 l 329 757 l 329 581 l 613 581 l 613 385 l 329 385 l 329 199 l 665 199 l 665 0 l 75 0 m 193 1044 l 193 1233 l 542 1233 l 542 1044 l 193 1044 z "},"Ę":{"ha":721,"x_min":75,"x_max":661,"o":"m 554 -272 q 423 -239 463 -272 q 383 -156 383 -206 q 479 0 383 -78 l 75 0 l 75 956 l 661 956 l 661 758 l 328 758 l 328 581 l 610 581 l 610 385 l 328 385 l 328 197 l 661 197 l 661 0 q 597 -49 625 -19 q 568 -111 568 -79 q 628 -156 568 -156 q 649 -154 640 -156 l 649 -267 q 554 -272 601 -272 z "},"Ẽ":{"ha":725,"x_min":75,"x_max":665,"o":"m 75 0 l 75 956 l 665 956 l 665 757 l 329 757 l 329 581 l 613 581 l 613 385 l 329 385 l 329 199 l 665 199 l 665 0 l 75 0 m 618 1233 q 612 1118 618 1157 q 579 1057 606 1079 q 494 1035 553 1035 q 350 1058 442 1035 l 322 1064 q 264 1074 283 1074 q 240 1063 244 1074 q 236 1018 236 1051 l 115 1018 q 122 1133 115 1094 q 155 1194 128 1172 q 240 1217 182 1217 q 312 1210 272 1217 q 385 1194 351 1203 q 469 1179 449 1179 q 494 1190 490 1179 q 499 1233 499 1200 l 618 1233 z "},"F":{"ha":679,"x_min":75,"x_max":640,"o":"m 75 0 l 75 956 l 640 956 l 640 757 l 329 757 l 329 550 l 599 550 l 599 351 l 329 351 l 329 0 l 75 0 z "},"G":{"ha":810,"x_min":58,"x_max":740,"o":"m 418 379 l 418 564 l 740 564 l 740 19 q 592 -3 678 6 q 438 -11 507 -11 q 198 29 278 -11 q 88 172 118 69 q 58 478 58 274 q 90 781 58 679 q 201 925 121 883 q 443 967 282 967 q 595 958 513 967 q 738 936 678 949 l 738 751 q 524 768 590 768 q 374 754 414 768 q 322 685 335 740 q 310 478 310 629 q 318 282 310 340 q 354 203 326 224 q 446 182 382 182 l 513 185 l 513 379 l 418 379 z "},"Ǵ":{"ha":810,"x_min":58,"x_max":740,"o":"m 418 379 l 418 564 l 740 564 l 740 19 q 592 -3 678 6 q 438 -11 507 -11 q 198 29 278 -11 q 88 172 118 69 q 58 478 58 274 q 90 781 58 679 q 201 925 121 883 q 443 967 282 967 q 595 958 513 967 q 738 936 678 949 l 738 751 q 524 768 590 768 q 374 754 414 768 q 322 685 335 740 q 310 478 310 629 q 318 282 310 340 q 354 203 326 224 q 446 182 382 182 l 513 185 l 513 379 l 418 379 m 308 1029 l 308 1036 l 407 1233 l 631 1233 l 631 1226 l 479 1029 l 308 1029 z "},"Ğ":{"ha":810,"x_min":58,"x_max":740,"o":"m 418 379 l 418 564 l 740 564 l 740 19 q 592 -3 678 6 q 438 -11 507 -11 q 198 29 278 -11 q 88 172 118 69 q 58 478 58 274 q 90 781 58 679 q 201 925 121 883 q 443 967 282 967 q 595 958 513 967 q 738 936 678 949 l 738 751 q 524 768 590 768 q 374 754 414 768 q 322 685 335 740 q 310 478 310 629 q 318 282 310 340 q 354 203 326 224 q 446 182 382 182 l 513 185 l 513 379 l 418 379 m 606 1233 q 590 1125 606 1168 q 531 1058 575 1082 q 401 1033 486 1033 q 273 1058 317 1033 q 215 1124 229 1082 q 200 1233 200 1167 l 329 1233 q 333 1190 329 1206 q 351 1166 336 1175 q 401 1157 367 1157 q 451 1166 436 1157 q 471 1190 467 1175 q 475 1233 475 1206 l 606 1233 z "},"Ǧ":{"ha":810,"x_min":58,"x_max":740,"o":"m 418 379 l 418 564 l 740 564 l 740 19 q 592 -3 678 6 q 438 -11 507 -11 q 198 29 278 -11 q 88 172 118 69 q 58 478 58 274 q 90 781 58 679 q 201 925 121 883 q 443 967 282 967 q 595 958 513 967 q 738 936 678 949 l 738 751 q 524 768 590 768 q 374 754 414 768 q 322 685 335 740 q 310 478 310 629 q 318 282 310 340 q 354 203 326 224 q 446 182 382 182 l 513 185 l 513 379 l 418 379 m 293 1039 l 178 1222 l 178 1233 l 331 1233 l 404 1133 l 476 1233 l 628 1233 l 628 1222 l 511 1039 l 293 1039 z "},"Ĝ":{"ha":810,"x_min":58,"x_max":740,"o":"m 418 379 l 418 564 l 740 564 l 740 19 q 592 -3 678 6 q 438 -11 507 -11 q 198 29 278 -11 q 88 172 118 69 q 58 478 58 274 q 90 781 58 679 q 201 925 121 883 q 443 967 282 967 q 595 958 513 967 q 738 936 678 949 l 738 751 q 524 768 590 768 q 374 754 414 768 q 322 685 335 740 q 310 478 310 629 q 318 282 310 340 q 354 203 326 224 q 446 182 382 182 l 513 185 l 513 379 l 418 379 m 178 1039 l 178 1050 l 292 1233 l 510 1233 l 628 1050 l 628 1039 l 475 1039 l 401 1139 l 329 1039 l 178 1039 z "},"Ģ":{"ha":810,"x_min":58,"x_max":740,"o":"m 418 379 l 418 564 l 740 564 l 740 19 q 592 -3 678 6 q 438 -11 507 -11 q 198 29 278 -11 q 88 172 118 69 q 58 478 58 274 q 90 781 58 679 q 201 925 121 883 q 443 967 282 967 q 595 958 513 967 q 738 936 678 949 l 738 751 q 524 768 590 768 q 374 754 414 768 q 322 685 335 740 q 310 478 310 629 q 318 282 310 340 q 354 203 326 224 q 446 182 382 182 l 513 185 l 513 379 l 418 379 m 285 -312 q 340 -308 322 -312 q 365 -291 358 -303 q 371 -256 371 -279 l 371 -242 l 288 -242 l 288 -83 l 519 -83 l 519 -186 q 503 -320 519 -276 q 439 -383 488 -364 q 285 -401 390 -401 l 285 -312 z "},"Ġ":{"ha":810,"x_min":58,"x_max":740,"o":"m 418 379 l 418 564 l 740 564 l 740 19 q 592 -3 678 6 q 438 -11 507 -11 q 198 29 278 -11 q 88 172 118 69 q 58 478 58 274 q 90 781 58 679 q 201 925 121 883 q 443 967 282 967 q 595 958 513 967 q 738 936 678 949 l 738 751 q 524 768 590 768 q 374 754 414 768 q 322 685 335 740 q 310 478 310 629 q 318 282 310 340 q 354 203 326 224 q 446 182 382 182 l 513 185 l 513 379 l 418 379 m 308 1058 l 308 1215 l 497 1215 l 497 1058 l 308 1058 z "},"H":{"ha":857,"x_min":75,"x_max":782,"o":"m 528 0 l 528 372 l 329 372 l 329 0 l 75 0 l 75 956 l 329 956 l 329 588 l 528 588 l 528 956 l 782 956 l 782 0 l 528 0 z "},"Ħ":{"ha":857,"x_min":75,"x_max":782,"o":"m 528 956 l 782 956 l 782 0 l 528 0 l 528 317 l 329 317 l 329 0 l 75 0 l 75 956 l 329 956 l 329 832 l 528 832 l 528 956 m 329 532 l 528 532 l 528 657 l 329 657 l 329 532 z "},"Ĥ":{"ha":857,"x_min":75,"x_max":782,"o":"m 528 0 l 528 372 l 329 372 l 329 0 l 75 0 l 75 956 l 329 956 l 329 588 l 528 588 l 528 956 l 782 956 l 782 0 l 528 0 m 204 1039 l 204 1050 l 318 1233 l 536 1233 l 654 1050 l 654 1039 l 501 1039 l 428 1139 l 356 1039 l 204 1039 z "},"Ḥ":{"ha":857,"x_min":75,"x_max":782,"o":"m 528 0 l 528 372 l 329 372 l 329 0 l 75 0 l 75 956 l 329 956 l 329 588 l 528 588 l 528 956 l 782 956 l 782 0 l 528 0 m 306 -294 l 306 -86 l 553 -86 l 553 -294 l 306 -294 z "},"I":{"ha":404,"x_min":75,"x_max":329,"o":"m 75 0 l 75 956 l 329 956 l 329 0 l 75 0 z "},"Ĳ":{"ha":917,"x_min":75,"x_max":844,"o":"m 75 0 l 75 956 l 329 956 l 329 0 l 75 0 m 426 186 q 543 197 513 188 q 582 238 574 206 q 590 358 590 269 l 590 956 l 844 956 l 844 440 q 823 129 844 211 q 723 24 801 47 q 426 0 644 0 l 426 186 z "},"Í":{"ha":404,"x_min":75,"x_max":401,"o":"m 75 0 l 75 956 l 329 956 l 329 0 l 75 0 m 79 1040 l 79 1047 l 178 1244 l 401 1244 l 401 1238 l 250 1040 l 79 1040 z "},"Ĭ":{"ha":404,"x_min":0,"x_max":406,"o":"m 75 0 l 75 956 l 329 956 l 329 0 l 75 0 m 406 1233 q 390 1125 406 1168 q 331 1058 375 1082 q 201 1033 286 1033 q 73 1058 117 1033 q 15 1124 29 1082 q 0 1233 0 1167 l 129 1233 q 133 1190 129 1206 q 151 1166 136 1175 q 201 1157 167 1157 q 251 1166 236 1157 q 271 1190 267 1175 q 275 1233 275 1206 l 406 1233 z "},"Ǐ":{"ha":404,"x_min":-22,"x_max":428,"o":"m 75 0 l 75 956 l 329 956 l 329 0 l 75 0 m 93 1039 l -22 1222 l -22 1233 l 131 1233 l 204 1133 l 276 1233 l 428 1233 l 428 1222 l 311 1039 l 93 1039 z "},"Î":{"ha":404,"x_min":-22,"x_max":428,"o":"m 75 0 l 75 956 l 329 956 l 329 0 l 75 0 m -22 1040 l -22 1051 l 92 1235 l 310 1235 l 428 1051 l 428 1040 l 275 1040 l 201 1140 l 129 1040 l -22 1040 z "},"Ȉ":{"ha":404,"x_min":-97,"x_max":401,"o":"m 75 0 l 75 956 l 329 956 l 329 0 l 75 0 m 167 1049 l 25 1049 l -97 1210 l -97 1215 l 85 1215 l 167 1056 l 167 1049 m 401 1049 l 263 1049 l 139 1210 l 139 1215 l 321 1215 l 401 1056 l 401 1049 z "},"Ï":{"ha":404,"x_min":-29,"x_max":433,"o":"m 75 0 l 75 956 l 329 956 l 329 0 l 75 0 m -29 1081 l -29 1238 l 160 1238 l 160 1081 l -29 1081 m 243 1081 l 243 1238 l 433 1238 l 433 1081 l 243 1081 z "},"İ":{"ha":404,"x_min":75,"x_max":329,"o":"m 75 0 l 75 956 l 329 956 l 329 0 l 75 0 m 108 1058 l 108 1215 l 297 1215 l 297 1058 l 108 1058 z "},"Ị":{"ha":404,"x_min":75,"x_max":329,"o":"m 75 0 l 75 956 l 329 956 l 329 0 l 75 0 m 79 -294 l 79 -86 l 326 -86 l 326 -294 l 79 -294 z "},"Ì":{"ha":404,"x_min":7,"x_max":329,"o":"m 75 0 l 75 956 l 329 956 l 329 0 l 75 0 m 157 1042 l 7 1239 l 7 1246 l 231 1246 l 329 1049 l 329 1042 l 157 1042 z "},"Ỉ":{"ha":404,"x_min":19,"x_max":383,"o":"m 75 0 l 75 956 l 329 956 l 329 0 l 75 0 m 101 1022 q 114 1085 101 1067 q 164 1114 126 1103 l 183 1119 q 222 1136 213 1129 q 231 1158 231 1143 q 218 1184 231 1179 q 163 1189 206 1189 q 19 1182 86 1189 l 19 1294 q 104 1306 56 1301 q 193 1311 153 1311 q 296 1302 256 1311 q 360 1264 336 1293 q 383 1176 383 1235 q 364 1099 383 1122 q 294 1058 344 1076 l 275 1051 q 237 1033 244 1040 q 229 1007 229 1025 l 101 1007 l 101 1022 z "},"Ȋ":{"ha":404,"x_min":-1,"x_max":404,"o":"m 75 0 l 75 956 l 329 956 l 329 0 l 75 0 m -1 1040 q 14 1149 -1 1106 q 74 1216 29 1192 q 203 1240 118 1240 q 331 1216 288 1240 q 390 1149 375 1192 q 404 1040 404 1107 l 275 1040 q 272 1083 275 1068 q 253 1108 268 1099 q 203 1117 238 1117 q 153 1108 168 1117 q 133 1083 138 1099 q 129 1040 129 1068 l -1 1040 z "},"Ī":{"ha":404,"x_min":28,"x_max":376,"o":"m 75 0 l 75 956 l 329 956 l 329 0 l 75 0 m 28 1044 l 28 1233 l 376 1233 l 376 1044 l 28 1044 z "},"Į":{"ha":404,"x_min":65,"x_max":331,"o":"m 236 -272 q 104 -239 143 -272 q 65 -153 65 -206 q 87 -74 65 -114 q 146 0 108 -35 l 75 0 l 75 956 l 329 956 l 329 0 q 275 -49 300 -18 q 250 -108 250 -79 q 310 -156 250 -156 q 331 -154 322 -156 l 331 -267 q 236 -272 283 -272 z "},"Ĩ":{"ha":404,"x_min":-50,"x_max":453,"o":"m 75 0 l 75 956 l 329 956 l 329 0 l 75 0 m 453 1233 q 447 1118 453 1157 q 414 1057 440 1079 q 329 1035 388 1035 q 185 1058 276 1035 l 157 1064 q 99 1074 118 1074 q 75 1063 79 1074 q 71 1018 71 1051 l -50 1018 q -44 1133 -50 1094 q -10 1194 -37 1172 q 75 1217 17 1217 q 147 1210 107 1217 q 219 1194 186 1203 q 304 1179 283 1179 q 329 1190 325 1179 q 333 1233 333 1200 l 453 1233 z "},"J":{"ha":513,"x_min":22,"x_max":440,"o":"m 22 186 q 139 197 108 188 q 178 238 169 206 q 186 358 186 269 l 186 956 l 440 956 l 440 440 q 419 129 440 211 q 319 24 397 47 q 22 0 240 0 l 22 186 z "},"Ĵ":{"ha":513,"x_min":22,"x_max":539,"o":"m 22 186 q 139 197 108 188 q 178 238 169 206 q 186 358 186 269 l 186 956 l 440 956 l 440 440 q 419 129 440 211 q 319 24 397 47 q 22 0 240 0 l 22 186 m 89 1039 l 89 1050 l 203 1233 l 421 1233 l 539 1050 l 539 1039 l 386 1039 l 313 1139 l 240 1039 l 89 1039 z "},"K":{"ha":835,"x_min":75,"x_max":829,"o":"m 553 0 l 365 386 l 329 386 l 329 0 l 75 0 l 75 956 l 329 956 l 329 585 l 365 585 l 557 956 l 826 956 l 571 503 l 829 0 l 553 0 z "},"Ķ":{"ha":835,"x_min":75,"x_max":829,"o":"m 553 0 l 365 386 l 329 386 l 329 0 l 75 0 l 75 956 l 329 956 l 329 585 l 365 585 l 557 956 l 826 956 l 571 503 l 829 0 l 553 0 m 300 -312 q 356 -308 338 -312 q 380 -291 374 -303 q 386 -256 386 -279 l 386 -242 l 303 -242 l 303 -83 l 535 -83 l 535 -186 q 519 -320 535 -276 q 454 -383 503 -364 q 300 -401 406 -401 l 300 -312 z "},"L":{"ha":644,"x_min":75,"x_max":621,"o":"m 75 0 l 75 956 l 329 956 l 329 207 l 621 207 l 621 0 l 75 0 z "},"Ǉ":{"ha":1157,"x_min":75,"x_max":1085,"o":"m 75 0 l 75 956 l 329 956 l 329 207 l 621 207 l 621 0 l 75 0 m 667 186 q 783 197 753 188 q 822 238 814 206 q 831 358 831 269 l 831 956 l 1085 956 l 1085 440 q 1063 129 1085 211 q 963 24 1042 47 q 667 0 885 0 l 667 186 z "},"Ĺ":{"ha":644,"x_min":75,"x_max":621,"o":"m 75 0 l 75 956 l 329 956 l 329 207 l 621 207 l 621 0 l 75 0 m 136 1029 l 136 1036 l 235 1233 l 458 1233 l 458 1226 l 307 1029 l 136 1029 z "},"Ľ":{"ha":644,"x_min":75,"x_max":711,"o":"m 75 0 l 75 956 l 329 956 l 329 207 l 621 207 l 621 0 l 75 0 m 485 635 l 503 929 l 503 1000 l 711 1000 l 711 929 l 646 635 l 485 635 z "},"Ļ":{"ha":644,"x_min":75,"x_max":621,"o":"m 75 0 l 75 956 l 329 956 l 329 207 l 621 207 l 621 0 l 75 0 m 213 -312 q 268 -308 250 -312 q 292 -291 286 -303 q 299 -256 299 -279 l 299 -242 l 215 -242 l 215 -83 l 447 -83 l 447 -186 q 431 -320 447 -276 q 367 -383 415 -364 q 213 -401 318 -401 l 213 -312 z "},"Ŀ":{"ha":672,"x_min":75,"x_max":665,"o":"m 75 0 l 75 956 l 329 956 l 329 207 l 621 207 l 621 0 l 75 0 m 418 421 l 418 629 l 665 629 l 665 421 l 418 421 z "},"ǈ":{"ha":1013,"x_min":75,"x_max":947,"o":"m 75 0 l 75 956 l 329 956 l 329 207 l 621 207 l 621 0 l 75 0 m 708 844 l 708 1032 l 947 1032 l 947 844 l 708 844 m 615 -112 q 679 -106 660 -112 q 704 -84 699 -99 q 710 -40 710 -69 l 710 708 l 947 708 l 947 26 q 922 -176 947 -115 q 831 -256 896 -237 q 615 -275 765 -275 l 615 -112 z "},"Ł":{"ha":642,"x_min":7,"x_max":621,"o":"m 329 207 l 621 207 l 621 0 l 75 0 l 75 354 l 7 329 l 7 503 l 75 528 l 75 956 l 329 956 l 329 622 l 493 682 l 493 508 l 329 449 l 329 207 z "},"M":{"ha":1126,"x_min":75,"x_max":1051,"o":"m 808 0 l 808 624 l 796 624 l 656 0 l 464 0 l 324 624 l 311 624 l 311 0 l 75 0 l 75 956 l 435 956 l 560 396 l 571 396 l 693 956 l 1051 956 l 1051 0 l 808 0 z "},"N":{"ha":864,"x_min":75,"x_max":790,"o":"m 557 0 l 324 493 l 317 493 l 317 0 l 75 0 l 75 956 l 329 956 l 539 518 l 547 518 l 547 956 l 790 956 l 790 0 l 557 0 z "},"Ǌ":{"ha":1376,"x_min":75,"x_max":1304,"o":"m 557 0 l 324 493 l 317 493 l 317 0 l 75 0 l 75 956 l 329 956 l 539 518 l 547 518 l 547 956 l 790 956 l 790 0 l 557 0 m 886 186 q 1003 197 972 188 q 1042 238 1033 206 q 1050 358 1050 269 l 1050 956 l 1304 956 l 1304 440 q 1283 129 1304 211 q 1183 24 1261 47 q 886 0 1104 0 l 886 186 z "},"Ń":{"ha":864,"x_min":75,"x_max":790,"o":"m 557 0 l 324 493 l 317 493 l 317 0 l 75 0 l 75 956 l 329 956 l 539 518 l 547 518 l 547 956 l 790 956 l 790 0 l 557 0 m 339 1029 l 339 1036 l 438 1233 l 661 1233 l 661 1226 l 510 1029 l 339 1029 z "},"Ň":{"ha":864,"x_min":75,"x_max":790,"o":"m 557 0 l 324 493 l 317 493 l 317 0 l 75 0 l 75 956 l 329 956 l 539 518 l 547 518 l 547 956 l 790 956 l 790 0 l 557 0 m 324 1039 l 208 1222 l 208 1233 l 361 1233 l 435 1133 l 507 1233 l 658 1233 l 658 1222 l 542 1039 l 324 1039 z "},"Ņ":{"ha":864,"x_min":75,"x_max":790,"o":"m 557 0 l 324 493 l 317 493 l 317 0 l 75 0 l 75 956 l 329 956 l 539 518 l 547 518 l 547 956 l 790 956 l 790 0 l 557 0 m 315 -312 q 371 -308 353 -312 q 395 -291 389 -303 q 401 -256 401 -279 l 401 -242 l 318 -242 l 318 -83 l 550 -83 l 550 -186 q 534 -320 550 -276 q 469 -383 518 -364 q 315 -401 421 -401 l 315 -312 z "},"Ṅ":{"ha":864,"x_min":75,"x_max":790,"o":"m 557 0 l 324 493 l 317 493 l 317 0 l 75 0 l 75 956 l 329 956 l 539 518 l 547 518 l 547 956 l 790 956 l 790 0 l 557 0 m 339 1058 l 339 1215 l 528 1215 l 528 1058 l 339 1058 z "},"Ŋ":{"ha":864,"x_min":75,"x_max":790,"o":"m 790 956 l 790 17 q 763 -179 789 -119 q 669 -257 736 -239 q 453 -275 603 -275 l 453 -112 q 517 -106 497 -112 q 542 -84 536 -99 q 547 -40 547 -69 l 547 25 l 324 493 l 317 493 l 317 0 l 75 0 l 75 956 l 329 956 l 539 518 l 547 518 l 547 956 l 790 956 z "},"Ɲ":{"ha":864,"x_min":-19,"x_max":790,"o":"m 790 956 l 790 0 l 557 0 l 324 493 l 317 493 l 317 26 q 291 -176 317 -115 q 199 -256 265 -237 q -19 -275 132 -275 l -19 -112 q 44 -106 25 -112 q 69 -84 64 -99 q 75 -40 75 -69 l 75 956 l 329 956 l 539 518 l 547 518 l 547 956 l 790 956 z "},"ǋ":{"ha":1232,"x_min":75,"x_max":1167,"o":"m 557 0 l 324 493 l 317 493 l 317 0 l 75 0 l 75 956 l 329 956 l 539 518 l 547 518 l 547 956 l 790 956 l 790 0 l 557 0 m 928 844 l 928 1032 l 1167 1032 l 1167 844 l 928 844 m 835 -112 q 899 -106 879 -112 q 924 -84 918 -99 q 929 -40 929 -69 l 929 708 l 1167 708 l 1167 26 q 1141 -176 1167 -115 q 1050 -256 1115 -237 q 835 -275 985 -275 l 835 -112 z "},"Ñ":{"ha":864,"x_min":75,"x_max":790,"o":"m 557 0 l 324 493 l 317 493 l 317 0 l 75 0 l 75 956 l 329 956 l 539 518 l 547 518 l 547 956 l 790 956 l 790 0 l 557 0 m 683 1258 q 677 1143 683 1182 q 644 1082 671 1104 q 560 1060 618 1060 q 415 1083 507 1060 l 388 1089 q 329 1099 349 1099 q 306 1088 310 1099 q 301 1043 301 1078 l 181 1043 q 187 1158 181 1119 q 220 1219 193 1197 q 306 1242 247 1242 q 377 1235 338 1242 q 450 1219 417 1228 q 535 1204 514 1204 q 560 1215 556 1204 q 564 1258 564 1225 l 683 1258 z "},"O":{"ha":847,"x_min":58,"x_max":789,"o":"m 424 -11 q 170 31 246 -11 q 76 167 94 74 q 58 478 58 260 q 76 789 58 696 q 170 924 94 882 q 424 967 246 967 q 677 924 601 967 q 771 789 753 882 q 789 478 789 696 q 771 167 789 260 q 677 31 753 74 q 424 -11 601 -11 m 424 188 q 502 201 482 188 q 528 269 522 215 q 533 478 533 322 q 528 687 533 633 q 502 754 522 740 q 424 768 482 768 q 345 754 365 768 q 319 687 325 740 q 314 478 314 633 q 319 269 314 322 q 345 201 325 215 q 424 188 365 188 z "},"Ó":{"ha":844,"x_min":58,"x_max":789,"o":"m 424 -11 q 170 31 246 -11 q 76 167 94 74 q 58 478 58 260 q 76 789 58 696 q 170 924 94 882 q 424 967 246 967 q 677 924 601 967 q 771 789 753 882 q 789 478 789 696 q 771 167 789 260 q 677 31 753 74 q 424 -11 601 -11 m 424 188 q 502 201 482 188 q 528 269 522 215 q 533 478 533 322 q 528 687 533 633 q 502 754 522 740 q 424 768 482 768 q 345 754 365 768 q 319 687 325 740 q 314 478 314 633 q 319 269 314 322 q 345 201 325 215 q 424 188 365 188 m 324 1042 l 324 1049 l 422 1246 l 646 1246 l 646 1239 l 494 1042 l 324 1042 z "},"Ŏ":{"ha":847,"x_min":58,"x_max":789,"o":"m 424 -11 q 170 31 246 -11 q 76 167 94 74 q 58 478 58 260 q 76 789 58 696 q 170 924 94 882 q 424 967 246 967 q 677 924 601 967 q 771 789 753 882 q 789 478 789 696 q 771 167 789 260 q 677 31 753 74 q 424 -11 601 -11 m 424 188 q 502 201 482 188 q 528 269 522 215 q 533 478 533 322 q 528 687 533 633 q 502 754 522 740 q 424 768 482 768 q 345 754 365 768 q 319 687 325 740 q 314 478 314 633 q 319 269 314 322 q 345 201 325 215 q 424 188 365 188 m 626 1233 q 611 1125 626 1168 q 551 1058 596 1082 q 422 1033 507 1033 q 294 1058 338 1033 q 235 1124 250 1082 q 221 1233 221 1167 l 350 1233 q 353 1190 350 1206 q 372 1166 357 1175 q 422 1157 388 1157 q 472 1166 457 1157 q 492 1190 488 1175 q 496 1233 496 1206 l 626 1233 z "},"Ǒ":{"ha":847,"x_min":58,"x_max":789,"o":"m 424 -11 q 170 31 246 -11 q 76 167 94 74 q 58 478 58 260 q 76 789 58 696 q 170 924 94 882 q 424 967 246 967 q 677 924 601 967 q 771 789 753 882 q 789 478 789 696 q 771 167 789 260 q 677 31 753 74 q 424 -11 601 -11 m 424 188 q 502 201 482 188 q 528 269 522 215 q 533 478 533 322 q 528 687 533 633 q 502 754 522 740 q 424 768 482 768 q 345 754 365 768 q 319 687 325 740 q 314 478 314 633 q 319 269 314 322 q 345 201 325 215 q 424 188 365 188 m 314 1039 l 199 1222 l 199 1233 l 351 1233 l 425 1133 l 497 1233 l 649 1233 l 649 1222 l 532 1039 l 314 1039 z "},"Ô":{"ha":844,"x_min":58,"x_max":789,"o":"m 424 -11 q 170 31 246 -11 q 76 167 94 74 q 58 478 58 260 q 76 789 58 696 q 170 924 94 882 q 424 967 246 967 q 677 924 601 967 q 771 789 753 882 q 789 478 789 696 q 771 167 789 260 q 677 31 753 74 q 424 -11 601 -11 m 424 188 q 502 201 482 188 q 528 269 522 215 q 533 478 533 322 q 528 687 533 633 q 502 754 522 740 q 424 768 482 768 q 345 754 365 768 q 319 687 325 740 q 314 478 314 633 q 319 269 314 322 q 345 201 325 215 q 424 188 365 188 m 197 1042 l 197 1053 l 311 1236 l 529 1236 l 647 1053 l 647 1042 l 494 1042 l 421 1142 l 349 1042 l 197 1042 z "},"Ố":{"ha":847,"x_min":58,"x_max":789,"o":"m 424 -11 q 170 31 246 -11 q 76 167 94 74 q 58 478 58 260 q 76 789 58 696 q 170 924 94 882 q 424 967 246 967 q 677 924 601 967 q 771 789 753 882 q 789 478 789 696 q 771 167 789 260 q 677 31 753 74 q 424 -11 601 -11 m 424 188 q 502 201 482 188 q 528 269 522 215 q 533 478 533 322 q 528 687 533 633 q 502 754 522 740 q 424 768 482 768 q 345 754 365 768 q 319 687 325 740 q 314 478 314 633 q 319 269 314 322 q 345 201 325 215 q 424 188 365 188 m 199 1024 l 199 1035 l 313 1218 l 531 1218 l 649 1035 l 649 1024 l 496 1024 l 422 1124 l 350 1024 l 199 1024 m 440 1254 l 440 1261 l 539 1458 l 763 1458 l 763 1451 l 611 1254 l 440 1254 z "},"Ộ":{"ha":847,"x_min":58,"x_max":789,"o":"m 424 -11 q 170 31 246 -11 q 76 167 94 74 q 58 478 58 260 q 76 789 58 696 q 170 924 94 882 q 424 967 246 967 q 677 924 601 967 q 771 789 753 882 q 789 478 789 696 q 771 167 789 260 q 677 31 753 74 q 424 -11 601 -11 m 424 188 q 502 201 482 188 q 528 269 522 215 q 533 478 533 322 q 528 687 533 633 q 502 754 522 740 q 424 768 482 768 q 345 754 365 768 q 319 687 325 740 q 314 478 314 633 q 319 269 314 322 q 345 201 325 215 q 424 188 365 188 m 300 -294 l 300 -86 l 547 -86 l 547 -294 l 300 -294 m 199 1039 l 199 1050 l 313 1233 l 531 1233 l 649 1050 l 649 1039 l 496 1039 l 422 1139 l 350 1039 l 199 1039 z "},"Ồ":{"ha":847,"x_min":58,"x_max":789,"o":"m 424 -11 q 170 31 246 -11 q 76 167 94 74 q 58 478 58 260 q 76 789 58 696 q 170 924 94 882 q 424 967 246 967 q 677 924 601 967 q 771 789 753 882 q 789 478 789 696 q 771 167 789 260 q 677 31 753 74 q 424 -11 601 -11 m 424 188 q 502 201 482 188 q 528 269 522 215 q 533 478 533 322 q 528 687 533 633 q 502 754 522 740 q 424 768 482 768 q 345 754 365 768 q 319 687 325 740 q 314 478 314 633 q 319 269 314 322 q 345 201 325 215 q 424 188 365 188 m 186 1019 l 186 1031 l 300 1214 l 518 1214 l 636 1031 l 636 1019 l 483 1019 l 410 1119 l 338 1019 l 186 1019 m 488 1250 l 338 1447 l 338 1454 l 561 1454 l 660 1257 l 660 1250 l 488 1250 z "},"Ổ":{"ha":847,"x_min":58,"x_max":789,"o":"m 424 -11 q 170 31 246 -11 q 76 167 94 74 q 58 478 58 260 q 76 789 58 696 q 170 924 94 882 q 424 967 246 967 q 677 924 601 967 q 771 789 753 882 q 789 478 789 696 q 771 167 789 260 q 677 31 753 74 q 424 -11 601 -11 m 424 188 q 502 201 482 188 q 528 269 522 215 q 533 478 533 322 q 528 687 533 633 q 502 754 522 740 q 424 768 482 768 q 345 754 365 768 q 319 687 325 740 q 314 478 314 633 q 319 269 314 322 q 345 201 325 215 q 424 188 365 188 m 199 1019 l 199 1031 l 313 1214 l 531 1214 l 649 1031 l 649 1019 l 496 1019 l 422 1119 l 350 1019 l 199 1019 m 489 1257 q 501 1319 489 1301 q 551 1347 514 1336 l 571 1354 q 609 1371 600 1364 q 618 1393 618 1378 q 605 1418 618 1413 q 550 1424 592 1424 q 407 1417 474 1424 l 407 1529 q 492 1541 443 1536 q 581 1546 540 1546 q 683 1537 643 1546 q 747 1499 724 1528 q 771 1411 771 1469 q 751 1333 771 1357 q 682 1293 732 1310 l 663 1285 q 624 1267 632 1274 q 617 1242 617 1260 l 489 1242 l 489 1257 z "},"Ỗ":{"ha":847,"x_min":58,"x_max":789,"o":"m 424 -11 q 170 31 246 -11 q 76 167 94 74 q 58 478 58 260 q 76 789 58 696 q 170 924 94 882 q 424 967 246 967 q 677 924 601 967 q 771 789 753 882 q 789 478 789 696 q 771 167 789 260 q 677 31 753 74 q 424 -11 601 -11 m 424 188 q 502 201 482 188 q 528 269 522 215 q 533 478 533 322 q 528 687 533 633 q 502 754 522 740 q 424 768 482 768 q 345 754 365 768 q 319 687 325 740 q 314 478 314 633 q 319 269 314 322 q 345 201 325 215 q 424 188 365 188 m 196 1019 l 196 1031 l 310 1214 l 528 1214 l 646 1031 l 646 1019 l 493 1019 l 419 1119 l 347 1019 l 196 1019 m 674 1454 q 667 1339 674 1378 q 635 1278 661 1300 q 550 1256 608 1256 q 406 1279 497 1256 l 378 1285 q 319 1294 339 1294 q 296 1283 300 1294 q 292 1239 292 1272 l 171 1239 q 177 1354 171 1315 q 210 1415 183 1393 q 296 1438 238 1438 q 367 1431 328 1438 q 440 1415 407 1424 q 525 1400 504 1400 q 550 1410 546 1400 q 554 1454 554 1421 l 674 1454 z "},"Ȍ":{"ha":847,"x_min":58,"x_max":789,"o":"m 424 -11 q 170 31 246 -11 q 76 167 94 74 q 58 478 58 260 q 76 789 58 696 q 170 924 94 882 q 424 967 246 967 q 677 924 601 967 q 771 789 753 882 q 789 478 789 696 q 771 167 789 260 q 677 31 753 74 q 424 -11 601 -11 m 424 188 q 502 201 482 188 q 528 269 522 215 q 533 478 533 322 q 528 687 533 633 q 502 754 522 740 q 424 768 482 768 q 345 754 365 768 q 319 687 325 740 q 314 478 314 633 q 319 269 314 322 q 345 201 325 215 q 424 188 365 188 m 388 1049 l 246 1049 l 124 1210 l 124 1215 l 306 1215 l 388 1056 l 388 1049 m 622 1049 l 483 1049 l 360 1210 l 360 1215 l 542 1215 l 622 1056 l 622 1049 z "},"Ö":{"ha":844,"x_min":58,"x_max":789,"o":"m 424 -11 q 170 31 246 -11 q 76 167 94 74 q 58 478 58 260 q 76 789 58 696 q 170 924 94 882 q 424 967 246 967 q 677 924 601 967 q 771 789 753 882 q 789 478 789 696 q 771 167 789 260 q 677 31 753 74 q 424 -11 601 -11 m 424 188 q 502 201 482 188 q 528 269 522 215 q 533 478 533 322 q 528 687 533 633 q 502 754 522 740 q 424 768 482 768 q 345 754 365 768 q 319 687 325 740 q 314 478 314 633 q 319 269 314 322 q 345 201 325 215 q 424 188 365 188 m 192 1081 l 192 1238 l 381 1238 l 381 1081 l 192 1081 m 464 1081 l 464 1238 l 654 1238 l 654 1081 l 464 1081 z "},"Ọ":{"ha":847,"x_min":58,"x_max":789,"o":"m 424 -11 q 170 31 246 -11 q 76 167 94 74 q 58 478 58 260 q 76 789 58 696 q 170 924 94 882 q 424 967 246 967 q 677 924 601 967 q 771 789 753 882 q 789 478 789 696 q 771 167 789 260 q 677 31 753 74 q 424 -11 601 -11 m 424 188 q 502 201 482 188 q 528 269 522 215 q 533 478 533 322 q 528 687 533 633 q 502 754 522 740 q 424 768 482 768 q 345 754 365 768 q 319 687 325 740 q 314 478 314 633 q 319 269 314 322 q 345 201 325 215 q 424 188 365 188 m 300 -294 l 300 -86 l 547 -86 l 547 -294 l 300 -294 z "},"Ò":{"ha":844,"x_min":58,"x_max":789,"o":"m 424 -11 q 170 31 246 -11 q 76 167 94 74 q 58 478 58 260 q 76 789 58 696 q 170 924 94 882 q 424 967 246 967 q 677 924 601 967 q 771 789 753 882 q 789 478 789 696 q 771 167 789 260 q 677 31 753 74 q 424 -11 601 -11 m 424 188 q 502 201 482 188 q 528 269 522 215 q 533 478 533 322 q 528 687 533 633 q 502 754 522 740 q 424 768 482 768 q 345 754 365 768 q 319 687 325 740 q 314 478 314 633 q 319 269 314 322 q 345 201 325 215 q 424 188 365 188 m 349 1042 l 199 1239 l 199 1246 l 422 1246 l 521 1049 l 521 1042 l 349 1042 z "},"Ỏ":{"ha":847,"x_min":58,"x_max":789,"o":"m 424 -11 q 170 31 246 -11 q 76 167 94 74 q 58 478 58 260 q 76 789 58 696 q 170 924 94 882 q 424 967 246 967 q 677 924 601 967 q 771 789 753 882 q 789 478 789 696 q 771 167 789 260 q 677 31 753 74 q 424 -11 601 -11 m 424 188 q 502 201 482 188 q 528 269 522 215 q 533 478 533 322 q 528 687 533 633 q 502 754 522 740 q 424 768 482 768 q 345 754 365 768 q 319 687 325 740 q 314 478 314 633 q 319 269 314 322 q 345 201 325 215 q 424 188 365 188 m 322 1022 q 335 1085 322 1067 q 385 1114 347 1103 l 404 1119 q 442 1136 433 1129 q 451 1158 451 1143 q 439 1184 451 1179 q 383 1189 426 1189 q 240 1182 307 1189 l 240 1294 q 325 1306 276 1301 q 414 1311 374 1311 q 517 1302 476 1311 q 581 1264 557 1293 q 604 1176 604 1235 q 585 1099 604 1122 q 515 1058 565 1076 l 496 1051 q 458 1033 465 1040 q 450 1007 450 1025 l 322 1007 l 322 1022 z "},"Ơ":{"ha":847,"x_min":58,"x_max":871,"o":"m 871 1081 l 871 1054 q 861 955 871 990 q 822 900 851 919 q 735 874 793 881 q 780 738 771 822 q 789 478 789 653 q 771 167 789 260 q 677 31 753 74 q 424 -11 601 -11 q 170 31 246 -11 q 76 167 94 74 q 58 478 58 260 q 76 789 58 696 q 170 924 94 882 q 424 967 246 967 q 581 956 524 967 l 631 956 q 690 963 671 956 q 715 987 708 971 q 721 1036 721 1003 l 721 1081 l 871 1081 m 424 188 q 502 201 482 188 q 528 269 522 215 q 533 478 533 322 q 528 687 533 633 q 502 754 522 740 q 424 768 482 768 q 345 754 365 768 q 319 687 325 740 q 314 478 314 633 q 319 269 314 322 q 345 201 325 215 q 424 188 365 188 z "},"Ớ":{"ha":847,"x_min":58,"x_max":871,"o":"m 871 1081 l 871 1054 q 861 955 871 990 q 822 900 851 919 q 735 874 793 881 q 780 738 771 822 q 789 478 789 653 q 771 167 789 260 q 677 31 753 74 q 424 -11 601 -11 q 170 31 246 -11 q 76 167 94 74 q 58 478 58 260 q 76 789 58 696 q 170 924 94 882 q 424 967 246 967 q 581 956 524 967 l 631 956 q 690 963 671 956 q 715 987 708 971 q 721 1036 721 1003 l 721 1081 l 871 1081 m 424 188 q 502 201 482 188 q 528 269 522 215 q 533 478 533 322 q 528 687 533 633 q 502 754 522 740 q 424 768 482 768 q 345 754 365 768 q 319 687 325 740 q 314 478 314 633 q 319 269 314 322 q 345 201 325 215 q 424 188 365 188 m 329 1029 l 329 1036 l 428 1233 l 651 1233 l 651 1226 l 500 1029 l 329 1029 z "},"Ợ":{"ha":847,"x_min":58,"x_max":871,"o":"m 871 1081 l 871 1054 q 861 955 871 990 q 822 900 851 919 q 735 874 793 881 q 780 738 771 822 q 789 478 789 653 q 771 167 789 260 q 677 31 753 74 q 424 -11 601 -11 q 170 31 246 -11 q 76 167 94 74 q 58 478 58 260 q 76 789 58 696 q 170 924 94 882 q 424 967 246 967 q 581 956 524 967 l 631 956 q 690 963 671 956 q 715 987 708 971 q 721 1036 721 1003 l 721 1081 l 871 1081 m 424 188 q 502 201 482 188 q 528 269 522 215 q 533 478 533 322 q 528 687 533 633 q 502 754 522 740 q 424 768 482 768 q 345 754 365 768 q 319 687 325 740 q 314 478 314 633 q 319 269 314 322 q 345 201 325 215 q 424 188 365 188 m 300 -294 l 300 -86 l 547 -86 l 547 -294 l 300 -294 z "},"Ờ":{"ha":847,"x_min":58,"x_max":871,"o":"m 871 1081 l 871 1054 q 861 955 871 990 q 822 900 851 919 q 735 874 793 881 q 780 738 771 822 q 789 478 789 653 q 771 167 789 260 q 677 31 753 74 q 424 -11 601 -11 q 170 31 246 -11 q 76 167 94 74 q 58 478 58 260 q 76 789 58 696 q 170 924 94 882 q 424 967 246 967 q 581 956 524 967 l 631 956 q 690 963 671 956 q 715 987 708 971 q 721 1036 721 1003 l 721 1081 l 871 1081 m 424 188 q 502 201 482 188 q 528 269 522 215 q 533 478 533 322 q 528 687 533 633 q 502 754 522 740 q 424 768 482 768 q 345 754 365 768 q 319 687 325 740 q 314 478 314 633 q 319 269 314 322 q 345 201 325 215 q 424 188 365 188 m 349 1029 l 199 1226 l 199 1233 l 422 1233 l 521 1036 l 521 1029 l 349 1029 z "},"Ở":{"ha":847,"x_min":58,"x_max":871,"o":"m 871 1081 l 871 1054 q 861 955 871 990 q 822 900 851 919 q 735 874 793 881 q 780 738 771 822 q 789 478 789 653 q 771 167 789 260 q 677 31 753 74 q 424 -11 601 -11 q 170 31 246 -11 q 76 167 94 74 q 58 478 58 260 q 76 789 58 696 q 170 924 94 882 q 424 967 246 967 q 581 956 524 967 l 631 956 q 690 963 671 956 q 715 987 708 971 q 721 1036 721 1003 l 721 1081 l 871 1081 m 424 188 q 502 201 482 188 q 528 269 522 215 q 533 478 533 322 q 528 687 533 633 q 502 754 522 740 q 424 768 482 768 q 345 754 365 768 q 319 687 325 740 q 314 478 314 633 q 319 269 314 322 q 345 201 325 215 q 424 188 365 188 m 322 1022 q 335 1085 322 1067 q 385 1114 347 1103 l 404 1119 q 442 1136 433 1129 q 451 1158 451 1143 q 439 1184 451 1179 q 383 1189 426 1189 q 240 1182 307 1189 l 240 1294 q 325 1306 276 1301 q 414 1311 374 1311 q 517 1302 476 1311 q 581 1264 557 1293 q 604 1176 604 1235 q 585 1099 604 1122 q 515 1058 565 1076 l 496 1051 q 458 1033 465 1040 q 450 1007 450 1025 l 322 1007 l 322 1022 z "},"Ỡ":{"ha":847,"x_min":58,"x_max":871,"o":"m 871 1081 l 871 1054 q 861 955 871 990 q 822 900 851 919 q 735 874 793 881 q 780 738 771 822 q 789 478 789 653 q 771 167 789 260 q 677 31 753 74 q 424 -11 601 -11 q 170 31 246 -11 q 76 167 94 74 q 58 478 58 260 q 76 789 58 696 q 170 924 94 882 q 424 967 246 967 q 581 956 524 967 l 631 956 q 690 963 671 956 q 715 987 708 971 q 721 1036 721 1003 l 721 1081 l 871 1081 m 424 188 q 502 201 482 188 q 528 269 522 215 q 533 478 533 322 q 528 687 533 633 q 502 754 522 740 q 424 768 482 768 q 345 754 365 768 q 319 687 325 740 q 314 478 314 633 q 319 269 314 322 q 345 201 325 215 q 424 188 365 188 m 674 1233 q 667 1118 674 1157 q 635 1057 661 1079 q 550 1035 608 1035 q 406 1058 497 1035 l 378 1064 q 319 1074 339 1074 q 296 1063 300 1074 q 292 1018 292 1051 l 171 1018 q 177 1133 171 1094 q 210 1194 183 1172 q 296 1217 238 1217 q 367 1210 328 1217 q 440 1194 407 1203 q 525 1179 504 1179 q 550 1190 546 1179 q 554 1233 554 1200 l 674 1233 z "},"Ő":{"ha":847,"x_min":58,"x_max":789,"o":"m 424 -11 q 170 31 246 -11 q 76 167 94 74 q 58 478 58 260 q 76 789 58 696 q 170 924 94 882 q 424 967 246 967 q 677 924 601 967 q 771 789 753 882 q 789 478 789 696 q 771 167 789 260 q 677 31 753 74 q 424 -11 601 -11 m 424 188 q 502 201 482 188 q 528 269 522 215 q 533 478 533 322 q 528 687 533 633 q 502 754 522 740 q 424 768 482 768 q 345 754 365 768 q 319 687 325 740 q 314 478 314 633 q 319 269 314 322 q 345 201 325 215 q 424 188 365 188 m 239 1049 l 239 1056 l 319 1215 l 501 1215 l 501 1210 l 378 1049 l 239 1049 m 474 1049 l 474 1056 l 556 1215 l 738 1215 l 738 1210 l 615 1049 l 474 1049 z "},"Ȏ":{"ha":847,"x_min":58,"x_max":789,"o":"m 424 -11 q 170 31 246 -11 q 76 167 94 74 q 58 478 58 260 q 76 789 58 696 q 170 924 94 882 q 424 967 246 967 q 677 924 601 967 q 771 789 753 882 q 789 478 789 696 q 771 167 789 260 q 677 31 753 74 q 424 -11 601 -11 m 424 188 q 502 201 482 188 q 528 269 522 215 q 533 478 533 322 q 528 687 533 633 q 502 754 522 740 q 424 768 482 768 q 345 754 365 768 q 319 687 325 740 q 314 478 314 633 q 319 269 314 322 q 345 201 325 215 q 424 188 365 188 m 219 1040 q 235 1149 219 1106 q 294 1216 250 1192 q 424 1240 339 1240 q 552 1216 508 1240 q 610 1149 596 1192 q 625 1040 625 1107 l 496 1040 q 492 1083 496 1068 q 474 1108 489 1099 q 424 1117 458 1117 q 374 1108 389 1117 q 354 1083 358 1099 q 350 1040 350 1068 l 219 1040 z "},"Ō":{"ha":847,"x_min":58,"x_max":789,"o":"m 424 -11 q 170 31 246 -11 q 76 167 94 74 q 58 478 58 260 q 76 789 58 696 q 170 924 94 882 q 424 967 246 967 q 677 924 601 967 q 771 789 753 882 q 789 478 789 696 q 771 167 789 260 q 677 31 753 74 q 424 -11 601 -11 m 424 188 q 502 201 482 188 q 528 269 522 215 q 533 478 533 322 q 528 687 533 633 q 502 754 522 740 q 424 768 482 768 q 345 754 365 768 q 319 687 325 740 q 314 478 314 633 q 319 269 314 322 q 345 201 325 215 q 424 188 365 188 m 249 1044 l 249 1233 l 597 1233 l 597 1044 l 249 1044 z "},"Ǫ":{"ha":844,"x_min":58,"x_max":786,"o":"m 564 -272 q 431 -239 471 -272 q 392 -153 392 -206 q 453 -11 392 -83 l 422 -11 q 169 31 244 -11 q 76 166 94 74 q 58 478 58 258 q 76 790 58 697 q 169 924 94 882 q 422 967 244 967 q 675 924 600 967 q 768 789 750 882 q 786 478 786 696 q 781 250 786 328 q 751 117 775 172 q 676 33 728 63 q 603 -31 629 7 q 576 -110 576 -68 q 636 -156 576 -156 q 657 -154 647 -156 l 657 -267 q 564 -272 601 -272 m 422 186 q 501 200 481 186 q 526 268 521 214 q 532 478 532 322 q 526 688 532 633 q 501 756 521 742 q 422 769 481 769 q 344 756 364 769 q 318 688 324 742 q 313 478 313 635 q 318 267 313 321 q 344 200 324 214 q 422 186 364 186 z "},"Ø":{"ha":844,"x_min":58,"x_max":789,"o":"m 719 892 q 777 754 765 843 q 789 478 789 665 q 771 167 789 260 q 677 31 753 74 q 424 -11 601 -11 q 290 -4 353 -11 l 256 -76 l 58 -76 l 126 65 q 80 153 94 99 q 62 278 65 207 q 58 478 58 349 q 76 789 58 696 q 170 924 94 882 q 424 967 246 967 q 553 960 493 967 l 589 1032 l 786 1032 l 719 892 m 424 188 q 502 201 482 188 q 528 269 522 215 q 533 478 533 322 q 528 687 533 633 q 502 754 522 740 q 424 768 482 768 q 345 754 365 768 q 319 687 325 740 q 314 478 314 633 q 319 269 314 322 q 345 201 325 215 q 424 188 365 188 z "},"Ǿ":{"ha":844,"x_min":58,"x_max":789,"o":"m 719 892 q 777 754 765 843 q 789 478 789 665 q 771 167 789 260 q 677 31 753 74 q 424 -11 601 -11 q 290 -4 353 -11 l 256 -76 l 58 -76 l 126 65 q 80 153 94 99 q 62 278 65 207 q 58 478 58 349 q 76 789 58 696 q 170 924 94 882 q 424 967 246 967 q 553 960 493 967 l 589 1032 l 786 1032 l 719 892 m 424 188 q 502 201 482 188 q 528 269 522 215 q 533 478 533 322 q 528 687 533 633 q 502 754 522 740 q 424 768 482 768 q 345 754 365 768 q 319 687 325 740 q 314 478 314 633 q 319 269 314 322 q 345 201 325 215 q 424 188 365 188 m 318 1029 l 318 1036 l 417 1233 l 640 1233 l 640 1226 l 489 1029 l 318 1029 z "},"Õ":{"ha":844,"x_min":58,"x_max":789,"o":"m 424 -11 q 170 31 246 -11 q 76 167 94 74 q 58 478 58 260 q 76 789 58 696 q 170 924 94 882 q 424 967 246 967 q 677 924 601 967 q 771 789 753 882 q 789 478 789 696 q 771 167 789 260 q 677 31 753 74 q 424 -11 601 -11 m 424 188 q 502 201 482 188 q 528 269 522 215 q 533 478 533 322 q 528 687 533 633 q 502 754 522 740 q 424 768 482 768 q 345 754 365 768 q 319 687 325 740 q 314 478 314 633 q 319 269 314 322 q 345 201 325 215 q 424 188 365 188 m 675 1257 q 669 1142 675 1181 q 636 1081 663 1103 q 551 1058 610 1058 q 407 1082 499 1058 l 379 1088 q 321 1097 340 1097 q 297 1087 301 1097 q 293 1042 293 1076 l 172 1042 q 178 1157 172 1118 q 212 1218 185 1196 q 297 1240 239 1240 q 369 1233 329 1240 q 442 1218 408 1226 q 526 1203 506 1203 q 551 1213 547 1203 q 556 1257 556 1224 l 675 1257 z "},"Œ":{"ha":1194,"x_min":58,"x_max":1135,"o":"m 424 0 q 170 42 246 0 q 76 174 94 83 q 58 478 58 264 q 76 782 58 692 q 170 914 94 872 q 424 956 246 956 l 1135 956 l 1135 757 l 851 757 q 763 767 794 757 q 788 581 783 699 l 1082 581 l 1082 385 l 788 385 q 761 189 788 257 q 851 199 800 199 l 1135 199 l 1135 0 l 424 0 m 424 199 q 502 212 482 199 q 528 276 522 225 q 533 478 533 328 q 528 679 533 628 q 502 744 522 731 q 424 757 482 757 q 345 744 365 757 q 319 679 325 731 q 314 478 314 628 q 319 276 314 328 q 345 212 325 225 q 424 199 365 199 z "},"P":{"ha":783,"x_min":75,"x_max":751,"o":"m 75 956 l 481 956 q 653 919 594 956 q 731 815 711 883 q 751 628 751 746 q 733 447 751 515 q 656 338 715 378 q 481 299 597 299 l 329 299 l 329 0 l 75 0 l 75 956 m 394 496 q 465 504 444 496 q 491 538 485 513 q 497 628 497 564 q 491 717 497 692 q 465 751 485 743 q 396 760 444 760 l 329 760 l 329 496 l 394 496 z "},"Þ":{"ha":783,"x_min":76,"x_max":751,"o":"m 76 956 l 329 956 l 329 817 l 481 817 q 653 781 594 817 q 732 676 713 744 q 751 489 751 607 q 733 308 751 376 q 656 201 715 240 q 481 161 597 161 l 329 161 l 329 0 l 76 0 l 76 956 m 394 357 q 464 365 443 357 q 491 400 485 374 q 497 489 497 426 q 491 578 497 553 q 465 613 485 604 q 396 621 444 621 l 329 621 l 329 357 l 394 357 z "},"Q":{"ha":844,"x_min":58,"x_max":843,"o":"m 486 -8 q 422 -11 447 -11 q 169 31 244 -11 q 76 166 94 74 q 58 478 58 258 q 76 790 58 697 q 169 924 94 882 q 422 967 244 967 q 675 924 600 967 q 768 789 750 882 q 786 478 786 696 q 771 199 786 292 q 704 60 756 107 l 843 -150 l 843 -160 l 581 -160 l 486 -8 m 422 186 q 501 200 481 186 q 526 268 521 214 q 532 478 532 322 q 526 688 532 633 q 501 756 521 742 q 422 769 481 769 q 344 756 364 769 q 318 688 324 742 q 313 478 313 635 q 318 267 313 321 q 344 200 324 214 q 422 186 364 186 z "},"R":{"ha":818,"x_min":75,"x_max":785,"o":"m 522 0 l 425 326 l 329 326 l 329 0 l 75 0 l 75 956 l 489 956 q 665 921 606 956 q 744 820 724 886 q 764 642 764 754 q 743 467 764 536 q 660 364 722 399 l 785 0 l 522 0 m 407 517 q 476 524 456 517 q 503 556 496 532 q 510 639 510 581 q 504 720 510 697 q 478 751 499 743 q 407 760 457 760 l 329 760 l 329 517 l 407 517 z "},"Ŕ":{"ha":818,"x_min":75,"x_max":785,"o":"m 522 0 l 425 326 l 329 326 l 329 0 l 75 0 l 75 956 l 489 956 q 665 921 606 956 q 744 820 724 886 q 764 642 764 754 q 743 467 764 536 q 660 364 722 399 l 785 0 l 522 0 m 407 517 q 476 524 456 517 q 503 556 496 532 q 510 639 510 581 q 504 720 510 697 q 478 751 499 743 q 407 760 457 760 l 329 760 l 329 517 l 407 517 m 315 1029 l 315 1036 l 414 1233 l 638 1233 l 638 1226 l 486 1029 l 315 1029 z "},"Ř":{"ha":818,"x_min":75,"x_max":785,"o":"m 522 0 l 425 326 l 329 326 l 329 0 l 75 0 l 75 956 l 489 956 q 665 921 606 956 q 744 820 724 886 q 764 642 764 754 q 743 467 764 536 q 660 364 722 399 l 785 0 l 522 0 m 407 517 q 476 524 456 517 q 503 556 496 532 q 510 639 510 581 q 504 720 510 697 q 478 751 499 743 q 407 760 457 760 l 329 760 l 329 517 l 407 517 m 300 1039 l 185 1222 l 185 1233 l 338 1233 l 411 1133 l 483 1233 l 635 1233 l 635 1222 l 518 1039 l 300 1039 z "},"Ŗ":{"ha":818,"x_min":75,"x_max":785,"o":"m 522 0 l 425 326 l 329 326 l 329 0 l 75 0 l 75 956 l 489 956 q 665 921 606 956 q 744 820 724 886 q 764 642 764 754 q 743 467 764 536 q 660 364 722 399 l 785 0 l 522 0 m 407 517 q 476 524 456 517 q 503 556 496 532 q 510 639 510 581 q 504 720 510 697 q 478 751 499 743 q 407 760 457 760 l 329 760 l 329 517 l 407 517 m 292 -312 q 347 -308 329 -312 q 372 -291 365 -303 q 378 -256 378 -279 l 378 -242 l 294 -242 l 294 -83 l 526 -83 l 526 -186 q 510 -320 526 -276 q 446 -383 494 -364 q 292 -401 397 -401 l 292 -312 z "},"Ȑ":{"ha":818,"x_min":75,"x_max":785,"o":"m 522 0 l 425 326 l 329 326 l 329 0 l 75 0 l 75 956 l 489 956 q 665 921 606 956 q 744 820 724 886 q 764 642 764 754 q 743 467 764 536 q 660 364 722 399 l 785 0 l 522 0 m 407 517 q 476 524 456 517 q 503 556 496 532 q 510 639 510 581 q 504 720 510 697 q 478 751 499 743 q 407 760 457 760 l 329 760 l 329 517 l 407 517 m 374 1049 l 232 1049 l 110 1210 l 110 1215 l 292 1215 l 374 1056 l 374 1049 m 608 1049 l 469 1049 l 346 1210 l 346 1215 l 528 1215 l 608 1056 l 608 1049 z "},"Ṛ":{"ha":818,"x_min":75,"x_max":785,"o":"m 522 0 l 425 326 l 329 326 l 329 0 l 75 0 l 75 956 l 489 956 q 665 921 606 956 q 744 820 724 886 q 764 642 764 754 q 743 467 764 536 q 660 364 722 399 l 785 0 l 522 0 m 407 517 q 476 524 456 517 q 503 556 496 532 q 510 639 510 581 q 504 720 510 697 q 478 751 499 743 q 407 760 457 760 l 329 760 l 329 517 l 407 517 m 286 -294 l 286 -86 l 533 -86 l 533 -294 l 286 -294 z "},"Ȓ":{"ha":818,"x_min":75,"x_max":785,"o":"m 522 0 l 425 326 l 329 326 l 329 0 l 75 0 l 75 956 l 489 956 q 665 921 606 956 q 744 820 724 886 q 764 642 764 754 q 743 467 764 536 q 660 364 722 399 l 785 0 l 522 0 m 407 517 q 476 524 456 517 q 503 556 496 532 q 510 639 510 581 q 504 720 510 697 q 478 751 499 743 q 407 760 457 760 l 329 760 l 329 517 l 407 517 m 206 1040 q 221 1149 206 1106 q 281 1216 236 1192 q 410 1240 325 1240 q 538 1216 494 1240 q 597 1149 582 1192 q 611 1040 611 1107 l 482 1040 q 478 1083 482 1068 q 460 1108 475 1099 q 410 1117 444 1117 q 360 1108 375 1117 q 340 1083 344 1099 q 336 1040 336 1068 l 206 1040 z "},"S":{"ha":743,"x_min":46,"x_max":697,"o":"m 382 -11 q 219 -5 304 -11 q 69 13 133 1 l 69 200 q 306 188 225 188 q 388 192 361 188 q 426 207 415 196 q 440 233 438 217 q 443 278 443 249 q 437 333 443 317 q 410 358 431 350 q 340 372 390 365 l 193 394 q 77 476 108 406 q 46 675 46 546 q 88 858 46 794 q 200 944 129 922 q 378 967 271 967 q 528 958 454 967 q 654 939 601 950 l 654 754 q 429 768 538 768 q 359 765 383 768 q 322 753 335 761 q 304 729 308 744 q 300 685 300 714 q 304 635 300 650 q 322 613 308 619 q 371 600 336 606 l 514 579 q 608 550 571 571 q 669 478 646 529 q 697 304 697 419 q 658 100 697 168 q 553 10 619 32 q 382 -11 488 -11 z "},"Ś":{"ha":743,"x_min":46,"x_max":697,"o":"m 382 -11 q 219 -5 304 -11 q 69 13 133 1 l 69 200 q 306 188 225 188 q 388 192 361 188 q 426 207 415 196 q 440 233 438 217 q 443 278 443 249 q 437 333 443 317 q 410 358 431 350 q 340 372 390 365 l 193 394 q 77 476 108 406 q 46 675 46 546 q 88 858 46 794 q 200 944 129 922 q 378 967 271 967 q 528 958 454 967 q 654 939 601 950 l 654 754 q 429 768 538 768 q 359 765 383 768 q 322 753 335 761 q 304 729 308 744 q 300 685 300 714 q 304 635 300 650 q 322 613 308 619 q 371 600 336 606 l 514 579 q 608 550 571 571 q 669 478 646 529 q 697 304 697 419 q 658 100 697 168 q 553 10 619 32 q 382 -11 488 -11 m 278 1029 l 278 1036 l 376 1233 l 600 1233 l 600 1226 l 449 1029 l 278 1029 z "},"Ꞌ":{"ha":289,"x_min":40,"x_max":249,"o":"m 40 368 l 40 956 l 249 956 l 249 724 l 201 368 l 40 368 z "},"Š":{"ha":740,"x_min":46,"x_max":697,"o":"m 382 -11 q 219 -5 304 -11 q 69 13 133 1 l 69 200 q 306 188 225 188 q 388 192 361 188 q 426 207 415 196 q 440 233 438 217 q 443 278 443 249 q 437 333 443 317 q 410 358 431 350 q 340 372 390 365 l 193 394 q 77 476 108 406 q 46 675 46 546 q 88 858 46 794 q 200 944 129 922 q 378 967 271 967 q 528 958 454 967 q 654 939 601 950 l 654 754 q 429 768 538 768 q 359 765 383 768 q 322 753 335 761 q 304 729 308 744 q 300 685 300 714 q 304 635 300 650 q 322 613 308 619 q 371 600 336 606 l 514 579 q 608 550 571 571 q 669 478 646 529 q 697 304 697 419 q 658 100 697 168 q 553 10 619 32 q 382 -11 488 -11 m 265 1042 l 150 1225 l 150 1236 l 303 1236 l 376 1136 l 449 1236 l 600 1236 l 600 1225 l 483 1042 l 265 1042 z "},"Ş":{"ha":743,"x_min":46,"x_max":697,"o":"m 697 304 q 667 118 697 185 q 583 24 636 51 q 449 -10 529 -4 l 403 -262 l 197 -262 l 197 -256 l 292 -8 q 69 13 172 -4 l 69 200 q 306 188 225 188 q 388 192 361 188 q 426 207 415 196 q 440 233 438 217 q 443 278 443 249 q 437 333 443 317 q 410 358 431 350 q 340 372 390 365 l 193 394 q 77 476 108 406 q 46 675 46 546 q 88 858 46 794 q 200 944 129 922 q 378 967 271 967 q 528 958 454 967 q 654 939 601 950 l 654 754 q 429 768 538 768 q 359 765 383 768 q 322 753 335 761 q 304 729 308 744 q 300 685 300 714 q 304 635 300 650 q 322 613 308 619 q 371 600 336 606 l 514 579 q 608 550 571 571 q 669 478 646 529 q 697 304 697 419 z "},"Ŝ":{"ha":743,"x_min":46,"x_max":697,"o":"m 382 -11 q 219 -5 304 -11 q 69 13 133 1 l 69 200 q 306 188 225 188 q 388 192 361 188 q 426 207 415 196 q 440 233 438 217 q 443 278 443 249 q 437 333 443 317 q 410 358 431 350 q 340 372 390 365 l 193 394 q 77 476 108 406 q 46 675 46 546 q 88 858 46 794 q 200 944 129 922 q 378 967 271 967 q 528 958 454 967 q 654 939 601 950 l 654 754 q 429 768 538 768 q 359 765 383 768 q 322 753 335 761 q 304 729 308 744 q 300 685 300 714 q 304 635 300 650 q 322 613 308 619 q 371 600 336 606 l 514 579 q 608 550 571 571 q 669 478 646 529 q 697 304 697 419 q 658 100 697 168 q 553 10 619 32 q 382 -11 488 -11 m 147 1039 l 147 1050 l 261 1233 l 479 1233 l 597 1050 l 597 1039 l 444 1039 l 371 1139 l 299 1039 l 147 1039 z "},"Ș":{"ha":743,"x_min":46,"x_max":697,"o":"m 382 -11 q 219 -5 304 -11 q 69 13 133 1 l 69 200 q 306 188 225 188 q 388 192 361 188 q 426 207 415 196 q 440 233 438 217 q 443 278 443 249 q 437 333 443 317 q 410 358 431 350 q 340 372 390 365 l 193 394 q 77 476 108 406 q 46 675 46 546 q 88 858 46 794 q 200 944 129 922 q 378 967 271 967 q 528 958 454 967 q 654 939 601 950 l 654 754 q 429 768 538 768 q 359 765 383 768 q 322 753 335 761 q 304 729 308 744 q 300 685 300 714 q 304 635 300 650 q 322 613 308 619 q 371 600 336 606 l 514 579 q 608 550 571 571 q 669 478 646 529 q 697 304 697 419 q 658 100 697 168 q 553 10 619 32 q 382 -11 488 -11 m 254 -312 q 310 -308 292 -312 q 334 -291 328 -303 q 340 -256 340 -279 l 340 -242 l 257 -242 l 257 -83 l 489 -83 l 489 -186 q 473 -320 489 -276 q 408 -383 457 -364 q 254 -401 360 -401 l 254 -312 z "},"Ṣ":{"ha":743,"x_min":46,"x_max":697,"o":"m 382 -11 q 219 -5 304 -11 q 69 13 133 1 l 69 200 q 306 188 225 188 q 388 192 361 188 q 426 207 415 196 q 440 233 438 217 q 443 278 443 249 q 437 333 443 317 q 410 358 431 350 q 340 372 390 365 l 193 394 q 77 476 108 406 q 46 675 46 546 q 88 858 46 794 q 200 944 129 922 q 378 967 271 967 q 528 958 454 967 q 654 939 601 950 l 654 754 q 429 768 538 768 q 359 765 383 768 q 322 753 335 761 q 304 729 308 744 q 300 685 300 714 q 304 635 300 650 q 322 613 308 619 q 371 600 336 606 l 514 579 q 608 550 571 571 q 669 478 646 529 q 697 304 697 419 q 658 100 697 168 q 553 10 619 32 q 382 -11 488 -11 m 249 -294 l 249 -86 l 496 -86 l 496 -294 l 249 -294 z "},"ẞ":{"ha":950,"x_min":71,"x_max":900,"o":"m 681 528 q 847 454 794 515 q 900 254 900 393 q 871 103 900 161 q 772 17 842 46 q 578 -11 701 -11 q 487 -3 538 -11 q 399 18 436 6 l 399 200 q 525 186 471 186 q 603 192 579 186 q 637 217 628 197 q 646 281 646 236 q 637 350 646 328 q 606 379 628 372 q 539 386 585 386 l 428 386 l 428 553 l 585 764 q 483 769 528 769 q 372 751 403 769 q 333 676 342 732 q 325 469 325 619 l 325 0 l 71 0 l 71 469 q 97 782 71 681 q 201 925 122 883 q 449 967 281 967 q 854 926 626 967 l 854 760 l 681 528 z "},"Ə":{"ha":840,"x_min":58,"x_max":775,"o":"m 388 967 q 641 923 560 967 q 749 780 722 879 q 775 478 775 681 q 757 167 775 260 q 665 31 739 74 q 414 -11 590 -11 q 167 31 240 -11 q 76 166 93 74 q 58 478 58 258 l 58 581 l 519 581 q 503 707 517 669 q 451 756 489 744 q 328 768 414 768 q 153 757 233 768 l 153 943 q 260 960 194 953 q 388 967 326 967 m 414 186 q 490 197 468 186 q 519 246 511 207 q 529 385 528 285 l 304 385 q 313 246 306 285 q 342 197 321 207 q 414 186 363 186 z "},"T":{"ha":714,"x_min":17,"x_max":697,"o":"m 229 0 l 229 749 l 17 749 l 17 956 l 697 956 l 697 749 l 483 749 l 483 0 l 229 0 z "},"Ŧ":{"ha":713,"x_min":17,"x_max":697,"o":"m 697 749 l 483 749 l 483 544 l 667 544 l 667 376 l 483 376 l 483 0 l 229 0 l 229 376 l 46 376 l 46 544 l 229 544 l 229 749 l 17 749 l 17 956 l 697 956 l 697 749 z "},"Ť":{"ha":714,"x_min":17,"x_max":697,"o":"m 229 0 l 229 749 l 17 749 l 17 956 l 697 956 l 697 749 l 483 749 l 483 0 l 229 0 m 247 1039 l 132 1222 l 132 1233 l 285 1233 l 358 1133 l 431 1233 l 582 1233 l 582 1222 l 465 1039 l 247 1039 z "},"Ţ":{"ha":714,"x_min":17,"x_max":697,"o":"m 17 956 l 697 956 l 697 749 l 483 749 l 483 0 l 435 0 l 388 -262 l 182 -262 l 182 -256 l 279 0 l 229 0 l 229 749 l 17 749 l 17 956 z "},"Ț":{"ha":714,"x_min":17,"x_max":697,"o":"m 229 0 l 229 749 l 17 749 l 17 956 l 697 956 l 697 749 l 483 749 l 483 0 l 229 0 m 239 -312 q 294 -308 276 -312 q 319 -291 313 -303 q 325 -256 325 -279 l 325 -242 l 242 -242 l 242 -83 l 474 -83 l 474 -186 q 458 -320 474 -276 q 393 -383 442 -364 q 239 -401 344 -401 l 239 -312 z "},"Ṭ":{"ha":714,"x_min":17,"x_max":697,"o":"m 229 0 l 229 749 l 17 749 l 17 956 l 697 956 l 697 749 l 483 749 l 483 0 l 229 0 m 233 -294 l 233 -86 l 481 -86 l 481 -294 l 233 -294 z "},"U":{"ha":832,"x_min":71,"x_max":760,"o":"m 760 956 l 760 431 q 742 152 760 238 q 652 28 724 67 q 415 -11 581 -11 q 179 28 250 -11 q 90 152 108 67 q 71 431 71 238 l 71 956 l 325 956 l 325 374 q 330 244 325 279 q 351 199 335 210 q 415 189 368 189 q 479 199 463 189 q 501 244 496 210 q 506 374 506 279 l 506 956 l 760 956 z "},"Ú":{"ha":832,"x_min":71,"x_max":760,"o":"m 760 956 l 760 431 q 742 152 760 238 q 652 28 724 67 q 415 -11 581 -11 q 179 28 250 -11 q 90 152 108 67 q 71 431 71 238 l 71 956 l 325 956 l 325 374 q 330 244 325 279 q 351 199 335 210 q 415 189 368 189 q 479 199 463 189 q 501 244 496 210 q 506 374 506 279 l 506 956 l 760 956 m 324 1042 l 324 1049 l 422 1246 l 646 1246 l 646 1239 l 494 1042 l 324 1042 z "},"Ŭ":{"ha":832,"x_min":71,"x_max":760,"o":"m 760 956 l 760 431 q 742 152 760 238 q 652 28 724 67 q 415 -11 581 -11 q 179 28 250 -11 q 90 152 108 67 q 71 431 71 238 l 71 956 l 325 956 l 325 374 q 330 244 325 279 q 351 199 335 210 q 415 189 368 189 q 479 199 463 189 q 501 244 496 210 q 506 374 506 279 l 506 956 l 760 956 m 619 1233 q 604 1125 619 1168 q 544 1058 589 1082 q 415 1033 500 1033 q 287 1058 331 1033 q 228 1124 243 1082 q 214 1233 214 1167 l 343 1233 q 347 1190 343 1206 q 365 1166 350 1175 q 415 1157 381 1157 q 465 1166 450 1157 q 485 1190 481 1175 q 489 1233 489 1206 l 619 1233 z "},"Ǔ":{"ha":832,"x_min":71,"x_max":760,"o":"m 760 956 l 760 431 q 742 152 760 238 q 652 28 724 67 q 415 -11 581 -11 q 179 28 250 -11 q 90 152 108 67 q 71 431 71 238 l 71 956 l 325 956 l 325 374 q 330 244 325 279 q 351 199 335 210 q 415 189 368 189 q 479 199 463 189 q 501 244 496 210 q 506 374 506 279 l 506 956 l 760 956 m 307 1039 l 192 1222 l 192 1233 l 344 1233 l 418 1133 l 490 1233 l 642 1233 l 642 1222 l 525 1039 l 307 1039 z "},"Û":{"ha":832,"x_min":71,"x_max":760,"o":"m 760 956 l 760 431 q 742 152 760 238 q 652 28 724 67 q 415 -11 581 -11 q 179 28 250 -11 q 90 152 108 67 q 71 431 71 238 l 71 956 l 325 956 l 325 374 q 330 244 325 279 q 351 199 335 210 q 415 189 368 189 q 479 199 463 189 q 501 244 496 210 q 506 374 506 279 l 506 956 l 760 956 m 192 1042 l 192 1053 l 306 1236 l 524 1236 l 642 1053 l 642 1042 l 489 1042 l 415 1142 l 343 1042 l 192 1042 z "},"Ȕ":{"ha":832,"x_min":71,"x_max":760,"o":"m 760 956 l 760 431 q 742 152 760 238 q 652 28 724 67 q 415 -11 581 -11 q 179 28 250 -11 q 90 152 108 67 q 71 431 71 238 l 71 956 l 325 956 l 325 374 q 330 244 325 279 q 351 199 335 210 q 415 189 368 189 q 479 199 463 189 q 501 244 496 210 q 506 374 506 279 l 506 956 l 760 956 m 381 1049 l 239 1049 l 117 1210 l 117 1215 l 299 1215 l 381 1056 l 381 1049 m 615 1049 l 476 1049 l 353 1210 l 353 1215 l 535 1215 l 615 1056 l 615 1049 z "},"Ü":{"ha":832,"x_min":71,"x_max":760,"o":"m 760 956 l 760 431 q 742 152 760 238 q 652 28 724 67 q 415 -11 581 -11 q 179 28 250 -11 q 90 152 108 67 q 71 431 71 238 l 71 956 l 325 956 l 325 374 q 330 244 325 279 q 351 199 335 210 q 415 189 368 189 q 479 199 463 189 q 501 244 496 210 q 506 374 506 279 l 506 956 l 760 956 m 185 1081 l 185 1238 l 374 1238 l 374 1081 l 185 1081 m 457 1081 l 457 1238 l 647 1238 l 647 1081 l 457 1081 z "},"Ǘ":{"ha":832,"x_min":71,"x_max":760,"o":"m 375 1206 l 375 1058 l 186 1058 l 186 1215 l 326 1215 l 424 1410 l 647 1410 l 647 1403 l 503 1215 l 649 1215 l 649 1058 l 458 1058 l 458 1206 l 375 1206 m 760 956 l 760 431 q 742 152 760 238 q 652 28 724 67 q 415 -11 581 -11 q 179 28 250 -11 q 90 152 108 67 q 71 431 71 238 l 71 956 l 325 956 l 325 374 q 330 244 325 279 q 351 199 335 210 q 415 189 368 189 q 479 199 463 189 q 501 244 496 210 q 506 374 506 279 l 506 956 l 760 956 z "},"Ǚ":{"ha":832,"x_min":71,"x_max":760,"o":"m 760 956 l 760 431 q 742 152 760 238 q 652 28 724 67 q 415 -11 581 -11 q 179 28 250 -11 q 90 152 108 67 q 71 431 71 238 l 71 956 l 325 956 l 325 374 q 330 244 325 279 q 351 199 335 210 q 415 189 368 189 q 479 199 463 189 q 501 244 496 210 q 506 374 506 279 l 506 956 l 760 956 m 186 1058 l 186 1215 l 375 1215 l 375 1058 l 186 1058 m 458 1058 l 458 1215 l 649 1215 l 649 1058 l 458 1058 m 310 1215 l 194 1399 l 194 1410 l 347 1410 l 421 1310 l 493 1410 l 644 1410 l 644 1399 l 528 1215 l 310 1215 z "},"Ǜ":{"ha":832,"x_min":71,"x_max":760,"o":"m 375 1206 l 375 1058 l 186 1058 l 186 1215 l 338 1215 l 194 1403 l 194 1410 l 418 1410 l 515 1215 l 649 1215 l 649 1058 l 458 1058 l 458 1206 l 375 1206 m 760 956 l 760 431 q 742 152 760 238 q 652 28 724 67 q 415 -11 581 -11 q 179 28 250 -11 q 90 152 108 67 q 71 431 71 238 l 71 956 l 325 956 l 325 374 q 330 244 325 279 q 351 199 335 210 q 415 189 368 189 q 479 199 463 189 q 501 244 496 210 q 506 374 506 279 l 506 956 l 760 956 z "},"Ǖ":{"ha":832,"x_min":71,"x_max":760,"o":"m 375 1204 l 375 1058 l 186 1058 l 186 1215 l 244 1215 l 244 1357 l 593 1357 l 593 1215 l 649 1215 l 649 1058 l 458 1058 l 458 1204 l 375 1204 m 760 956 l 760 431 q 742 152 760 238 q 652 28 724 67 q 415 -11 581 -11 q 179 28 250 -11 q 90 152 108 67 q 71 431 71 238 l 71 956 l 325 956 l 325 374 q 330 244 325 279 q 351 199 335 210 q 415 189 368 189 q 479 199 463 189 q 501 244 496 210 q 506 374 506 279 l 506 956 l 760 956 z "},"Ụ":{"ha":832,"x_min":71,"x_max":760,"o":"m 760 956 l 760 431 q 742 152 760 238 q 652 28 724 67 q 415 -11 581 -11 q 179 28 250 -11 q 90 152 108 67 q 71 431 71 238 l 71 956 l 325 956 l 325 374 q 330 244 325 279 q 351 199 335 210 q 415 189 368 189 q 479 199 463 189 q 501 244 496 210 q 506 374 506 279 l 506 956 l 760 956 m 293 -294 l 293 -86 l 540 -86 l 540 -294 l 293 -294 z "},"Ù":{"ha":832,"x_min":71,"x_max":760,"o":"m 760 956 l 760 431 q 742 152 760 238 q 652 28 724 67 q 415 -11 581 -11 q 179 28 250 -11 q 90 152 108 67 q 71 431 71 238 l 71 956 l 325 956 l 325 374 q 330 244 325 279 q 351 199 335 210 q 415 189 368 189 q 479 199 463 189 q 501 244 496 210 q 506 374 506 279 l 506 956 l 760 956 m 340 1042 l 190 1239 l 190 1246 l 414 1246 l 513 1049 l 513 1042 l 340 1042 z "},"Ủ":{"ha":832,"x_min":71,"x_max":760,"o":"m 760 956 l 760 431 q 742 152 760 238 q 652 28 724 67 q 415 -11 581 -11 q 179 28 250 -11 q 90 152 108 67 q 71 431 71 238 l 71 956 l 325 956 l 325 374 q 330 244 325 279 q 351 199 335 210 q 415 189 368 189 q 479 199 463 189 q 501 244 496 210 q 506 374 506 279 l 506 956 l 760 956 m 315 1022 q 328 1085 315 1067 q 378 1114 340 1103 l 397 1119 q 435 1136 426 1129 q 444 1158 444 1143 q 432 1184 444 1179 q 376 1189 419 1189 q 233 1182 300 1189 l 233 1294 q 318 1306 269 1301 q 407 1311 367 1311 q 510 1302 469 1311 q 574 1264 550 1293 q 597 1176 597 1235 q 578 1099 597 1122 q 508 1058 558 1076 l 489 1051 q 451 1033 458 1040 q 443 1007 443 1025 l 315 1007 l 315 1022 z "},"Ư":{"ha":832,"x_min":71,"x_max":869,"o":"m 869 1081 l 869 1054 q 862 961 869 994 q 831 907 854 928 q 760 878 807 886 l 760 431 q 742 152 760 238 q 652 28 724 67 q 415 -11 581 -11 q 179 28 250 -11 q 90 152 108 67 q 71 431 71 238 l 71 956 l 325 956 l 325 374 q 330 244 325 279 q 351 199 335 210 q 415 189 368 189 q 479 199 463 189 q 501 244 496 210 q 506 374 506 279 l 506 956 l 629 956 q 688 963 669 956 q 713 987 707 971 q 719 1036 719 1003 l 719 1081 l 869 1081 z "},"Ứ":{"ha":832,"x_min":71,"x_max":869,"o":"m 869 1081 l 869 1054 q 862 961 869 994 q 831 907 854 928 q 760 878 807 886 l 760 431 q 742 152 760 238 q 652 28 724 67 q 415 -11 581 -11 q 179 28 250 -11 q 90 152 108 67 q 71 431 71 238 l 71 956 l 325 956 l 325 374 q 330 244 325 279 q 351 199 335 210 q 415 189 368 189 q 479 199 463 189 q 501 244 496 210 q 506 374 506 279 l 506 956 l 629 956 q 688 963 669 956 q 713 987 707 971 q 719 1036 719 1003 l 719 1081 l 869 1081 m 322 1029 l 322 1036 l 421 1233 l 644 1233 l 644 1226 l 493 1029 l 322 1029 z "},"Ự":{"ha":832,"x_min":71,"x_max":869,"o":"m 869 1081 l 869 1054 q 862 961 869 994 q 831 907 854 928 q 760 878 807 886 l 760 431 q 742 152 760 238 q 652 28 724 67 q 415 -11 581 -11 q 179 28 250 -11 q 90 152 108 67 q 71 431 71 238 l 71 956 l 325 956 l 325 374 q 330 244 325 279 q 351 199 335 210 q 415 189 368 189 q 479 199 463 189 q 501 244 496 210 q 506 374 506 279 l 506 956 l 629 956 q 688 963 669 956 q 713 987 707 971 q 719 1036 719 1003 l 719 1081 l 869 1081 m 293 -294 l 293 -86 l 540 -86 l 540 -294 l 293 -294 z "},"Ừ":{"ha":832,"x_min":71,"x_max":869,"o":"m 869 1081 l 869 1054 q 862 961 869 994 q 831 907 854 928 q 760 878 807 886 l 760 431 q 742 152 760 238 q 652 28 724 67 q 415 -11 581 -11 q 179 28 250 -11 q 90 152 108 67 q 71 431 71 238 l 71 956 l 325 956 l 325 374 q 330 244 325 279 q 351 199 335 210 q 415 189 368 189 q 479 199 463 189 q 501 244 496 210 q 506 374 506 279 l 506 956 l 629 956 q 688 963 669 956 q 713 987 707 971 q 719 1036 719 1003 l 719 1081 l 869 1081 m 342 1029 l 192 1226 l 192 1233 l 415 1233 l 514 1036 l 514 1029 l 342 1029 z "},"Ử":{"ha":832,"x_min":71,"x_max":869,"o":"m 869 1081 l 869 1054 q 862 961 869 994 q 831 907 854 928 q 760 878 807 886 l 760 431 q 742 152 760 238 q 652 28 724 67 q 415 -11 581 -11 q 179 28 250 -11 q 90 152 108 67 q 71 431 71 238 l 71 956 l 325 956 l 325 374 q 330 244 325 279 q 351 199 335 210 q 415 189 368 189 q 479 199 463 189 q 501 244 496 210 q 506 374 506 279 l 506 956 l 629 956 q 688 963 669 956 q 713 987 707 971 q 719 1036 719 1003 l 719 1081 l 869 1081 m 315 1022 q 328 1085 315 1067 q 378 1114 340 1103 l 397 1119 q 435 1136 426 1129 q 444 1158 444 1143 q 432 1184 444 1179 q 376 1189 419 1189 q 233 1182 300 1189 l 233 1294 q 318 1306 269 1301 q 407 1311 367 1311 q 510 1302 469 1311 q 574 1264 550 1293 q 597 1176 597 1235 q 578 1099 597 1122 q 508 1058 558 1076 l 489 1051 q 451 1033 458 1040 q 443 1007 443 1025 l 315 1007 l 315 1022 z "},"Ữ":{"ha":832,"x_min":71,"x_max":869,"o":"m 869 1081 l 869 1054 q 862 961 869 994 q 831 907 854 928 q 760 878 807 886 l 760 431 q 742 152 760 238 q 652 28 724 67 q 415 -11 581 -11 q 179 28 250 -11 q 90 152 108 67 q 71 431 71 238 l 71 956 l 325 956 l 325 374 q 330 244 325 279 q 351 199 335 210 q 415 189 368 189 q 479 199 463 189 q 501 244 496 210 q 506 374 506 279 l 506 956 l 629 956 q 688 963 669 956 q 713 987 707 971 q 719 1036 719 1003 l 719 1081 l 869 1081 m 667 1233 q 660 1118 667 1157 q 628 1057 654 1079 q 543 1035 601 1035 q 399 1058 490 1035 l 371 1064 q 313 1074 332 1074 q 289 1063 293 1074 q 285 1018 285 1051 l 164 1018 q 170 1133 164 1094 q 203 1194 176 1172 q 289 1217 231 1217 q 360 1210 321 1217 q 433 1194 400 1203 q 518 1179 497 1179 q 543 1190 539 1179 q 547 1233 547 1200 l 667 1233 z "},"Ű":{"ha":832,"x_min":71,"x_max":760,"o":"m 760 956 l 760 431 q 742 152 760 238 q 652 28 724 67 q 415 -11 581 -11 q 179 28 250 -11 q 90 152 108 67 q 71 431 71 238 l 71 956 l 325 956 l 325 374 q 330 244 325 279 q 351 199 335 210 q 415 189 368 189 q 479 199 463 189 q 501 244 496 210 q 506 374 506 279 l 506 956 l 760 956 m 232 1049 l 232 1056 l 313 1215 l 494 1215 l 494 1210 l 371 1049 l 232 1049 m 467 1049 l 467 1056 l 549 1215 l 731 1215 l 731 1210 l 608 1049 l 467 1049 z "},"Ȗ":{"ha":832,"x_min":71,"x_max":760,"o":"m 760 956 l 760 431 q 742 152 760 238 q 652 28 724 67 q 415 -11 581 -11 q 179 28 250 -11 q 90 152 108 67 q 71 431 71 238 l 71 956 l 325 956 l 325 374 q 330 244 325 279 q 351 199 335 210 q 415 189 368 189 q 479 199 463 189 q 501 244 496 210 q 506 374 506 279 l 506 956 l 760 956 m 213 1040 q 228 1149 213 1106 q 288 1216 243 1192 q 417 1240 332 1240 q 545 1216 501 1240 q 603 1149 589 1192 q 618 1040 618 1107 l 489 1040 q 485 1083 489 1068 q 467 1108 482 1099 q 417 1117 451 1117 q 367 1108 382 1117 q 347 1083 351 1099 q 343 1040 343 1068 l 213 1040 z "},"Ū":{"ha":832,"x_min":71,"x_max":760,"o":"m 760 956 l 760 431 q 742 152 760 238 q 652 28 724 67 q 415 -11 581 -11 q 179 28 250 -11 q 90 152 108 67 q 71 431 71 238 l 71 956 l 325 956 l 325 374 q 330 244 325 279 q 351 199 335 210 q 415 189 368 189 q 479 199 463 189 q 501 244 496 210 q 506 374 506 279 l 506 956 l 760 956 m 242 1044 l 242 1233 l 590 1233 l 590 1044 l 242 1044 z "},"Ų":{"ha":832,"x_min":71,"x_max":760,"o":"m 760 956 l 760 431 q 753 226 760 299 q 724 104 747 154 q 651 28 701 54 q 576 -31 603 0 q 549 -107 549 -62 q 561 -143 549 -131 q 608 -156 574 -156 q 629 -154 619 -156 l 629 -267 q 533 -272 574 -272 q 402 -239 442 -272 q 363 -151 363 -206 q 431 -11 363 -83 l 414 -11 q 178 28 250 -11 q 89 152 107 67 q 71 431 71 238 l 71 956 l 325 956 l 325 374 q 330 244 325 279 q 351 199 335 210 q 415 189 368 189 q 479 199 463 189 q 501 244 496 210 q 506 374 506 279 l 506 956 l 760 956 z "},"Ů":{"ha":832,"x_min":71,"x_max":760,"o":"m 760 956 l 760 431 q 742 152 760 238 q 652 28 724 67 q 415 -11 581 -11 q 179 28 250 -11 q 90 152 108 67 q 71 431 71 238 l 71 956 l 325 956 l 325 374 q 330 244 325 279 q 351 199 335 210 q 415 189 368 189 q 479 199 463 189 q 501 244 496 210 q 506 374 506 279 l 506 956 l 760 956 m 415 992 q 285 1007 326 992 q 233 1054 244 1022 q 221 1151 221 1086 q 233 1249 221 1217 q 285 1298 244 1282 q 415 1314 326 1314 q 546 1298 504 1314 q 600 1249 588 1282 q 613 1151 613 1217 q 600 1055 613 1088 q 546 1007 588 1022 q 415 992 504 992 m 415 1088 q 464 1093 450 1088 q 481 1110 478 1099 q 485 1151 485 1122 q 481 1194 485 1182 q 464 1213 478 1207 q 415 1218 450 1218 q 368 1213 382 1218 q 351 1194 354 1207 q 347 1151 347 1181 q 351 1110 347 1122 q 368 1093 354 1099 q 415 1088 382 1088 z "},"Ũ":{"ha":832,"x_min":71,"x_max":760,"o":"m 760 956 l 760 431 q 742 152 760 238 q 652 28 724 67 q 415 -11 581 -11 q 179 28 250 -11 q 90 152 108 67 q 71 431 71 238 l 71 956 l 325 956 l 325 374 q 330 244 325 279 q 351 199 335 210 q 415 189 368 189 q 479 199 463 189 q 501 244 496 210 q 506 374 506 279 l 506 956 l 760 956 m 667 1233 q 660 1118 667 1157 q 628 1057 654 1079 q 543 1035 601 1035 q 399 1058 490 1035 l 371 1064 q 313 1074 332 1074 q 289 1063 293 1074 q 285 1018 285 1051 l 164 1018 q 170 1133 164 1094 q 203 1194 176 1172 q 289 1217 231 1217 q 360 1210 321 1217 q 433 1194 400 1203 q 518 1179 497 1179 q 543 1190 539 1179 q 547 1233 547 1200 l 667 1233 z "},"V":{"ha":807,"x_min":7,"x_max":800,"o":"m 229 0 l 7 956 l 265 956 l 400 267 l 413 267 l 546 956 l 800 956 l 576 0 l 229 0 z "},"W":{"ha":1219,"x_min":14,"x_max":1213,"o":"m 718 0 l 618 578 l 607 578 l 508 0 l 178 0 l 14 956 l 267 956 l 356 278 l 368 278 l 479 956 l 754 956 l 868 278 l 879 278 l 960 956 l 1213 956 l 1049 0 l 718 0 z "},"Ẃ":{"ha":1219,"x_min":14,"x_max":1213,"o":"m 718 0 l 618 578 l 607 578 l 508 0 l 178 0 l 14 956 l 267 956 l 356 278 l 368 278 l 479 956 l 754 956 l 868 278 l 879 278 l 960 956 l 1213 956 l 1049 0 l 718 0 m 515 1029 l 515 1036 l 614 1233 l 838 1233 l 838 1226 l 686 1029 l 515 1029 z "},"Ŵ":{"ha":1219,"x_min":14,"x_max":1213,"o":"m 718 0 l 618 578 l 607 578 l 508 0 l 178 0 l 14 956 l 267 956 l 356 278 l 368 278 l 479 956 l 754 956 l 868 278 l 879 278 l 960 956 l 1213 956 l 1049 0 l 718 0 m 385 1039 l 385 1050 l 499 1233 l 717 1233 l 835 1050 l 835 1039 l 682 1039 l 608 1139 l 536 1039 l 385 1039 z "},"Ẅ":{"ha":1219,"x_min":14,"x_max":1213,"o":"m 718 0 l 618 578 l 607 578 l 508 0 l 178 0 l 14 956 l 267 956 l 356 278 l 368 278 l 479 956 l 754 956 l 868 278 l 879 278 l 960 956 l 1213 956 l 1049 0 l 718 0 m 379 1058 l 379 1215 l 568 1215 l 568 1058 l 379 1058 m 651 1058 l 651 1215 l 842 1215 l 842 1058 l 651 1058 z "},"Ẁ":{"ha":1219,"x_min":14,"x_max":1213,"o":"m 718 0 l 618 578 l 607 578 l 508 0 l 178 0 l 14 956 l 267 956 l 356 278 l 368 278 l 479 956 l 754 956 l 868 278 l 879 278 l 960 956 l 1213 956 l 1049 0 l 718 0 m 535 1029 l 385 1226 l 385 1233 l 608 1233 l 707 1036 l 707 1029 l 535 1029 z "},"X":{"ha":844,"x_min":13,"x_max":832,"o":"m 551 0 l 424 296 l 411 296 l 283 0 l 13 0 l 257 481 l 17 956 l 297 956 l 419 669 l 432 669 l 557 956 l 828 956 l 589 486 l 832 0 l 551 0 z "},"Y":{"ha":789,"x_min":-1,"x_max":789,"o":"m 267 0 l 267 321 l -1 956 l 258 956 l 393 568 l 404 568 l 536 956 l 789 956 l 521 321 l 521 0 l 267 0 z "},"Ý":{"ha":789,"x_min":-1,"x_max":789,"o":"m 267 0 l 267 321 l -1 956 l 258 956 l 393 568 l 404 568 l 536 956 l 789 956 l 521 321 l 521 0 l 267 0 m 311 1042 l 311 1049 l 410 1246 l 633 1246 l 633 1239 l 482 1042 l 311 1042 z "},"Ŷ":{"ha":789,"x_min":-1,"x_max":789,"o":"m 267 0 l 267 321 l -1 956 l 258 956 l 393 568 l 404 568 l 536 956 l 789 956 l 521 321 l 521 0 l 267 0 m 169 1039 l 169 1050 l 283 1233 l 501 1233 l 619 1050 l 619 1039 l 467 1039 l 393 1139 l 321 1039 l 169 1039 z "},"Ÿ":{"ha":789,"x_min":-1,"x_max":789,"o":"m 267 0 l 267 321 l -1 956 l 258 956 l 393 568 l 404 568 l 536 956 l 789 956 l 521 321 l 521 0 l 267 0 m 168 1081 l 168 1238 l 357 1238 l 357 1081 l 168 1081 m 440 1081 l 440 1238 l 631 1238 l 631 1081 l 440 1081 z "},"Ỵ":{"ha":789,"x_min":-1,"x_max":789,"o":"m 267 0 l 267 321 l -1 956 l 258 956 l 393 568 l 404 568 l 536 956 l 789 956 l 521 321 l 521 0 l 267 0 m 271 -294 l 271 -86 l 518 -86 l 518 -294 l 271 -294 z "},"Ỳ":{"ha":789,"x_min":-1,"x_max":789,"o":"m 267 0 l 267 321 l -1 956 l 258 956 l 393 568 l 404 568 l 536 956 l 789 956 l 521 321 l 521 0 l 267 0 m 319 1029 l 169 1226 l 169 1233 l 393 1233 l 492 1036 l 492 1029 l 319 1029 z "},"Ỷ":{"ha":789,"x_min":-1,"x_max":789,"o":"m 267 0 l 267 321 l -1 956 l 258 956 l 393 568 l 404 568 l 536 956 l 789 956 l 521 321 l 521 0 l 267 0 m 293 1022 q 306 1085 293 1067 q 356 1114 318 1103 l 375 1119 q 413 1136 404 1129 q 422 1158 422 1143 q 410 1184 422 1179 q 354 1189 397 1189 q 211 1182 278 1189 l 211 1294 q 296 1306 247 1301 q 385 1311 344 1311 q 488 1302 447 1311 q 551 1264 528 1293 q 575 1176 575 1235 q 556 1099 575 1122 q 486 1058 536 1076 l 467 1051 q 428 1033 436 1040 q 421 1007 421 1025 l 293 1007 l 293 1022 z "},"Ȳ":{"ha":789,"x_min":-1,"x_max":789,"o":"m 267 0 l 267 321 l -1 956 l 258 956 l 393 568 l 404 568 l 536 956 l 789 956 l 521 321 l 521 0 l 267 0 m 219 1044 l 219 1233 l 568 1233 l 568 1044 l 219 1044 z "},"Ỹ":{"ha":789,"x_min":-1,"x_max":789,"o":"m 267 0 l 267 321 l -1 956 l 258 956 l 393 568 l 404 568 l 536 956 l 789 956 l 521 321 l 521 0 l 267 0 m 644 1233 q 638 1118 644 1157 q 606 1057 632 1079 q 521 1035 579 1035 q 376 1058 468 1035 l 349 1064 q 290 1074 310 1074 q 267 1063 271 1074 q 263 1018 263 1051 l 142 1018 q 148 1133 142 1094 q 181 1194 154 1172 q 267 1217 208 1217 q 338 1210 299 1217 q 411 1194 378 1203 q 496 1179 475 1179 q 521 1190 517 1179 q 525 1233 525 1200 l 644 1233 z "},"Z":{"ha":746,"x_min":49,"x_max":696,"o":"m 49 0 l 49 189 l 394 757 l 63 757 l 63 956 l 696 956 l 696 771 l 347 199 l 696 199 l 696 0 l 49 0 z "},"Ź":{"ha":746,"x_min":49,"x_max":696,"o":"m 49 0 l 49 189 l 394 757 l 63 757 l 63 956 l 696 956 l 696 771 l 347 199 l 696 199 l 696 0 l 49 0 m 279 1029 l 279 1036 l 378 1233 l 601 1233 l 601 1226 l 450 1029 l 279 1029 z "},"Ž":{"ha":743,"x_min":49,"x_max":696,"o":"m 49 0 l 49 189 l 394 757 l 63 757 l 63 956 l 696 956 l 696 771 l 347 199 l 696 199 l 696 0 l 49 0 m 274 1043 l 158 1226 l 158 1238 l 311 1238 l 385 1138 l 457 1238 l 608 1238 l 608 1226 l 492 1043 l 274 1043 z "},"Ż":{"ha":746,"x_min":49,"x_max":696,"o":"m 49 0 l 49 189 l 394 757 l 63 757 l 63 956 l 696 956 l 696 771 l 347 199 l 696 199 l 696 0 l 49 0 m 279 1058 l 279 1215 l 468 1215 l 468 1058 l 279 1058 z "},"Ẓ":{"ha":746,"x_min":49,"x_max":696,"o":"m 49 0 l 49 189 l 394 757 l 63 757 l 63 956 l 696 956 l 696 771 l 347 199 l 696 199 l 696 0 l 49 0 m 250 -294 l 250 -86 l 497 -86 l 497 -294 l 250 -294 z "},"a":{"ha":697,"x_min":39,"x_max":633,"o":"m 218 -11 q 82 41 125 -11 q 39 204 39 93 q 57 333 39 288 q 119 400 75 379 q 246 421 164 421 q 399 415 301 421 l 399 443 q 389 511 399 492 q 353 536 379 531 q 258 542 326 542 q 75 533 178 542 l 75 697 q 331 719 203 719 q 528 690 464 719 q 613 599 593 660 q 633 426 633 539 l 633 0 l 407 0 l 401 81 l 389 81 q 317 8 360 28 q 218 -11 274 -11 m 325 160 q 365 166 350 160 q 388 188 379 172 q 399 265 399 208 l 399 300 l 322 300 q 281 295 294 300 q 264 275 268 290 q 260 226 260 260 q 271 173 260 186 q 325 160 282 160 z "},"á":{"ha":697,"x_min":39,"x_max":633,"o":"m 218 -11 q 82 41 125 -11 q 39 204 39 93 q 57 333 39 288 q 119 400 75 379 q 246 421 164 421 q 399 415 301 421 l 399 443 q 389 511 399 492 q 353 536 379 531 q 258 542 326 542 q 75 533 178 542 l 75 697 q 331 719 203 719 q 528 690 464 719 q 613 599 593 660 q 633 426 633 539 l 633 0 l 407 0 l 401 81 l 389 81 q 317 8 360 28 q 218 -11 274 -11 m 325 160 q 365 166 350 160 q 388 188 379 172 q 399 265 399 208 l 399 300 l 322 300 q 281 295 294 300 q 264 275 268 290 q 260 226 260 260 q 271 173 260 186 q 325 160 282 160 m 257 828 l 257 835 l 356 1032 l 579 1032 l 579 1025 l 428 828 l 257 828 z "},"ă":{"ha":697,"x_min":39,"x_max":633,"o":"m 218 -11 q 82 41 125 -11 q 39 204 39 93 q 57 333 39 288 q 119 400 75 379 q 246 421 164 421 q 399 415 301 421 l 399 443 q 389 511 399 492 q 353 536 379 531 q 258 542 326 542 q 75 533 178 542 l 75 697 q 331 719 203 719 q 528 690 464 719 q 613 599 593 660 q 633 426 633 539 l 633 0 l 407 0 l 401 81 l 389 81 q 317 8 360 28 q 218 -11 274 -11 m 325 160 q 365 166 350 160 q 388 188 379 172 q 399 265 399 208 l 399 300 l 322 300 q 281 295 294 300 q 264 275 268 290 q 260 226 260 260 q 271 173 260 186 q 325 160 282 160 m 551 1032 q 536 924 551 967 q 476 856 521 881 q 347 832 432 832 q 219 856 263 832 q 160 923 175 881 q 146 1032 146 965 l 275 1032 q 278 989 275 1004 q 297 965 282 974 q 347 956 313 956 q 397 965 382 956 q 417 989 413 974 q 421 1032 421 1004 l 551 1032 z "},"ắ":{"ha":697,"x_min":39,"x_max":633,"o":"m 218 -11 q 82 41 125 -11 q 39 204 39 93 q 57 333 39 288 q 119 400 75 379 q 246 421 164 421 q 399 415 301 421 l 399 443 q 389 511 399 492 q 353 536 379 531 q 258 542 326 542 q 75 533 178 542 l 75 697 q 331 719 203 719 q 528 690 464 719 q 613 599 593 660 q 633 426 633 539 l 633 0 l 407 0 l 401 81 l 389 81 q 317 8 360 28 q 218 -11 274 -11 m 325 160 q 365 166 350 160 q 388 188 379 172 q 399 265 399 208 l 399 300 l 322 300 q 281 295 294 300 q 264 275 268 290 q 260 226 260 260 q 271 173 260 186 q 325 160 282 160 m 538 1032 q 522 924 538 967 q 463 856 507 881 q 333 832 418 832 q 205 856 249 832 q 147 923 161 881 q 132 1032 132 965 l 261 1032 q 265 989 261 1004 q 283 965 268 974 q 333 956 299 956 q 383 965 368 956 q 403 989 399 974 q 407 1032 407 1004 l 538 1032 m 236 1068 l 236 1075 l 335 1272 l 558 1272 l 558 1265 l 407 1068 l 236 1068 z "},"ặ":{"ha":697,"x_min":39,"x_max":633,"o":"m 218 -11 q 82 41 125 -11 q 39 204 39 93 q 57 333 39 288 q 119 400 75 379 q 246 421 164 421 q 399 415 301 421 l 399 443 q 389 511 399 492 q 353 536 379 531 q 258 542 326 542 q 75 533 178 542 l 75 697 q 331 719 203 719 q 528 690 464 719 q 613 599 593 660 q 633 426 633 539 l 633 0 l 407 0 l 401 81 l 389 81 q 317 8 360 28 q 218 -11 274 -11 m 325 160 q 365 166 350 160 q 388 188 379 172 q 399 265 399 208 l 399 300 l 322 300 q 281 295 294 300 q 264 275 268 290 q 260 226 260 260 q 271 173 260 186 q 325 160 282 160 m 225 -294 l 225 -86 l 472 -86 l 472 -294 l 225 -294 m 551 1032 q 536 924 551 967 q 476 856 521 881 q 347 832 432 832 q 219 856 263 832 q 160 923 175 881 q 146 1032 146 965 l 275 1032 q 278 989 275 1004 q 297 965 282 974 q 347 956 313 956 q 397 965 382 956 q 417 989 413 974 q 421 1032 421 1004 l 551 1032 z "},"ằ":{"ha":697,"x_min":39,"x_max":633,"o":"m 218 -11 q 82 41 125 -11 q 39 204 39 93 q 57 333 39 288 q 119 400 75 379 q 246 421 164 421 q 399 415 301 421 l 399 443 q 389 511 399 492 q 353 536 379 531 q 258 542 326 542 q 75 533 178 542 l 75 697 q 331 719 203 719 q 528 690 464 719 q 613 599 593 660 q 633 426 633 539 l 633 0 l 407 0 l 401 81 l 389 81 q 317 8 360 28 q 218 -11 274 -11 m 325 160 q 365 166 350 160 q 388 188 379 172 q 399 265 399 208 l 399 300 l 322 300 q 281 295 294 300 q 264 275 268 290 q 260 226 260 260 q 271 173 260 186 q 325 160 282 160 m 568 1032 q 553 924 568 967 q 493 856 538 881 q 364 832 449 832 q 235 856 279 832 q 177 923 192 881 q 163 1032 163 965 l 292 1032 q 295 989 292 1004 q 314 965 299 974 q 364 956 329 956 q 414 965 399 956 q 433 989 429 974 q 438 1032 438 1004 l 568 1032 m 285 1068 l 135 1265 l 135 1272 l 358 1272 l 457 1075 l 457 1068 l 285 1068 z "},"ẳ":{"ha":697,"x_min":39,"x_max":633,"o":"m 218 -11 q 82 41 125 -11 q 39 204 39 93 q 57 333 39 288 q 119 400 75 379 q 246 421 164 421 q 399 415 301 421 l 399 443 q 389 511 399 492 q 353 536 379 531 q 258 542 326 542 q 75 533 178 542 l 75 697 q 331 719 203 719 q 528 690 464 719 q 613 599 593 660 q 633 426 633 539 l 633 0 l 407 0 l 401 81 l 389 81 q 317 8 360 28 q 218 -11 274 -11 m 325 160 q 365 166 350 160 q 388 188 379 172 q 399 265 399 208 l 399 300 l 322 300 q 281 295 294 300 q 264 275 268 290 q 260 226 260 260 q 271 173 260 186 q 325 160 282 160 m 546 1032 q 531 924 546 967 q 471 856 515 881 q 342 832 426 832 q 213 856 257 832 q 155 923 169 881 q 140 1032 140 965 l 269 1032 q 273 989 269 1004 q 292 965 276 974 q 342 956 307 956 q 392 965 376 956 q 411 989 407 974 q 415 1032 415 1004 l 546 1032 m 274 1057 q 286 1119 274 1101 q 336 1147 299 1136 l 356 1154 q 394 1171 385 1164 q 403 1193 403 1178 q 390 1218 403 1213 q 335 1224 376 1224 q 192 1217 258 1224 l 192 1329 q 276 1341 228 1336 q 365 1346 325 1346 q 468 1337 428 1346 q 532 1299 508 1328 q 556 1211 556 1269 q 536 1133 556 1157 q 467 1093 517 1110 l 447 1085 q 409 1067 417 1074 q 401 1042 401 1060 l 274 1042 l 274 1057 z "},"ẵ":{"ha":697,"x_min":39,"x_max":633,"o":"m 218 -11 q 82 41 125 -11 q 39 204 39 93 q 57 333 39 288 q 119 400 75 379 q 246 421 164 421 q 399 415 301 421 l 399 443 q 389 511 399 492 q 353 536 379 531 q 258 542 326 542 q 75 533 178 542 l 75 697 q 331 719 203 719 q 528 690 464 719 q 613 599 593 660 q 633 426 633 539 l 633 0 l 407 0 l 401 81 l 389 81 q 317 8 360 28 q 218 -11 274 -11 m 325 160 q 365 166 350 160 q 388 188 379 172 q 399 265 399 208 l 399 300 l 322 300 q 281 295 294 300 q 264 275 268 290 q 260 226 260 260 q 271 173 260 186 q 325 160 282 160 m 549 1032 q 533 924 549 967 q 474 856 518 881 q 344 832 429 832 q 216 856 260 832 q 158 923 172 881 q 143 1032 143 965 l 272 1032 q 276 989 272 1004 q 294 965 279 974 q 344 956 310 956 q 394 965 379 956 q 414 989 410 974 q 418 1032 418 1004 l 549 1032 m 600 1310 q 594 1194 600 1233 q 561 1133 588 1156 q 476 1111 535 1111 q 332 1135 424 1111 l 304 1140 q 246 1150 265 1150 q 222 1139 226 1150 q 218 1094 218 1128 l 97 1094 q 103 1210 97 1171 q 137 1271 110 1249 q 222 1293 164 1293 q 294 1286 254 1293 q 367 1271 333 1279 q 451 1256 431 1256 q 476 1266 472 1256 q 481 1310 481 1276 l 600 1310 z "},"ǎ":{"ha":697,"x_min":39,"x_max":633,"o":"m 218 -11 q 82 41 125 -11 q 39 204 39 93 q 57 333 39 288 q 119 400 75 379 q 246 421 164 421 q 399 415 301 421 l 399 443 q 389 511 399 492 q 353 536 379 531 q 258 542 326 542 q 75 533 178 542 l 75 697 q 331 719 203 719 q 528 690 464 719 q 613 599 593 660 q 633 426 633 539 l 633 0 l 407 0 l 401 81 l 389 81 q 317 8 360 28 q 218 -11 274 -11 m 325 160 q 365 166 350 160 q 388 188 379 172 q 399 265 399 208 l 399 300 l 322 300 q 281 295 294 300 q 264 275 268 290 q 260 226 260 260 q 271 173 260 186 q 325 160 282 160 m 239 838 l 124 1021 l 124 1032 l 276 1032 l 350 932 l 422 1032 l 574 1032 l 574 1021 l 457 838 l 239 838 z "},"â":{"ha":697,"x_min":39,"x_max":633,"o":"m 218 -11 q 82 41 125 -11 q 39 204 39 93 q 57 333 39 288 q 119 400 75 379 q 246 421 164 421 q 399 415 301 421 l 399 443 q 389 511 399 492 q 353 536 379 531 q 258 542 326 542 q 75 533 178 542 l 75 697 q 331 719 203 719 q 528 690 464 719 q 613 599 593 660 q 633 426 633 539 l 633 0 l 407 0 l 401 81 l 389 81 q 317 8 360 28 q 218 -11 274 -11 m 325 160 q 365 166 350 160 q 388 188 379 172 q 399 265 399 208 l 399 300 l 322 300 q 281 295 294 300 q 264 275 268 290 q 260 226 260 260 q 271 173 260 186 q 325 160 282 160 m 128 838 l 128 849 l 242 1032 l 460 1032 l 578 849 l 578 838 l 425 838 l 351 938 l 279 838 l 128 838 z "},"ấ":{"ha":697,"x_min":39,"x_max":688,"o":"m 218 -11 q 82 41 125 -11 q 39 204 39 93 q 57 333 39 288 q 119 400 75 379 q 246 421 164 421 q 399 415 301 421 l 399 443 q 389 511 399 492 q 353 536 379 531 q 258 542 326 542 q 75 533 178 542 l 75 697 q 331 719 203 719 q 528 690 464 719 q 613 599 593 660 q 633 426 633 539 l 633 0 l 407 0 l 401 81 l 389 81 q 317 8 360 28 q 218 -11 274 -11 m 325 160 q 365 166 350 160 q 388 188 379 172 q 399 265 399 208 l 399 300 l 322 300 q 281 295 294 300 q 264 275 268 290 q 260 226 260 260 q 271 173 260 186 q 325 160 282 160 m 124 838 l 124 849 l 238 1032 l 456 1032 l 574 849 l 574 838 l 421 838 l 347 938 l 275 838 l 124 838 m 365 1068 l 365 1075 l 464 1272 l 688 1272 l 688 1265 l 536 1068 l 365 1068 z "},"ậ":{"ha":697,"x_min":39,"x_max":633,"o":"m 218 -11 q 82 41 125 -11 q 39 204 39 93 q 57 333 39 288 q 119 400 75 379 q 246 421 164 421 q 399 415 301 421 l 399 443 q 389 511 399 492 q 353 536 379 531 q 258 542 326 542 q 75 533 178 542 l 75 697 q 331 719 203 719 q 528 690 464 719 q 613 599 593 660 q 633 426 633 539 l 633 0 l 407 0 l 401 81 l 389 81 q 317 8 360 28 q 218 -11 274 -11 m 325 160 q 365 166 350 160 q 388 188 379 172 q 399 265 399 208 l 399 300 l 322 300 q 281 295 294 300 q 264 275 268 290 q 260 226 260 260 q 271 173 260 186 q 325 160 282 160 m 225 -294 l 225 -86 l 472 -86 l 472 -294 l 225 -294 m 124 838 l 124 849 l 238 1032 l 456 1032 l 574 849 l 574 838 l 421 838 l 347 938 l 275 838 l 124 838 z "},"ầ":{"ha":697,"x_min":39,"x_max":633,"o":"m 218 -11 q 82 41 125 -11 q 39 204 39 93 q 57 333 39 288 q 119 400 75 379 q 246 421 164 421 q 399 415 301 421 l 399 443 q 389 511 399 492 q 353 536 379 531 q 258 542 326 542 q 75 533 178 542 l 75 697 q 331 719 203 719 q 528 690 464 719 q 613 599 593 660 q 633 426 633 539 l 633 0 l 407 0 l 401 81 l 389 81 q 317 8 360 28 q 218 -11 274 -11 m 325 160 q 365 166 350 160 q 388 188 379 172 q 399 265 399 208 l 399 300 l 322 300 q 281 295 294 300 q 264 275 268 290 q 260 226 260 260 q 271 173 260 186 q 325 160 282 160 m 111 838 l 111 849 l 225 1032 l 443 1032 l 561 849 l 561 838 l 408 838 l 335 938 l 263 838 l 111 838 m 413 1068 l 263 1265 l 263 1272 l 486 1272 l 585 1075 l 585 1068 l 413 1068 z "},"ẩ":{"ha":697,"x_min":39,"x_max":696,"o":"m 218 -11 q 82 41 125 -11 q 39 204 39 93 q 57 333 39 288 q 119 400 75 379 q 246 421 164 421 q 399 415 301 421 l 399 443 q 389 511 399 492 q 353 536 379 531 q 258 542 326 542 q 75 533 178 542 l 75 697 q 331 719 203 719 q 528 690 464 719 q 613 599 593 660 q 633 426 633 539 l 633 0 l 407 0 l 401 81 l 389 81 q 317 8 360 28 q 218 -11 274 -11 m 325 160 q 365 166 350 160 q 388 188 379 172 q 399 265 399 208 l 399 300 l 322 300 q 281 295 294 300 q 264 275 268 290 q 260 226 260 260 q 271 173 260 186 q 325 160 282 160 m 124 838 l 124 849 l 238 1032 l 456 1032 l 574 849 l 574 838 l 421 838 l 347 938 l 275 838 l 124 838 m 414 1075 q 426 1137 414 1119 q 476 1165 439 1154 l 496 1172 q 534 1189 525 1182 q 543 1211 543 1196 q 530 1236 543 1231 q 475 1242 517 1242 q 332 1235 399 1242 l 332 1347 q 417 1359 368 1354 q 506 1364 465 1364 q 608 1355 568 1364 q 672 1317 649 1346 q 696 1229 696 1288 q 676 1151 696 1175 q 607 1111 657 1128 l 588 1103 q 549 1085 557 1092 q 542 1060 542 1078 l 414 1060 l 414 1075 z "},"ẫ":{"ha":697,"x_min":39,"x_max":633,"o":"m 218 -11 q 82 41 125 -11 q 39 204 39 93 q 57 333 39 288 q 119 400 75 379 q 246 421 164 421 q 399 415 301 421 l 399 443 q 389 511 399 492 q 353 536 379 531 q 258 542 326 542 q 75 533 178 542 l 75 697 q 331 719 203 719 q 528 690 464 719 q 613 599 593 660 q 633 426 633 539 l 633 0 l 407 0 l 401 81 l 389 81 q 317 8 360 28 q 218 -11 274 -11 m 325 160 q 365 166 350 160 q 388 188 379 172 q 399 265 399 208 l 399 300 l 322 300 q 281 295 294 300 q 264 275 268 290 q 260 226 260 260 q 271 173 260 186 q 325 160 282 160 m 121 838 l 121 849 l 235 1032 l 453 1032 l 571 849 l 571 838 l 418 838 l 344 938 l 272 838 l 121 838 m 599 1272 q 592 1157 599 1196 q 560 1096 586 1118 q 475 1074 533 1074 q 331 1097 422 1074 l 303 1103 q 244 1113 264 1113 q 221 1101 225 1113 q 217 1057 217 1090 l 96 1057 q 102 1172 96 1133 q 135 1233 108 1211 q 221 1256 163 1256 q 292 1249 253 1256 q 365 1233 332 1242 q 450 1218 429 1218 q 475 1228 471 1218 q 479 1272 479 1239 l 599 1272 z "},"ȁ":{"ha":697,"x_min":39,"x_max":633,"o":"m 218 -11 q 82 41 125 -11 q 39 204 39 93 q 57 333 39 288 q 119 400 75 379 q 246 421 164 421 q 399 415 301 421 l 399 443 q 389 511 399 492 q 353 536 379 531 q 258 542 326 542 q 75 533 178 542 l 75 697 q 331 719 203 719 q 528 690 464 719 q 613 599 593 660 q 633 426 633 539 l 633 0 l 407 0 l 401 81 l 389 81 q 317 8 360 28 q 218 -11 274 -11 m 325 160 q 365 166 350 160 q 388 188 379 172 q 399 265 399 208 l 399 300 l 322 300 q 281 295 294 300 q 264 275 268 290 q 260 226 260 260 q 271 173 260 186 q 325 160 282 160 m 313 847 l 171 847 l 49 1008 l 49 1014 l 231 1014 l 313 854 l 313 847 m 547 847 l 408 847 l 285 1008 l 285 1014 l 467 1014 l 547 854 l 547 847 z "},"ä":{"ha":697,"x_min":39,"x_max":633,"o":"m 218 -11 q 82 41 125 -11 q 39 204 39 93 q 57 333 39 288 q 119 400 75 379 q 246 421 164 421 q 399 415 301 421 l 399 443 q 389 511 399 492 q 353 536 379 531 q 258 542 326 542 q 75 533 178 542 l 75 697 q 331 719 203 719 q 528 690 464 719 q 613 599 593 660 q 633 426 633 539 l 633 0 l 407 0 l 401 81 l 389 81 q 317 8 360 28 q 218 -11 274 -11 m 325 160 q 365 166 350 160 q 388 188 379 172 q 399 265 399 208 l 399 300 l 322 300 q 281 295 294 300 q 264 275 268 290 q 260 226 260 260 q 271 173 260 186 q 325 160 282 160 m 121 854 l 121 1011 l 310 1011 l 310 854 l 121 854 m 393 854 l 393 1011 l 583 1011 l 583 854 l 393 854 z "},"ạ":{"ha":697,"x_min":39,"x_max":633,"o":"m 218 -11 q 82 41 125 -11 q 39 204 39 93 q 57 333 39 288 q 119 400 75 379 q 246 421 164 421 q 399 415 301 421 l 399 443 q 389 511 399 492 q 353 536 379 531 q 258 542 326 542 q 75 533 178 542 l 75 697 q 331 719 203 719 q 528 690 464 719 q 613 599 593 660 q 633 426 633 539 l 633 0 l 407 0 l 401 81 l 389 81 q 317 8 360 28 q 218 -11 274 -11 m 325 160 q 365 166 350 160 q 388 188 379 172 q 399 265 399 208 l 399 300 l 322 300 q 281 295 294 300 q 264 275 268 290 q 260 226 260 260 q 271 173 260 186 q 325 160 282 160 m 225 -294 l 225 -86 l 472 -86 l 472 -294 l 225 -294 z "},"à":{"ha":697,"x_min":39,"x_max":633,"o":"m 218 -11 q 82 41 125 -11 q 39 204 39 93 q 57 333 39 288 q 119 400 75 379 q 246 421 164 421 q 399 415 301 421 l 399 443 q 389 511 399 492 q 353 536 379 531 q 258 542 326 542 q 75 533 178 542 l 75 697 q 331 719 203 719 q 528 690 464 719 q 613 599 593 660 q 633 426 633 539 l 633 0 l 407 0 l 401 81 l 389 81 q 317 8 360 28 q 218 -11 274 -11 m 325 160 q 365 166 350 160 q 388 188 379 172 q 399 265 399 208 l 399 300 l 322 300 q 281 295 294 300 q 264 275 268 290 q 260 226 260 260 q 271 173 260 186 q 325 160 282 160 m 275 828 l 125 1025 l 125 1032 l 349 1032 l 447 835 l 447 828 l 275 828 z "},"ả":{"ha":697,"x_min":39,"x_max":633,"o":"m 218 -11 q 82 41 125 -11 q 39 204 39 93 q 57 333 39 288 q 119 400 75 379 q 246 421 164 421 q 399 415 301 421 l 399 443 q 389 511 399 492 q 353 536 379 531 q 258 542 326 542 q 75 533 178 542 l 75 697 q 331 719 203 719 q 528 690 464 719 q 613 599 593 660 q 633 426 633 539 l 633 0 l 407 0 l 401 81 l 389 81 q 317 8 360 28 q 218 -11 274 -11 m 325 160 q 365 166 350 160 q 388 188 379 172 q 399 265 399 208 l 399 300 l 322 300 q 281 295 294 300 q 264 275 268 290 q 260 226 260 260 q 271 173 260 186 q 325 160 282 160 m 247 864 q 260 926 247 908 q 310 954 272 943 l 329 961 q 367 978 358 971 q 376 1000 376 985 q 363 1025 376 1019 q 308 1031 350 1031 q 165 1024 232 1031 l 165 1136 q 250 1148 201 1143 q 339 1153 299 1153 q 442 1144 401 1153 q 506 1106 482 1135 q 529 1018 529 1076 q 510 940 529 964 q 440 900 490 917 l 421 892 q 383 874 390 881 q 375 849 375 867 l 247 849 l 247 864 z "},"ȃ":{"ha":697,"x_min":39,"x_max":633,"o":"m 218 -11 q 82 41 125 -11 q 39 204 39 93 q 57 333 39 288 q 119 400 75 379 q 246 421 164 421 q 399 415 301 421 l 399 443 q 389 511 399 492 q 353 536 379 531 q 258 542 326 542 q 75 533 178 542 l 75 697 q 331 719 203 719 q 528 690 464 719 q 613 599 593 660 q 633 426 633 539 l 633 0 l 407 0 l 401 81 l 389 81 q 317 8 360 28 q 218 -11 274 -11 m 325 160 q 365 166 350 160 q 388 188 379 172 q 399 265 399 208 l 399 300 l 322 300 q 281 295 294 300 q 264 275 268 290 q 260 226 260 260 q 271 173 260 186 q 325 160 282 160 m 144 839 q 160 947 144 904 q 219 1015 175 990 q 349 1039 264 1039 q 477 1015 433 1039 q 535 948 521 990 q 550 839 550 906 l 421 839 q 417 882 421 867 q 399 906 414 897 q 349 915 383 915 q 299 906 314 915 q 279 882 283 897 q 275 839 275 867 l 144 839 z "},"ā":{"ha":697,"x_min":39,"x_max":633,"o":"m 218 -11 q 82 41 125 -11 q 39 204 39 93 q 57 333 39 288 q 119 400 75 379 q 246 421 164 421 q 399 415 301 421 l 399 443 q 389 511 399 492 q 353 536 379 531 q 258 542 326 542 q 75 533 178 542 l 75 697 q 331 719 203 719 q 528 690 464 719 q 613 599 593 660 q 633 426 633 539 l 633 0 l 407 0 l 401 81 l 389 81 q 317 8 360 28 q 218 -11 274 -11 m 325 160 q 365 166 350 160 q 388 188 379 172 q 399 265 399 208 l 399 300 l 322 300 q 281 295 294 300 q 264 275 268 290 q 260 226 260 260 q 271 173 260 186 q 325 160 282 160 m 174 843 l 174 1032 l 522 1032 l 522 843 l 174 843 z "},"ą":{"ha":697,"x_min":39,"x_max":633,"o":"m 633 0 q 576 -47 601 -15 q 551 -110 551 -78 q 611 -156 551 -156 q 632 -154 624 -156 l 632 -267 q 538 -272 576 -272 q 406 -239 446 -272 q 367 -154 367 -206 q 451 0 367 -78 l 407 0 l 401 81 l 389 81 q 317 8 360 28 q 218 -11 274 -11 q 82 41 125 -11 q 39 204 39 93 q 57 333 39 288 q 119 400 75 379 q 246 421 164 421 q 399 415 301 421 l 399 443 q 389 511 399 492 q 353 536 379 531 q 258 542 326 542 q 75 533 183 542 l 75 697 q 331 719 203 719 q 528 690 464 719 q 613 599 593 660 q 633 426 633 539 l 633 0 m 399 300 l 322 300 q 281 295 294 300 q 264 275 268 290 q 260 226 260 260 q 271 173 260 186 q 325 160 282 160 q 365 166 350 160 q 388 188 379 172 q 399 265 399 208 l 399 300 z "},"å":{"ha":697,"x_min":39,"x_max":633,"o":"m 218 -11 q 82 41 125 -11 q 39 204 39 93 q 57 333 39 288 q 119 400 75 379 q 246 421 164 421 q 399 415 301 421 l 399 443 q 389 511 399 492 q 353 536 379 531 q 258 542 326 542 q 75 533 178 542 l 75 697 q 331 719 203 719 q 528 690 464 719 q 613 599 593 660 q 633 426 633 539 l 633 0 l 407 0 l 401 81 l 389 81 q 317 8 360 28 q 218 -11 274 -11 m 325 160 q 365 166 350 160 q 388 188 379 172 q 399 265 399 208 l 399 300 l 322 300 q 281 295 294 300 q 264 275 268 290 q 260 226 260 260 q 271 173 260 186 q 325 160 282 160 m 353 807 q 223 822 264 807 q 170 869 182 838 q 158 967 158 901 q 170 1065 158 1032 q 223 1113 182 1097 q 353 1129 264 1129 q 483 1113 442 1129 q 538 1065 525 1097 q 550 967 550 1032 q 538 870 550 903 q 483 822 525 838 q 353 807 442 807 m 353 903 q 401 908 388 903 q 419 926 415 914 q 422 967 422 938 q 419 1010 422 997 q 401 1028 415 1022 q 353 1033 388 1033 q 306 1028 319 1033 q 288 1009 292 1022 q 285 967 285 996 q 288 926 285 938 q 306 908 292 914 q 353 903 319 903 z "},"ǻ":{"ha":697,"x_min":39,"x_max":633,"o":"m 218 -11 q 82 41 125 -11 q 39 204 39 93 q 57 333 39 288 q 119 400 75 379 q 246 421 164 421 q 399 415 301 421 l 399 443 q 389 511 399 492 q 353 536 379 531 q 258 542 326 542 q 75 533 178 542 l 75 697 q 331 719 203 719 q 528 690 464 719 q 613 599 593 660 q 633 426 633 539 l 633 0 l 407 0 l 401 81 l 389 81 q 317 8 360 28 q 218 -11 274 -11 m 325 160 q 365 166 350 160 q 388 188 379 172 q 399 265 399 208 l 399 300 l 322 300 q 281 295 294 300 q 264 275 268 290 q 260 226 260 260 q 271 173 260 186 q 325 160 282 160 m 347 832 q 217 847 258 832 q 165 894 176 863 q 153 992 153 926 q 165 1090 153 1057 q 217 1138 176 1122 q 347 1154 258 1154 q 478 1138 436 1154 q 532 1090 519 1122 q 544 992 544 1057 q 532 895 544 928 q 478 847 519 863 q 347 832 436 832 m 347 928 q 396 933 382 928 q 413 951 410 939 q 417 992 417 963 q 413 1035 417 1022 q 396 1053 410 1047 q 347 1058 382 1058 q 300 1053 314 1058 q 283 1034 286 1047 q 279 992 279 1021 q 283 951 279 963 q 300 933 286 939 q 347 928 314 928 m 263 1190 l 263 1197 l 361 1394 l 585 1394 l 585 1388 l 433 1190 l 263 1190 z "},"ã":{"ha":697,"x_min":39,"x_max":633,"o":"m 218 -11 q 82 41 125 -11 q 39 204 39 93 q 57 333 39 288 q 119 400 75 379 q 246 421 164 421 q 399 415 301 421 l 399 443 q 389 511 399 492 q 353 536 379 531 q 258 542 326 542 q 75 533 178 542 l 75 697 q 331 719 203 719 q 528 690 464 719 q 613 599 593 660 q 633 426 633 539 l 633 0 l 407 0 l 401 81 l 389 81 q 317 8 360 28 q 218 -11 274 -11 m 325 160 q 365 166 350 160 q 388 188 379 172 q 399 265 399 208 l 399 300 l 322 300 q 281 295 294 300 q 264 275 268 290 q 260 226 260 260 q 271 173 260 186 q 325 160 282 160 m 600 1032 q 594 917 600 956 q 561 856 588 878 q 476 833 535 833 q 332 857 424 833 l 304 863 q 246 872 265 872 q 222 862 226 872 q 218 817 218 851 l 97 817 q 103 932 97 893 q 137 993 110 971 q 222 1015 164 1015 q 294 1008 254 1015 q 367 993 333 1001 q 451 978 431 978 q 476 988 472 978 q 481 1032 481 999 l 600 1032 z "},"æ":{"ha":1044,"x_min":39,"x_max":994,"o":"m 994 299 l 633 299 q 642 207 633 232 q 678 174 650 182 q 781 167 706 167 q 972 175 839 167 l 972 13 q 863 -4 932 3 q 726 -11 793 -11 q 583 3 639 -11 q 494 46 526 17 q 395 1 450 13 q 269 -11 340 -11 q 128 11 178 -11 q 58 80 78 33 q 39 204 39 126 q 57 333 39 288 q 119 400 75 379 q 246 421 164 421 q 397 415 322 421 l 397 443 q 388 512 397 493 q 353 536 379 531 q 257 542 326 542 q 75 533 169 542 l 75 697 q 317 719 200 719 q 519 668 451 719 q 719 719 588 719 q 910 685 853 719 q 981 581 968 650 q 994 353 994 511 l 994 299 m 704 553 q 657 544 671 553 q 638 510 643 536 q 633 418 633 483 l 775 418 q 770 510 775 483 q 751 545 765 538 q 704 553 738 553 m 397 299 l 321 299 q 281 294 293 299 q 263 274 268 289 q 258 225 258 258 q 270 170 258 183 q 325 157 282 157 q 371 167 356 157 q 392 199 386 176 q 397 264 397 221 l 397 299 z "},"ǽ":{"ha":1044,"x_min":39,"x_max":994,"o":"m 994 299 l 633 299 q 642 207 633 232 q 678 174 650 182 q 781 167 706 167 q 972 175 839 167 l 972 13 q 863 -4 932 3 q 726 -11 793 -11 q 583 3 639 -11 q 494 46 526 17 q 395 1 450 13 q 269 -11 340 -11 q 128 11 178 -11 q 58 80 78 33 q 39 204 39 126 q 57 333 39 288 q 119 400 75 379 q 246 421 164 421 q 397 415 322 421 l 397 443 q 388 512 397 493 q 353 536 379 531 q 257 542 326 542 q 75 533 169 542 l 75 697 q 317 719 200 719 q 519 668 451 719 q 719 719 588 719 q 910 685 853 719 q 981 581 968 650 q 994 353 994 511 l 994 299 m 704 553 q 657 544 671 553 q 638 510 643 536 q 633 418 633 483 l 775 418 q 770 510 775 483 q 751 545 765 538 q 704 553 738 553 m 397 299 l 321 299 q 281 294 293 299 q 263 274 268 289 q 258 225 258 258 q 270 170 258 183 q 325 157 282 157 q 371 167 356 157 q 392 199 386 176 q 397 264 397 221 l 397 299 m 433 828 l 433 835 l 532 1032 l 756 1032 l 756 1025 l 604 828 l 433 828 z "},"b":{"ha":724,"x_min":65,"x_max":676,"o":"m 476 -11 q 308 82 349 -11 l 296 82 l 290 0 l 65 0 l 65 1032 l 300 1032 l 300 635 l 311 635 q 377 701 336 682 q 476 719 418 719 q 594 686 551 719 q 657 574 638 653 q 676 353 676 494 q 656 130 676 208 q 594 20 636 51 q 476 -11 551 -11 m 371 182 q 420 191 407 182 q 438 233 433 200 q 442 354 442 265 q 438 476 442 443 q 420 517 433 508 q 371 526 407 526 q 328 520 342 526 q 308 493 315 514 q 300 354 300 461 q 301 273 300 308 q 308 219 303 238 q 328 189 314 196 q 371 182 342 182 z "},"c":{"ha":567,"x_min":46,"x_max":524,"o":"m 524 13 q 328 -11 429 -11 q 140 30 200 -11 q 63 144 79 71 q 46 354 46 218 q 63 563 46 489 q 141 678 81 638 q 328 719 201 719 q 519 697 431 719 l 519 533 q 393 542 453 542 q 319 529 340 542 q 290 480 297 517 q 283 354 283 443 q 290 227 283 264 q 319 178 297 190 q 394 167 340 167 q 524 175 464 167 l 524 13 z "},"ć":{"ha":567,"x_min":46,"x_max":524,"o":"m 524 13 q 328 -11 429 -11 q 140 30 200 -11 q 63 144 79 71 q 46 354 46 218 q 63 563 46 489 q 141 678 81 638 q 328 719 201 719 q 519 697 431 719 l 519 533 q 393 542 453 542 q 319 529 340 542 q 290 480 297 517 q 283 354 283 443 q 290 227 283 264 q 319 178 297 190 q 394 167 340 167 q 524 175 464 167 l 524 13 m 194 828 l 194 835 l 293 1032 l 517 1032 l 517 1025 l 365 828 l 194 828 z "},"č":{"ha":567,"x_min":46,"x_max":524,"o":"m 524 13 q 328 -11 429 -11 q 140 30 200 -11 q 63 144 79 71 q 46 354 46 218 q 63 563 46 489 q 141 678 81 638 q 328 719 201 719 q 519 697 431 719 l 519 533 q 393 542 453 542 q 319 529 340 542 q 290 480 297 517 q 283 354 283 443 q 290 227 283 264 q 319 178 297 190 q 394 167 340 167 q 524 175 464 167 l 524 13 m 174 838 l 58 1021 l 58 1032 l 211 1032 l 285 932 l 357 1032 l 508 1032 l 508 1021 l 392 838 l 174 838 z "},"ç":{"ha":567,"x_min":46,"x_max":524,"o":"m 524 13 q 360 -11 444 -7 l 314 -262 l 108 -262 l 108 -256 l 206 1 q 100 65 135 19 q 56 177 65 111 q 46 354 46 243 q 63 563 46 489 q 141 678 81 638 q 328 719 201 719 q 519 697 431 719 l 519 533 q 393 542 453 542 q 319 529 340 542 q 290 480 297 517 q 283 354 283 443 q 290 227 283 264 q 319 178 297 190 q 394 167 340 167 q 524 175 464 167 l 524 13 z "},"ĉ":{"ha":567,"x_min":46,"x_max":524,"o":"m 524 13 q 328 -11 429 -11 q 140 30 200 -11 q 63 144 79 71 q 46 354 46 218 q 63 563 46 489 q 141 678 81 638 q 328 719 201 719 q 519 697 431 719 l 519 533 q 393 542 453 542 q 319 529 340 542 q 290 480 297 517 q 283 354 283 443 q 290 227 283 264 q 319 178 297 190 q 394 167 340 167 q 524 175 464 167 l 524 13 m 58 838 l 58 849 l 172 1032 l 390 1032 l 508 849 l 508 838 l 356 838 l 282 938 l 210 838 l 58 838 z "},"ċ":{"ha":567,"x_min":46,"x_max":524,"o":"m 524 13 q 328 -11 429 -11 q 140 30 200 -11 q 63 144 79 71 q 46 354 46 218 q 63 563 46 489 q 141 678 81 638 q 328 719 201 719 q 519 697 431 719 l 519 533 q 393 542 453 542 q 319 529 340 542 q 290 480 297 517 q 283 354 283 443 q 290 227 283 264 q 319 178 297 190 q 394 167 340 167 q 524 175 464 167 l 524 13 m 189 857 l 189 1014 l 378 1014 l 378 857 l 189 857 z "},"d":{"ha":724,"x_min":46,"x_max":658,"o":"m 246 -11 q 128 20 171 -11 q 66 130 86 51 q 46 353 46 208 q 65 574 46 494 q 128 686 85 653 q 246 719 171 719 q 345 701 304 719 q 411 635 386 682 l 424 635 l 424 1032 l 658 1032 l 658 0 l 433 0 l 428 82 l 414 82 q 347 9 390 29 q 246 -11 304 -11 m 353 182 q 397 190 383 182 q 415 224 410 197 q 424 354 424 260 q 418 475 424 440 q 399 517 413 507 q 353 526 385 526 q 302 517 315 526 q 285 476 289 508 q 281 354 281 443 q 285 233 281 265 q 302 191 289 200 q 353 182 315 182 z "},"ð":{"ha":708,"x_min":46,"x_max":660,"o":"m 354 -11 q 144 20 208 -11 q 63 123 81 51 q 46 353 46 194 q 61 569 46 494 q 124 682 76 644 q 272 719 172 719 q 379 704 326 719 l 386 710 q 346 815 371 763 l 189 794 l 189 922 l 272 933 q 188 1026 239 975 l 188 1032 l 435 1032 q 493 964 457 1011 l 649 986 l 649 858 l 572 846 q 643 611 619 751 q 660 357 660 515 q 642 124 660 196 q 562 21 625 53 q 354 -11 499 -11 m 353 167 q 406 177 392 167 q 423 222 419 188 q 426 354 426 257 q 423 484 426 450 q 405 530 419 518 q 353 542 390 542 q 301 531 314 542 q 284 487 288 521 q 281 354 281 453 q 284 222 281 256 q 301 177 288 188 q 353 167 314 167 z "},"ď":{"ha":846,"x_min":46,"x_max":925,"o":"m 246 -11 q 128 20 171 -11 q 66 130 86 51 q 46 353 46 208 q 65 574 46 494 q 128 686 85 653 q 246 719 171 719 q 345 701 304 719 q 411 635 386 682 l 424 635 l 424 1032 l 658 1032 l 658 0 l 433 0 l 428 82 l 414 82 q 347 9 390 29 q 246 -11 304 -11 m 353 182 q 397 190 383 182 q 415 224 410 197 q 424 354 424 260 q 418 475 424 440 q 399 517 413 507 q 353 526 385 526 q 302 517 315 526 q 285 476 289 508 q 281 354 281 443 q 285 233 281 265 q 302 191 289 200 q 353 182 315 182 m 699 590 l 717 885 l 717 956 l 925 956 l 925 885 l 860 590 l 699 590 z "},"đ":{"ha":724,"x_min":46,"x_max":725,"o":"m 725 788 l 658 788 l 658 0 l 433 0 l 428 82 l 414 82 q 347 9 390 29 q 246 -11 304 -11 q 128 20 171 -11 q 66 130 86 51 q 46 353 46 208 q 65 574 46 494 q 128 686 85 653 q 246 719 171 719 q 345 701 304 719 q 411 635 386 682 l 424 635 l 424 788 l 275 788 l 275 956 l 424 956 l 424 1032 l 658 1032 l 658 956 l 725 956 l 725 788 m 415 224 q 424 354 424 260 q 418 475 424 440 q 399 517 413 507 q 353 526 385 526 q 302 517 315 526 q 285 476 289 508 q 281 354 281 443 q 285 233 281 265 q 302 191 289 200 q 353 182 315 182 q 397 190 383 182 q 415 224 410 197 z "},"ḍ":{"ha":724,"x_min":46,"x_max":658,"o":"m 246 -11 q 128 20 171 -11 q 66 130 86 51 q 46 353 46 208 q 65 574 46 494 q 128 686 85 653 q 246 719 171 719 q 345 701 304 719 q 411 635 386 682 l 424 635 l 424 1032 l 658 1032 l 658 0 l 433 0 l 428 82 l 414 82 q 347 9 390 29 q 246 -11 304 -11 m 353 182 q 397 190 383 182 q 415 224 410 197 q 424 354 424 260 q 418 475 424 440 q 399 517 413 507 q 353 526 385 526 q 302 517 315 526 q 285 476 289 508 q 281 354 281 443 q 285 233 281 265 q 302 191 289 200 q 353 182 315 182 m 238 -294 l 238 -86 l 485 -86 l 485 -294 l 238 -294 z "},"ǳ":{"ha":1376,"x_min":46,"x_max":1328,"o":"m 246 -11 q 128 20 171 -11 q 66 130 86 51 q 46 353 46 208 q 65 574 46 494 q 128 686 85 653 q 246 719 171 719 q 345 701 304 719 q 411 635 386 682 l 424 635 l 424 1032 l 658 1032 l 658 0 l 433 0 l 428 82 l 414 82 q 347 9 390 29 q 246 -11 304 -11 m 353 182 q 397 190 383 182 q 415 224 410 197 q 424 354 424 260 q 418 475 424 440 q 399 517 413 507 q 353 526 385 526 q 302 517 315 526 q 285 476 289 508 q 281 354 281 443 q 285 233 281 265 q 302 191 289 200 q 353 182 315 182 m 772 0 l 772 167 l 1039 531 l 785 531 l 785 708 l 1325 708 l 1325 542 l 1058 178 l 1328 178 l 1328 0 l 772 0 z "},"ǆ":{"ha":1376,"x_min":46,"x_max":1328,"o":"m 246 -11 q 128 20 171 -11 q 66 130 86 51 q 46 353 46 208 q 65 574 46 494 q 128 686 85 653 q 246 719 171 719 q 345 701 304 719 q 411 635 386 682 l 424 635 l 424 1032 l 658 1032 l 658 0 l 433 0 l 428 82 l 414 82 q 347 9 390 29 q 246 -11 304 -11 m 353 182 q 397 190 383 182 q 415 224 410 197 q 424 354 424 260 q 418 475 424 440 q 399 517 413 507 q 353 526 385 526 q 302 517 315 526 q 285 476 289 508 q 281 354 281 443 q 285 233 281 265 q 302 191 289 200 q 353 182 315 182 m 772 0 l 772 167 l 1039 531 l 785 531 l 785 708 l 1325 708 l 1325 542 l 1058 178 l 1328 178 l 1328 0 l 772 0 m 936 838 l 821 1021 l 821 1032 l 974 1032 l 1047 932 l 1119 1032 l 1271 1032 l 1271 1021 l 1154 838 l 936 838 z "},"e":{"ha":689,"x_min":46,"x_max":639,"o":"m 639 299 l 278 299 q 286 206 278 231 q 322 174 294 181 q 426 167 350 167 q 617 175 481 167 l 617 13 q 508 -4 578 3 q 371 -11 439 -11 q 151 25 219 -11 q 64 133 82 61 q 46 353 46 204 q 64 573 46 500 q 146 683 82 646 q 350 719 210 719 q 551 685 490 719 q 625 582 611 651 q 639 353 639 513 l 639 299 m 350 553 q 302 544 317 553 q 283 509 288 536 q 278 418 278 482 l 421 418 q 416 510 421 483 q 397 545 411 538 q 350 553 383 553 z "},"é":{"ha":689,"x_min":46,"x_max":639,"o":"m 639 299 l 278 299 q 286 206 278 231 q 322 174 294 181 q 426 167 350 167 q 617 175 481 167 l 617 13 q 508 -4 578 3 q 371 -11 439 -11 q 151 25 219 -11 q 64 133 82 61 q 46 353 46 204 q 64 573 46 500 q 146 683 82 646 q 350 719 210 719 q 551 685 490 719 q 625 582 611 651 q 639 353 639 513 l 639 299 m 350 553 q 302 544 317 553 q 283 509 288 536 q 278 418 278 482 l 421 418 q 416 510 421 483 q 397 545 411 538 q 350 553 383 553 m 264 828 l 264 835 l 363 1032 l 586 1032 l 586 1025 l 435 828 l 264 828 z "},"ĕ":{"ha":689,"x_min":46,"x_max":639,"o":"m 639 299 l 278 299 q 286 206 278 231 q 322 174 294 181 q 426 167 350 167 q 617 175 481 167 l 617 13 q 508 -4 578 3 q 371 -11 439 -11 q 151 25 219 -11 q 64 133 82 61 q 46 353 46 204 q 64 573 46 500 q 146 683 82 646 q 350 719 210 719 q 551 685 490 719 q 625 582 611 651 q 639 353 639 513 l 639 299 m 350 553 q 302 544 317 553 q 283 509 288 536 q 278 418 278 482 l 421 418 q 416 510 421 483 q 397 545 411 538 q 350 553 383 553 m 547 1032 q 532 924 547 967 q 472 856 517 881 q 343 832 428 832 q 215 856 258 832 q 156 923 171 881 q 142 1032 142 965 l 271 1032 q 274 989 271 1004 q 293 965 278 974 q 343 956 308 956 q 393 965 378 956 q 413 989 408 974 q 417 1032 417 1004 l 547 1032 z "},"ě":{"ha":689,"x_min":46,"x_max":639,"o":"m 639 299 l 278 299 q 286 206 278 231 q 322 174 294 181 q 426 167 350 167 q 617 175 481 167 l 617 13 q 508 -4 578 3 q 371 -11 439 -11 q 151 25 219 -11 q 64 133 82 61 q 46 353 46 204 q 64 573 46 500 q 146 683 82 646 q 350 719 210 719 q 551 685 490 719 q 625 582 611 651 q 639 353 639 513 l 639 299 m 350 553 q 302 544 317 553 q 283 509 288 536 q 278 418 278 482 l 421 418 q 416 510 421 483 q 397 545 411 538 q 350 553 383 553 m 235 838 l 119 1021 l 119 1032 l 272 1032 l 346 932 l 418 1032 l 569 1032 l 569 1021 l 453 838 l 235 838 z "},"ê":{"ha":689,"x_min":46,"x_max":639,"o":"m 639 299 l 278 299 q 286 206 278 231 q 322 174 294 181 q 426 167 350 167 q 617 175 481 167 l 617 13 q 508 -4 578 3 q 371 -11 439 -11 q 151 25 219 -11 q 64 133 82 61 q 46 353 46 204 q 64 573 46 500 q 146 683 82 646 q 350 719 210 719 q 551 685 490 719 q 625 582 611 651 q 639 353 639 513 l 639 299 m 350 553 q 302 544 317 553 q 283 509 288 536 q 278 418 278 482 l 421 418 q 416 510 421 483 q 397 545 411 538 q 350 553 383 553 m 132 838 l 132 849 l 246 1032 l 464 1032 l 582 849 l 582 838 l 429 838 l 356 938 l 283 838 l 132 838 z "},"ế":{"ha":689,"x_min":46,"x_max":683,"o":"m 639 299 l 278 299 q 286 206 278 231 q 322 174 294 181 q 426 167 350 167 q 617 175 481 167 l 617 13 q 508 -4 578 3 q 371 -11 439 -11 q 151 25 219 -11 q 64 133 82 61 q 46 353 46 204 q 64 573 46 500 q 146 683 82 646 q 350 719 210 719 q 551 685 490 719 q 625 582 611 651 q 639 353 639 513 l 639 299 m 350 553 q 302 544 317 553 q 283 509 288 536 q 278 418 278 482 l 421 418 q 416 510 421 483 q 397 545 411 538 q 350 553 383 553 m 119 838 l 119 849 l 233 1032 l 451 1032 l 569 849 l 569 838 l 417 838 l 343 938 l 271 838 l 119 838 m 361 1068 l 361 1075 l 460 1272 l 683 1272 l 683 1265 l 532 1068 l 361 1068 z "},"ệ":{"ha":689,"x_min":46,"x_max":639,"o":"m 639 299 l 278 299 q 286 206 278 231 q 322 174 294 181 q 426 167 350 167 q 617 175 481 167 l 617 13 q 508 -4 578 3 q 371 -11 439 -11 q 151 25 219 -11 q 64 133 82 61 q 46 353 46 204 q 64 573 46 500 q 146 683 82 646 q 350 719 210 719 q 551 685 490 719 q 625 582 611 651 q 639 353 639 513 l 639 299 m 350 553 q 302 544 317 553 q 283 509 288 536 q 278 418 278 482 l 421 418 q 416 510 421 483 q 397 545 411 538 q 350 553 383 553 m 221 -294 l 221 -86 l 468 -86 l 468 -294 l 221 -294 m 119 838 l 119 849 l 233 1032 l 451 1032 l 569 849 l 569 838 l 417 838 l 343 938 l 271 838 l 119 838 z "},"ề":{"ha":689,"x_min":46,"x_max":639,"o":"m 639 299 l 278 299 q 286 206 278 231 q 322 174 294 181 q 426 167 350 167 q 617 175 481 167 l 617 13 q 508 -4 578 3 q 371 -11 439 -11 q 151 25 219 -11 q 64 133 82 61 q 46 353 46 204 q 64 573 46 500 q 146 683 82 646 q 350 719 210 719 q 551 685 490 719 q 625 582 611 651 q 639 353 639 513 l 639 299 m 350 553 q 302 544 317 553 q 283 509 288 536 q 278 418 278 482 l 421 418 q 416 510 421 483 q 397 545 411 538 q 350 553 383 553 m 107 838 l 107 849 l 221 1032 l 439 1032 l 557 849 l 557 838 l 404 838 l 331 938 l 258 838 l 107 838 m 408 1068 l 258 1265 l 258 1272 l 482 1272 l 581 1075 l 581 1068 l 408 1068 z "},"ể":{"ha":689,"x_min":46,"x_max":692,"o":"m 639 299 l 278 299 q 286 206 278 231 q 322 174 294 181 q 426 167 350 167 q 617 175 481 167 l 617 13 q 508 -4 578 3 q 371 -11 439 -11 q 151 25 219 -11 q 64 133 82 61 q 46 353 46 204 q 64 573 46 500 q 146 683 82 646 q 350 719 210 719 q 551 685 490 719 q 625 582 611 651 q 639 353 639 513 l 639 299 m 350 553 q 302 544 317 553 q 283 509 288 536 q 278 418 278 482 l 421 418 q 416 510 421 483 q 397 545 411 538 q 350 553 383 553 m 119 838 l 119 849 l 233 1032 l 451 1032 l 569 849 l 569 838 l 417 838 l 343 938 l 271 838 l 119 838 m 410 1075 q 422 1137 410 1119 q 472 1165 435 1154 l 492 1172 q 530 1189 521 1182 q 539 1211 539 1196 q 526 1236 539 1231 q 471 1242 513 1242 q 328 1235 394 1242 l 328 1347 q 413 1359 364 1354 q 501 1364 461 1364 q 604 1355 564 1364 q 668 1317 644 1346 q 692 1229 692 1288 q 672 1151 692 1175 q 603 1111 653 1128 l 583 1103 q 545 1085 553 1092 q 538 1060 538 1078 l 410 1060 l 410 1075 z "},"ễ":{"ha":689,"x_min":46,"x_max":639,"o":"m 639 299 l 278 299 q 286 206 278 231 q 322 174 294 181 q 426 167 350 167 q 617 175 481 167 l 617 13 q 508 -4 578 3 q 371 -11 439 -11 q 151 25 219 -11 q 64 133 82 61 q 46 353 46 204 q 64 573 46 500 q 146 683 82 646 q 350 719 210 719 q 551 685 490 719 q 625 582 611 651 q 639 353 639 513 l 639 299 m 350 553 q 302 544 317 553 q 283 509 288 536 q 278 418 278 482 l 421 418 q 416 510 421 483 q 397 545 411 538 q 350 553 383 553 m 117 838 l 117 849 l 231 1032 l 449 1032 l 567 849 l 567 838 l 414 838 l 340 938 l 268 838 l 117 838 m 594 1272 q 588 1157 594 1196 q 556 1096 582 1118 q 471 1074 529 1074 q 326 1097 418 1074 l 299 1103 q 240 1113 260 1113 q 217 1101 221 1113 q 213 1057 213 1090 l 92 1057 q 98 1172 92 1133 q 131 1233 104 1211 q 217 1256 158 1256 q 288 1249 249 1256 q 361 1233 328 1242 q 446 1218 425 1218 q 471 1228 467 1218 q 475 1272 475 1239 l 594 1272 z "},"ȅ":{"ha":689,"x_min":44,"x_max":639,"o":"m 639 299 l 278 299 q 286 206 278 231 q 322 174 294 181 q 426 167 350 167 q 617 175 481 167 l 617 13 q 508 -4 578 3 q 371 -11 439 -11 q 151 25 219 -11 q 64 133 82 61 q 46 353 46 204 q 64 573 46 500 q 146 683 82 646 q 350 719 210 719 q 551 685 490 719 q 625 582 611 651 q 639 353 639 513 l 639 299 m 350 553 q 302 544 317 553 q 283 509 288 536 q 278 418 278 482 l 421 418 q 416 510 421 483 q 397 545 411 538 q 350 553 383 553 m 308 847 l 167 847 l 44 1008 l 44 1014 l 226 1014 l 308 854 l 308 847 m 543 847 l 404 847 l 281 1008 l 281 1014 l 463 1014 l 543 854 l 543 847 z "},"ë":{"ha":689,"x_min":46,"x_max":639,"o":"m 639 299 l 278 299 q 286 206 278 231 q 322 174 294 181 q 426 167 350 167 q 617 175 481 167 l 617 13 q 508 -4 578 3 q 371 -11 439 -11 q 151 25 219 -11 q 64 133 82 61 q 46 353 46 204 q 64 573 46 500 q 146 683 82 646 q 350 719 210 719 q 551 685 490 719 q 625 582 611 651 q 639 353 639 513 l 639 299 m 350 553 q 302 544 317 553 q 283 509 288 536 q 278 418 278 482 l 421 418 q 416 510 421 483 q 397 545 411 538 q 350 553 383 553 m 125 854 l 125 1011 l 314 1011 l 314 854 l 125 854 m 397 854 l 397 1011 l 588 1011 l 588 854 l 397 854 z "},"ė":{"ha":689,"x_min":46,"x_max":639,"o":"m 639 299 l 278 299 q 286 206 278 231 q 322 174 294 181 q 426 167 350 167 q 617 175 481 167 l 617 13 q 508 -4 578 3 q 371 -11 439 -11 q 151 25 219 -11 q 64 133 82 61 q 46 353 46 204 q 64 573 46 500 q 146 683 82 646 q 350 719 210 719 q 551 685 490 719 q 625 582 611 651 q 639 353 639 513 l 639 299 m 350 553 q 302 544 317 553 q 283 509 288 536 q 278 418 278 482 l 421 418 q 416 510 421 483 q 397 545 411 538 q 350 553 383 553 m 250 857 l 250 1014 l 439 1014 l 439 857 l 250 857 z "},"ẹ":{"ha":689,"x_min":46,"x_max":639,"o":"m 639 299 l 278 299 q 286 206 278 231 q 322 174 294 181 q 426 167 350 167 q 617 175 481 167 l 617 13 q 508 -4 578 3 q 371 -11 439 -11 q 151 25 219 -11 q 64 133 82 61 q 46 353 46 204 q 64 573 46 500 q 146 683 82 646 q 350 719 210 719 q 551 685 490 719 q 625 582 611 651 q 639 353 639 513 l 639 299 m 350 553 q 302 544 317 553 q 283 509 288 536 q 278 418 278 482 l 421 418 q 416 510 421 483 q 397 545 411 538 q 350 553 383 553 m 221 -294 l 221 -86 l 468 -86 l 468 -294 l 221 -294 z "},"è":{"ha":689,"x_min":46,"x_max":639,"o":"m 639 299 l 278 299 q 286 206 278 231 q 322 174 294 181 q 426 167 350 167 q 617 175 481 167 l 617 13 q 508 -4 578 3 q 371 -11 439 -11 q 151 25 219 -11 q 64 133 82 61 q 46 353 46 204 q 64 573 46 500 q 146 683 82 646 q 350 719 210 719 q 551 685 490 719 q 625 582 611 651 q 639 353 639 513 l 639 299 m 350 553 q 302 544 317 553 q 283 509 288 536 q 278 418 278 482 l 421 418 q 416 510 421 483 q 397 545 411 538 q 350 553 383 553 m 278 828 l 128 1025 l 128 1032 l 351 1032 l 450 835 l 450 828 l 278 828 z "},"ẻ":{"ha":689,"x_min":46,"x_max":639,"o":"m 639 299 l 278 299 q 286 206 278 231 q 322 174 294 181 q 426 167 350 167 q 617 175 481 167 l 617 13 q 508 -4 578 3 q 371 -11 439 -11 q 151 25 219 -11 q 64 133 82 61 q 46 353 46 204 q 64 573 46 500 q 146 683 82 646 q 350 719 210 719 q 551 685 490 719 q 625 582 611 651 q 639 353 639 513 l 639 299 m 350 553 q 302 544 317 553 q 283 509 288 536 q 278 418 278 482 l 421 418 q 416 510 421 483 q 397 545 411 538 q 350 553 383 553 m 243 864 q 256 926 243 908 q 306 954 268 943 l 325 961 q 363 978 354 971 q 372 1000 372 985 q 359 1025 372 1019 q 304 1031 346 1031 q 161 1024 228 1031 l 161 1136 q 246 1148 197 1143 q 335 1153 294 1153 q 438 1144 397 1153 q 501 1106 478 1135 q 525 1018 525 1076 q 506 940 525 964 q 436 900 486 917 l 417 892 q 378 874 386 881 q 371 849 371 867 l 243 849 l 243 864 z "},"ȇ":{"ha":689,"x_min":46,"x_max":639,"o":"m 639 299 l 278 299 q 286 206 278 231 q 322 174 294 181 q 426 167 350 167 q 617 175 481 167 l 617 13 q 508 -4 578 3 q 371 -11 439 -11 q 151 25 219 -11 q 64 133 82 61 q 46 353 46 204 q 64 573 46 500 q 146 683 82 646 q 350 719 210 719 q 551 685 490 719 q 625 582 611 651 q 639 353 639 513 l 639 299 m 350 553 q 302 544 317 553 q 283 509 288 536 q 278 418 278 482 l 421 418 q 416 510 421 483 q 397 545 411 538 q 350 553 383 553 m 140 839 q 156 947 140 904 q 215 1015 171 990 q 344 1039 260 1039 q 473 1015 429 1039 q 531 948 517 990 q 546 839 546 906 l 417 839 q 413 882 417 867 q 394 906 410 897 q 344 915 379 915 q 294 906 310 915 q 275 882 279 897 q 271 839 271 867 l 140 839 z "},"ē":{"ha":689,"x_min":46,"x_max":639,"o":"m 639 299 l 278 299 q 286 206 278 231 q 322 174 294 181 q 426 167 350 167 q 617 175 481 167 l 617 13 q 508 -4 578 3 q 371 -11 439 -11 q 151 25 219 -11 q 64 133 82 61 q 46 353 46 204 q 64 573 46 500 q 146 683 82 646 q 350 719 210 719 q 551 685 490 719 q 625 582 611 651 q 639 353 639 513 l 639 299 m 350 553 q 302 544 317 553 q 283 509 288 536 q 278 418 278 482 l 421 418 q 416 510 421 483 q 397 545 411 538 q 350 553 383 553 m 169 843 l 169 1032 l 518 1032 l 518 843 l 169 843 z "},"ę":{"ha":689,"x_min":46,"x_max":639,"o":"m 639 299 l 278 299 q 286 206 278 231 q 322 174 294 181 q 426 167 350 167 q 617 175 481 167 l 617 13 q 538 -42 574 -8 q 501 -111 501 -75 q 561 -156 501 -156 q 582 -154 574 -156 l 582 -267 q 488 -272 535 -272 q 356 -240 396 -272 q 317 -157 317 -207 q 403 -11 317 -83 l 371 -11 q 151 25 219 -11 q 64 133 82 61 q 46 353 46 204 q 64 573 46 500 q 146 683 82 646 q 350 719 210 719 q 551 685 490 719 q 625 582 611 651 q 639 353 639 513 l 639 299 m 350 553 q 302 544 317 553 q 283 509 288 536 q 278 418 278 482 l 421 418 q 416 510 421 483 q 397 545 411 538 q 350 553 383 553 z "},"ẽ":{"ha":689,"x_min":46,"x_max":639,"o":"m 639 299 l 278 299 q 286 206 278 231 q 322 174 294 181 q 426 167 350 167 q 617 175 481 167 l 617 13 q 508 -4 578 3 q 371 -11 439 -11 q 151 25 219 -11 q 64 133 82 61 q 46 353 46 204 q 64 573 46 500 q 146 683 82 646 q 350 719 210 719 q 551 685 490 719 q 625 582 611 651 q 639 353 639 513 l 639 299 m 350 553 q 302 544 317 553 q 283 509 288 536 q 278 418 278 482 l 421 418 q 416 510 421 483 q 397 545 411 538 q 350 553 383 553 m 594 1032 q 588 917 594 956 q 556 856 582 878 q 471 833 529 833 q 326 857 418 833 l 299 863 q 240 872 260 872 q 217 861 221 872 q 213 817 213 850 l 92 817 q 98 932 92 893 q 131 993 104 971 q 217 1015 158 1015 q 288 1008 249 1015 q 361 993 328 1001 q 446 978 425 978 q 471 988 467 978 q 475 1032 475 999 l 594 1032 z "},"ə":{"ha":689,"x_min":50,"x_max":643,"o":"m 318 719 q 538 683 469 719 q 625 576 607 647 q 643 356 643 504 q 625 135 643 208 q 543 26 607 63 q 339 -11 479 -11 q 138 23 199 -11 q 64 126 78 57 q 50 356 50 196 l 50 410 l 411 410 q 403 503 411 478 q 367 535 394 528 q 263 542 339 542 q 72 533 208 542 l 72 696 q 181 713 111 706 q 318 719 250 719 m 339 156 q 387 164 372 156 q 406 199 401 172 q 411 290 411 226 l 268 290 q 273 198 268 225 q 292 163 278 171 q 339 156 306 156 z "},"f":{"ha":535,"x_min":22,"x_max":504,"o":"m 128 531 l 22 531 l 22 708 l 128 708 l 128 740 q 156 942 128 883 q 255 1015 183 1000 q 504 1031 326 1031 l 504 871 q 408 865 435 871 q 374 842 382 860 q 365 776 365 824 l 365 708 l 504 708 l 504 531 l 365 531 l 365 0 l 128 0 l 128 531 z "},"g":{"ha":722,"x_min":46,"x_max":657,"o":"m 332 -285 q 207 -279 272 -285 q 100 -267 142 -274 l 100 -106 l 271 -107 q 378 -99 349 -107 q 415 -64 407 -90 q 422 33 422 -37 l 422 90 l 411 90 q 346 25 386 43 q 247 7 306 7 q 128 39 171 7 q 65 148 85 71 q 46 364 46 225 q 66 582 46 506 q 128 689 86 658 q 246 719 171 719 q 347 699 304 719 q 414 626 390 679 l 428 626 l 433 708 l 657 708 l 657 81 q 638 -135 657 -62 q 551 -246 619 -207 q 332 -285 482 -285 m 353 199 q 397 206 383 199 q 415 239 410 214 q 421 290 419 257 q 422 363 422 322 q 417 478 422 453 q 397 517 411 507 q 353 526 383 526 q 302 518 315 526 q 285 478 289 510 q 281 363 281 447 q 285 247 281 278 q 302 207 289 215 q 353 199 315 199 z "},"ǵ":{"ha":722,"x_min":46,"x_max":657,"o":"m 332 -285 q 207 -279 272 -285 q 100 -267 142 -274 l 100 -106 l 271 -107 q 378 -99 349 -107 q 415 -64 407 -90 q 422 33 422 -37 l 422 90 l 411 90 q 346 25 386 43 q 247 7 306 7 q 128 39 171 7 q 65 148 85 71 q 46 364 46 225 q 66 582 46 506 q 128 689 86 658 q 246 719 171 719 q 347 699 304 719 q 414 626 390 679 l 428 626 l 433 708 l 657 708 l 657 81 q 638 -135 657 -62 q 551 -246 619 -207 q 332 -285 482 -285 m 353 199 q 397 206 383 199 q 415 239 410 214 q 421 290 419 257 q 422 363 422 322 q 417 478 422 453 q 397 517 411 507 q 353 526 383 526 q 302 518 315 526 q 285 478 289 510 q 281 363 281 447 q 285 247 281 278 q 302 207 289 215 q 353 199 315 199 m 272 828 l 272 835 l 371 1032 l 594 1032 l 594 1025 l 443 828 l 272 828 z "},"ğ":{"ha":722,"x_min":46,"x_max":657,"o":"m 332 -285 q 207 -279 272 -285 q 100 -267 142 -274 l 100 -106 l 271 -107 q 378 -99 349 -107 q 415 -64 407 -90 q 422 33 422 -37 l 422 90 l 411 90 q 346 25 386 43 q 247 7 306 7 q 128 39 171 7 q 65 148 85 71 q 46 364 46 225 q 66 582 46 506 q 128 689 86 658 q 246 719 171 719 q 347 699 304 719 q 414 626 390 679 l 428 626 l 433 708 l 657 708 l 657 81 q 638 -135 657 -62 q 551 -246 619 -207 q 332 -285 482 -285 m 353 199 q 397 206 383 199 q 415 239 410 214 q 421 290 419 257 q 422 363 422 322 q 417 478 422 453 q 397 517 411 507 q 353 526 383 526 q 302 518 315 526 q 285 478 289 510 q 281 363 281 447 q 285 247 281 278 q 302 207 289 215 q 353 199 315 199 m 564 1032 q 549 924 564 967 q 489 856 533 881 q 360 832 444 832 q 231 856 275 832 q 173 923 188 881 q 158 1032 158 965 l 288 1032 q 291 989 288 1004 q 310 965 294 974 q 360 956 325 956 q 410 965 394 956 q 429 989 425 974 q 433 1032 433 1004 l 564 1032 z "},"ǧ":{"ha":722,"x_min":46,"x_max":657,"o":"m 332 -285 q 207 -279 272 -285 q 100 -267 142 -274 l 100 -106 l 271 -107 q 378 -99 349 -107 q 415 -64 407 -90 q 422 33 422 -37 l 422 90 l 411 90 q 346 25 386 43 q 247 7 306 7 q 128 39 171 7 q 65 148 85 71 q 46 364 46 225 q 66 582 46 506 q 128 689 86 658 q 246 719 171 719 q 347 699 304 719 q 414 626 390 679 l 428 626 l 433 708 l 657 708 l 657 81 q 638 -135 657 -62 q 551 -246 619 -207 q 332 -285 482 -285 m 353 199 q 397 206 383 199 q 415 239 410 214 q 421 290 419 257 q 422 363 422 322 q 417 478 422 453 q 397 517 411 507 q 353 526 383 526 q 302 518 315 526 q 285 478 289 510 q 281 363 281 447 q 285 247 281 278 q 302 207 289 215 q 353 199 315 199 m 251 838 l 136 1021 l 136 1032 l 289 1032 l 363 932 l 435 1032 l 586 1032 l 586 1021 l 469 838 l 251 838 z "},"ĝ":{"ha":722,"x_min":46,"x_max":657,"o":"m 332 -285 q 207 -279 272 -285 q 100 -267 142 -274 l 100 -106 l 271 -107 q 378 -99 349 -107 q 415 -64 407 -90 q 422 33 422 -37 l 422 90 l 411 90 q 346 25 386 43 q 247 7 306 7 q 128 39 171 7 q 65 148 85 71 q 46 364 46 225 q 66 582 46 506 q 128 689 86 658 q 246 719 171 719 q 347 699 304 719 q 414 626 390 679 l 428 626 l 433 708 l 657 708 l 657 81 q 638 -135 657 -62 q 551 -246 619 -207 q 332 -285 482 -285 m 353 199 q 397 206 383 199 q 415 239 410 214 q 421 290 419 257 q 422 363 422 322 q 417 478 422 453 q 397 517 411 507 q 353 526 383 526 q 302 518 315 526 q 285 478 289 510 q 281 363 281 447 q 285 247 281 278 q 302 207 289 215 q 353 199 315 199 m 136 838 l 136 849 l 250 1032 l 468 1032 l 586 849 l 586 838 l 433 838 l 360 938 l 288 838 l 136 838 z "},"ģ":{"ha":722,"x_min":46,"x_max":657,"o":"m 332 -285 q 207 -279 272 -285 q 100 -267 142 -274 l 100 -106 l 271 -107 q 378 -99 349 -107 q 415 -64 407 -90 q 422 33 422 -37 l 422 90 l 411 90 q 346 25 386 43 q 247 7 306 7 q 128 39 171 7 q 65 148 85 71 q 46 364 46 225 q 66 582 46 506 q 128 689 86 658 q 246 719 171 719 q 347 699 304 719 q 414 626 390 679 l 428 626 l 433 708 l 657 708 l 657 81 q 638 -135 657 -62 q 551 -246 619 -207 q 332 -285 482 -285 m 353 199 q 397 206 383 199 q 415 239 410 214 q 421 290 419 257 q 422 363 422 322 q 417 478 422 453 q 397 517 411 507 q 353 526 383 526 q 302 518 315 526 q 285 478 289 510 q 281 363 281 447 q 285 247 281 278 q 302 207 289 215 q 353 199 315 199 m 481 1060 q 425 1055 443 1060 q 401 1038 407 1050 q 394 1003 394 1026 l 394 988 l 478 988 l 478 829 l 246 829 l 246 933 q 262 1067 246 1024 q 326 1130 278 1111 q 481 1149 375 1149 l 481 1060 z "},"ġ":{"ha":722,"x_min":46,"x_max":657,"o":"m 332 -285 q 207 -279 272 -285 q 100 -267 142 -274 l 100 -106 l 271 -107 q 378 -99 349 -107 q 415 -64 407 -90 q 422 33 422 -37 l 422 90 l 411 90 q 346 25 386 43 q 247 7 306 7 q 128 39 171 7 q 65 148 85 71 q 46 364 46 225 q 66 582 46 506 q 128 689 86 658 q 246 719 171 719 q 347 699 304 719 q 414 626 390 679 l 428 626 l 433 708 l 657 708 l 657 81 q 638 -135 657 -62 q 551 -246 619 -207 q 332 -285 482 -285 m 353 199 q 397 206 383 199 q 415 239 410 214 q 421 290 419 257 q 422 363 422 322 q 417 478 422 453 q 397 517 411 507 q 353 526 383 526 q 302 518 315 526 q 285 478 289 510 q 281 363 281 447 q 285 247 281 278 q 302 207 289 215 q 353 199 315 199 m 267 857 l 267 1014 l 456 1014 l 456 857 l 267 857 z "},"h":{"ha":729,"x_min":65,"x_max":665,"o":"m 431 378 q 427 482 431 454 q 412 517 424 510 q 367 525 400 525 q 320 515 333 525 q 303 474 307 504 q 300 368 300 444 l 300 0 l 65 0 l 65 1032 l 300 1032 l 300 628 l 311 628 q 482 719 361 719 q 599 690 560 719 q 652 606 639 661 q 665 454 665 551 l 665 0 l 431 0 l 431 378 z "},"ħ":{"ha":729,"x_min":-3,"x_max":665,"o":"m 482 719 q 599 690 560 719 q 652 606 639 661 q 665 454 665 551 l 665 0 l 431 0 l 431 378 q 427 482 431 454 q 412 517 424 510 q 367 525 400 525 q 320 515 333 525 q 303 474 307 504 q 300 368 300 444 l 300 0 l 65 0 l 65 788 l -3 788 l -3 956 l 65 956 l 65 1032 l 300 1032 l 300 956 l 449 956 l 449 788 l 300 788 l 300 628 l 311 628 q 482 719 361 719 z "},"ĥ":{"ha":729,"x_min":-43,"x_max":665,"o":"m 431 378 q 427 482 431 454 q 412 517 424 510 q 367 525 400 525 q 320 515 333 525 q 303 474 307 504 q 300 368 300 444 l 300 0 l 65 0 l 65 1032 l 300 1032 l 300 628 l 311 628 q 482 719 361 719 q 599 690 560 719 q 652 606 639 661 q 665 454 665 551 l 665 0 l 431 0 l 431 378 m -43 1085 l -43 1096 l 71 1279 l 289 1279 l 407 1096 l 407 1085 l 254 1085 l 181 1185 l 108 1085 l -43 1085 z "},"ḥ":{"ha":729,"x_min":65,"x_max":665,"o":"m 431 378 q 427 482 431 454 q 412 517 424 510 q 367 525 400 525 q 320 515 333 525 q 303 474 307 504 q 300 368 300 444 l 300 0 l 65 0 l 65 1032 l 300 1032 l 300 628 l 311 628 q 482 719 361 719 q 599 690 560 719 q 652 606 639 661 q 665 454 665 551 l 665 0 l 431 0 l 431 378 m 240 -294 l 240 -86 l 488 -86 l 488 -294 l 240 -294 z "},"i":{"ha":368,"x_min":64,"x_max":303,"o":"m 64 844 l 64 1032 l 303 1032 l 303 844 l 64 844 m 65 0 l 65 708 l 303 708 l 303 0 l 65 0 z "},"ı":{"ha":368,"x_min":65,"x_max":303,"o":"m 65 0 l 65 708 l 303 708 l 303 0 l 65 0 z "},"í":{"ha":368,"x_min":65,"x_max":389,"o":"m 65 0 l 65 708 l 303 708 l 303 0 l 65 0 m 67 828 l 67 835 l 165 1032 l 389 1032 l 389 1025 l 238 828 l 67 828 z "},"ĭ":{"ha":368,"x_min":-19,"x_max":386,"o":"m 65 0 l 65 708 l 303 708 l 303 0 l 65 0 m 386 1032 q 371 924 386 967 q 311 856 356 881 q 182 832 267 832 q 53 856 97 832 q -5 923 10 881 q -19 1032 -19 965 l 110 1032 q 113 989 110 1004 q 132 965 117 974 q 182 956 147 956 q 232 965 217 956 q 251 989 247 974 q 256 1032 256 1004 l 386 1032 z "},"ǐ":{"ha":368,"x_min":-42,"x_max":408,"o":"m 65 0 l 65 708 l 303 708 l 303 0 l 65 0 m 74 838 l -42 1021 l -42 1032 l 111 1032 l 185 932 l 257 1032 l 408 1032 l 408 1021 l 292 838 l 74 838 z "},"î":{"ha":368,"x_min":-40,"x_max":410,"o":"m 65 0 l 65 708 l 303 708 l 303 0 l 65 0 m -40 838 l -40 849 l 74 1032 l 292 1032 l 410 849 l 410 838 l 257 838 l 183 938 l 111 838 l -40 838 z "},"ȉ":{"ha":368,"x_min":-117,"x_max":382,"o":"m 65 0 l 65 708 l 303 708 l 303 0 l 65 0 m 147 847 l 6 847 l -117 1008 l -117 1014 l 65 1014 l 147 854 l 147 847 m 382 847 l 243 847 l 119 1008 l 119 1014 l 301 1014 l 382 854 l 382 847 z "},"ï":{"ha":368,"x_min":-47,"x_max":415,"o":"m 65 0 l 65 708 l 303 708 l 303 0 l 65 0 m -47 854 l -47 1011 l 142 1011 l 142 854 l -47 854 m 225 854 l 225 1011 l 415 1011 l 415 854 l 225 854 z "},"ị":{"ha":368,"x_min":64,"x_max":328,"o":"m 64 844 l 64 1032 l 303 1032 l 303 844 l 64 844 m 65 0 l 65 708 l 303 708 l 303 0 l 65 0 m 81 -294 l 81 -86 l 328 -86 l 328 -294 l 81 -294 z "},"ì":{"ha":368,"x_min":-19,"x_max":303,"o":"m 65 0 l 65 708 l 303 708 l 303 0 l 65 0 m 131 828 l -19 1025 l -19 1032 l 204 1032 l 303 835 l 303 828 l 131 828 z "},"ỉ":{"ha":368,"x_min":0,"x_max":364,"o":"m 65 0 l 65 708 l 303 708 l 303 0 l 65 0 m 82 864 q 94 926 82 908 q 144 954 107 943 l 164 961 q 202 978 193 971 q 211 1000 211 985 q 198 1025 211 1019 q 143 1031 185 1031 q 0 1024 67 1031 l 0 1136 q 85 1148 36 1143 q 174 1153 133 1153 q 276 1144 236 1153 q 340 1106 317 1135 q 364 1018 364 1076 q 344 940 364 964 q 275 900 325 917 l 256 892 q 217 874 225 881 q 210 849 210 867 l 82 849 l 82 864 z "},"ȋ":{"ha":368,"x_min":-21,"x_max":385,"o":"m 65 0 l 65 708 l 303 708 l 303 0 l 65 0 m -21 839 q -6 947 -21 904 q 54 1015 10 990 q 183 1039 99 1039 q 312 1015 268 1039 q 370 948 356 990 q 385 839 385 906 l 256 839 q 252 882 256 867 q 233 906 249 897 q 183 915 218 915 q 133 906 149 915 q 114 882 118 897 q 110 839 110 867 l -21 839 z "},"ĳ":{"ha":736,"x_min":64,"x_max":671,"o":"m 64 844 l 64 1032 l 303 1032 l 303 844 l 64 844 m 65 0 l 65 708 l 303 708 l 303 0 l 65 0 m 432 844 l 432 1032 l 671 1032 l 671 844 l 432 844 m 339 -112 q 403 -106 383 -112 q 428 -84 422 -99 q 433 -40 433 -69 l 433 708 l 671 708 l 671 26 q 645 -176 671 -115 q 554 -256 619 -237 q 339 -275 489 -275 l 339 -112 z "},"ī":{"ha":368,"x_min":8,"x_max":357,"o":"m 65 0 l 65 708 l 303 708 l 303 0 l 65 0 m 8 843 l 8 1032 l 357 1032 l 357 843 l 8 843 z "},"į":{"ha":368,"x_min":38,"x_max":303,"o":"m 278 1014 l 278 857 l 89 857 l 89 1014 l 278 1014 m 303 0 q 247 -47 271 -15 q 222 -110 222 -78 q 281 -156 222 -156 q 303 -154 293 -156 l 303 -267 q 208 -272 247 -272 q 77 -239 117 -272 q 38 -154 38 -206 q 121 0 38 -76 l 65 0 l 65 708 l 303 708 l 303 0 z "},"ĩ":{"ha":368,"x_min":-69,"x_max":433,"o":"m 65 0 l 65 708 l 303 708 l 303 0 l 65 0 m 433 1032 q 427 917 433 956 q 394 856 421 878 q 310 833 368 833 q 165 857 257 833 l 138 863 q 79 872 99 872 q 56 861 60 872 q 51 817 51 850 l -69 817 q -63 932 -69 893 q -30 993 -57 971 q 56 1015 -3 1015 q 127 1008 88 1015 q 200 993 167 1001 q 285 978 264 978 q 310 988 306 978 q 314 1032 314 999 l 433 1032 z "},"j":{"ha":368,"x_min":-29,"x_max":303,"o":"m 64 844 l 64 1032 l 303 1032 l 303 844 l 64 844 m -29 -112 q 35 -106 15 -112 q 60 -84 54 -99 q 65 -40 65 -69 l 65 708 l 303 708 l 303 26 q 277 -176 303 -115 q 186 -256 251 -237 q -29 -275 121 -275 l -29 -112 z "},"ȷ":{"ha":368,"x_min":-29,"x_max":303,"o":"m -29 -112 q 35 -106 15 -112 q 60 -84 54 -99 q 65 -40 65 -69 l 65 708 l 303 708 l 303 26 q 277 -176 303 -115 q 186 -256 251 -237 q -29 -275 121 -275 l -29 -112 z "},"ĵ":{"ha":368,"x_min":-42,"x_max":408,"o":"m -29 -112 q 35 -106 15 -112 q 60 -84 54 -99 q 65 -40 65 -69 l 65 708 l 303 708 l 303 26 q 277 -176 303 -115 q 186 -256 251 -237 q -29 -275 121 -275 l -29 -112 m -42 838 l -42 849 l 72 1032 l 290 1032 l 408 849 l 408 838 l 256 838 l 182 938 l 110 838 l -42 838 z "},"k":{"ha":721,"x_min":65,"x_max":713,"o":"m 458 0 l 328 263 l 300 263 l 300 0 l 65 0 l 65 1032 l 300 1032 l 300 440 l 328 440 l 465 708 l 710 708 l 522 372 l 713 0 l 458 0 z "},"ķ":{"ha":721,"x_min":65,"x_max":713,"o":"m 458 0 l 328 263 l 300 263 l 300 0 l 65 0 l 65 1032 l 300 1032 l 300 440 l 328 440 l 465 708 l 710 708 l 522 372 l 713 0 l 458 0 m 243 -312 q 299 -308 281 -312 q 323 -291 317 -303 q 329 -256 329 -279 l 329 -242 l 246 -242 l 246 -83 l 478 -83 l 478 -186 q 462 -320 478 -276 q 397 -383 446 -364 q 243 -401 349 -401 l 243 -312 z "},"ĸ":{"ha":721,"x_min":65,"x_max":713,"o":"m 458 0 l 328 263 l 300 263 l 300 0 l 65 0 l 65 708 l 300 708 l 300 440 l 328 440 l 465 708 l 710 708 l 522 372 l 713 0 l 458 0 z "},"l":{"ha":368,"x_min":65,"x_max":303,"o":"m 65 0 l 65 1032 l 303 1032 l 303 0 l 65 0 z "},"ĺ":{"ha":368,"x_min":65,"x_max":417,"o":"m 65 0 l 65 1032 l 303 1032 l 303 0 l 65 0 m 94 1075 l 94 1082 l 193 1279 l 417 1279 l 417 1272 l 265 1075 l 94 1075 z "},"ľ":{"ha":501,"x_min":65,"x_max":571,"o":"m 65 0 l 65 1032 l 303 1032 l 303 0 l 65 0 m 344 590 l 363 885 l 363 956 l 571 956 l 571 885 l 506 590 l 344 590 z "},"ļ":{"ha":368,"x_min":65,"x_max":303,"o":"m 65 0 l 65 1032 l 303 1032 l 303 0 l 65 0 m 65 -312 q 121 -308 103 -312 q 145 -291 139 -303 q 151 -256 151 -279 l 151 -242 l 68 -242 l 68 -83 l 300 -83 l 300 -186 q 284 -320 300 -276 q 219 -383 268 -364 q 65 -401 171 -401 l 65 -312 z "},"ŀ":{"ha":533,"x_min":65,"x_max":560,"o":"m 65 0 l 65 1032 l 303 1032 l 303 0 l 65 0 m 347 311 l 347 519 l 560 519 l 560 311 l 347 311 z "},"ǉ":{"ha":736,"x_min":65,"x_max":671,"o":"m 65 0 l 65 1032 l 303 1032 l 303 0 l 65 0 m 432 844 l 432 1032 l 671 1032 l 671 844 l 432 844 m 339 -112 q 403 -106 383 -112 q 428 -84 422 -99 q 433 -40 433 -69 l 433 708 l 671 708 l 671 26 q 645 -176 671 -115 q 554 -256 619 -237 q 339 -275 489 -275 l 339 -112 z "},"ł":{"ha":396,"x_min":11,"x_max":383,"o":"m 78 0 l 78 393 l 11 369 l 11 542 l 78 565 l 78 1032 l 315 1032 l 315 646 l 383 671 l 383 497 l 315 472 l 315 0 l 78 0 z "},"m":{"ha":1076,"x_min":65,"x_max":1013,"o":"m 778 378 q 774 481 778 451 q 758 517 769 510 q 718 525 747 525 q 674 515 686 525 q 659 474 663 504 q 656 368 656 444 l 656 0 l 421 0 l 421 378 q 417 481 421 453 q 403 517 414 510 q 363 525 392 525 q 319 515 331 525 q 303 474 307 504 q 300 368 300 444 l 300 0 l 65 0 l 65 708 l 290 708 l 296 626 l 307 626 q 481 719 357 719 q 590 697 551 719 q 644 626 629 675 l 657 626 q 831 719 707 719 q 945 691 906 719 q 999 607 985 663 q 1013 457 1013 551 l 1013 0 l 778 0 l 778 378 z "},"n":{"ha":729,"x_min":65,"x_max":665,"o":"m 431 378 q 427 482 431 454 q 412 517 424 510 q 367 525 400 525 q 320 515 333 525 q 303 474 307 504 q 300 368 300 444 l 300 0 l 65 0 l 65 708 l 290 708 l 296 626 l 307 626 q 482 719 356 719 q 599 690 560 719 q 652 606 639 661 q 665 454 665 551 l 665 0 l 431 0 l 431 378 z "},"ń":{"ha":729,"x_min":65,"x_max":665,"o":"m 431 378 q 427 482 431 454 q 412 517 424 510 q 367 525 400 525 q 320 515 333 525 q 303 474 307 504 q 300 368 300 444 l 300 0 l 65 0 l 65 708 l 290 708 l 296 626 l 307 626 q 482 719 356 719 q 599 690 560 719 q 652 606 639 661 q 665 454 665 551 l 665 0 l 431 0 l 431 378 m 275 828 l 275 835 l 374 1032 l 597 1032 l 597 1025 l 446 828 l 275 828 z "},"ŉ":{"ha":935,"x_min":28,"x_max":871,"o":"m 28 761 q 98 781 82 761 q 114 856 114 800 l 114 875 l 31 875 l 31 1032 l 263 1032 l 263 925 q 247 767 263 818 q 182 694 231 715 q 28 672 133 672 l 28 761 m 636 378 q 633 482 636 454 q 617 517 629 510 q 572 525 606 525 q 526 515 539 525 q 509 474 513 504 q 506 368 506 444 l 506 0 l 271 0 l 271 708 l 496 708 l 501 626 l 513 626 q 688 719 561 719 q 805 690 765 719 q 858 606 844 661 q 871 454 871 551 l 871 0 l 636 0 l 636 378 z "},"ň":{"ha":729,"x_min":65,"x_max":665,"o":"m 431 378 q 427 482 431 454 q 412 517 424 510 q 367 525 400 525 q 320 515 333 525 q 303 474 307 504 q 300 368 300 444 l 300 0 l 65 0 l 65 708 l 290 708 l 296 626 l 307 626 q 482 719 356 719 q 599 690 560 719 q 652 606 639 661 q 665 454 665 551 l 665 0 l 431 0 l 431 378 m 254 838 l 139 1021 l 139 1032 l 292 1032 l 365 932 l 438 1032 l 589 1032 l 589 1021 l 472 838 l 254 838 z "},"ņ":{"ha":729,"x_min":65,"x_max":665,"o":"m 431 378 q 427 482 431 454 q 412 517 424 510 q 367 525 400 525 q 320 515 333 525 q 303 474 307 504 q 300 368 300 444 l 300 0 l 65 0 l 65 708 l 290 708 l 296 626 l 307 626 q 482 719 356 719 q 599 690 560 719 q 652 606 639 661 q 665 454 665 551 l 665 0 l 431 0 l 431 378 m 246 -312 q 301 -308 283 -312 q 326 -291 319 -303 q 332 -256 332 -279 l 332 -242 l 249 -242 l 249 -83 l 481 -83 l 481 -186 q 465 -320 481 -276 q 400 -383 449 -364 q 246 -401 351 -401 l 246 -312 z "},"ṅ":{"ha":729,"x_min":65,"x_max":665,"o":"m 431 378 q 427 482 431 454 q 412 517 424 510 q 367 525 400 525 q 320 515 333 525 q 303 474 307 504 q 300 368 300 444 l 300 0 l 65 0 l 65 708 l 290 708 l 296 626 l 307 626 q 482 719 356 719 q 599 690 560 719 q 652 606 639 661 q 665 454 665 551 l 665 0 l 431 0 l 431 378 m 269 857 l 269 1014 l 458 1014 l 458 857 l 269 857 z "},"ŋ":{"ha":729,"x_min":65,"x_max":665,"o":"m 482 719 q 599 690 560 719 q 652 606 639 661 q 665 454 665 551 l 665 26 q 640 -176 665 -115 q 549 -256 614 -237 q 336 -275 483 -275 l 336 -112 q 400 -106 381 -112 q 425 -84 419 -99 q 431 -40 431 -69 l 431 378 q 427 482 431 454 q 412 517 424 510 q 367 525 400 525 q 320 515 333 525 q 303 474 307 504 q 300 368 300 444 l 300 0 l 65 0 l 65 708 l 290 708 l 296 626 l 307 626 q 482 719 356 719 z "},"ɲ":{"ha":729,"x_min":-29,"x_max":665,"o":"m -29 -112 q 35 -106 15 -112 q 60 -84 54 -99 q 65 -40 65 -69 l 65 708 l 290 708 l 296 626 l 307 626 q 482 719 356 719 q 599 690 560 719 q 652 606 639 661 q 665 454 665 551 l 665 0 l 431 0 l 431 378 q 427 482 431 454 q 412 517 424 510 q 367 525 400 525 q 320 515 333 525 q 303 474 307 504 q 300 368 300 444 l 300 26 q 274 -176 300 -115 q 183 -256 249 -237 q -29 -275 118 -275 l -29 -112 z "},"ǌ":{"ha":1097,"x_min":65,"x_max":1032,"o":"m 431 378 q 427 482 431 454 q 412 517 424 510 q 367 525 400 525 q 320 515 333 525 q 303 474 307 504 q 300 368 300 444 l 300 0 l 65 0 l 65 708 l 290 708 l 296 626 l 307 626 q 482 719 356 719 q 599 690 560 719 q 652 606 639 661 q 665 454 665 551 l 665 0 l 431 0 l 431 378 m 793 844 l 793 1032 l 1032 1032 l 1032 844 l 793 844 m 700 -112 q 764 -106 744 -112 q 789 -84 783 -99 q 794 -40 794 -69 l 794 708 l 1032 708 l 1032 26 q 1006 -176 1032 -115 q 915 -256 981 -237 q 700 -275 850 -275 l 700 -112 z "},"ñ":{"ha":729,"x_min":65,"x_max":665,"o":"m 431 378 q 427 482 431 454 q 412 517 424 510 q 367 525 400 525 q 320 515 333 525 q 303 474 307 504 q 300 368 300 444 l 300 0 l 65 0 l 65 708 l 290 708 l 296 626 l 307 626 q 482 719 356 719 q 599 690 560 719 q 652 606 639 661 q 665 454 665 551 l 665 0 l 431 0 l 431 378 m 621 1032 q 615 917 621 956 q 582 856 608 878 q 497 833 556 833 q 353 857 444 833 l 325 863 q 267 872 286 872 q 243 862 247 872 q 239 817 239 851 l 118 817 q 124 932 118 893 q 158 993 131 971 q 243 1015 185 1015 q 315 1008 275 1015 q 388 993 354 1001 q 472 978 451 978 q 497 988 493 978 q 501 1032 501 999 l 621 1032 z "},"o":{"ha":707,"x_min":46,"x_max":661,"o":"m 353 -11 q 144 20 208 -11 q 63 123 81 51 q 46 354 46 194 q 63 585 46 514 q 144 688 81 657 q 353 719 208 719 q 562 688 499 719 q 643 585 625 657 q 661 354 661 514 q 643 123 661 194 q 562 20 625 51 q 353 -11 499 -11 m 353 167 q 406 177 392 167 q 423 222 419 188 q 426 354 426 257 q 423 486 426 451 q 406 531 419 521 q 353 542 392 542 q 301 531 315 542 q 284 486 288 521 q 281 354 281 451 q 284 222 281 257 q 301 177 288 188 q 353 167 315 167 z "},"ó":{"ha":707,"x_min":46,"x_max":661,"o":"m 353 -11 q 144 20 208 -11 q 63 123 81 51 q 46 354 46 194 q 63 585 46 514 q 144 688 81 657 q 353 719 208 719 q 562 688 499 719 q 643 585 625 657 q 661 354 661 514 q 643 123 661 194 q 562 20 625 51 q 353 -11 499 -11 m 353 167 q 406 177 392 167 q 423 222 419 188 q 426 354 426 257 q 423 486 426 451 q 406 531 419 521 q 353 542 392 542 q 301 531 315 542 q 284 486 288 521 q 281 354 281 451 q 284 222 281 257 q 301 177 288 188 q 353 167 315 167 m 257 828 l 257 835 l 356 1032 l 579 1032 l 579 1025 l 428 828 l 257 828 z "},"ŏ":{"ha":707,"x_min":46,"x_max":661,"o":"m 353 -11 q 144 20 208 -11 q 63 123 81 51 q 46 354 46 194 q 63 585 46 514 q 144 688 81 657 q 353 719 208 719 q 562 688 499 719 q 643 585 625 657 q 661 354 661 514 q 643 123 661 194 q 562 20 625 51 q 353 -11 499 -11 m 353 167 q 406 177 392 167 q 423 222 419 188 q 426 354 426 257 q 423 486 426 451 q 406 531 419 521 q 353 542 392 542 q 301 531 315 542 q 284 486 288 521 q 281 354 281 451 q 284 222 281 257 q 301 177 288 188 q 353 167 315 167 m 557 1032 q 542 924 557 967 q 482 856 526 881 q 353 832 438 832 q 224 856 268 832 q 166 923 181 881 q 151 1032 151 965 l 281 1032 q 284 989 281 1004 q 303 965 288 974 q 353 956 318 956 q 403 965 388 956 q 422 989 418 974 q 426 1032 426 1004 l 557 1032 z "},"ǒ":{"ha":707,"x_min":46,"x_max":661,"o":"m 353 -11 q 144 20 208 -11 q 63 123 81 51 q 46 354 46 194 q 63 585 46 514 q 144 688 81 657 q 353 719 208 719 q 562 688 499 719 q 643 585 625 657 q 661 354 661 514 q 643 123 661 194 q 562 20 625 51 q 353 -11 499 -11 m 353 167 q 406 177 392 167 q 423 222 419 188 q 426 354 426 257 q 423 486 426 451 q 406 531 419 521 q 353 542 392 542 q 301 531 315 542 q 284 486 288 521 q 281 354 281 451 q 284 222 281 257 q 301 177 288 188 q 353 167 315 167 m 244 838 l 129 1021 l 129 1032 l 282 1032 l 356 932 l 428 1032 l 579 1032 l 579 1021 l 463 838 l 244 838 z "},"ô":{"ha":707,"x_min":46,"x_max":661,"o":"m 353 -11 q 144 20 208 -11 q 63 123 81 51 q 46 354 46 194 q 63 585 46 514 q 144 688 81 657 q 353 719 208 719 q 562 688 499 719 q 643 585 625 657 q 661 354 661 514 q 643 123 661 194 q 562 20 625 51 q 353 -11 499 -11 m 353 167 q 406 177 392 167 q 423 222 419 188 q 426 354 426 257 q 423 486 426 451 q 406 531 419 521 q 353 542 392 542 q 301 531 315 542 q 284 486 288 521 q 281 354 281 451 q 284 222 281 257 q 301 177 288 188 q 353 167 315 167 m 131 838 l 131 849 l 244 1032 l 463 1032 l 581 849 l 581 838 l 428 838 l 354 938 l 282 838 l 131 838 z "},"ố":{"ha":707,"x_min":46,"x_max":693,"o":"m 353 -11 q 144 20 208 -11 q 63 123 81 51 q 46 354 46 194 q 63 585 46 514 q 144 688 81 657 q 353 719 208 719 q 562 688 499 719 q 643 585 625 657 q 661 354 661 514 q 643 123 661 194 q 562 20 625 51 q 353 -11 499 -11 m 353 167 q 406 177 392 167 q 423 222 419 188 q 426 354 426 257 q 423 486 426 451 q 406 531 419 521 q 353 542 392 542 q 301 531 315 542 q 284 486 288 521 q 281 354 281 451 q 284 222 281 257 q 301 177 288 188 q 353 167 315 167 m 129 838 l 129 849 l 243 1032 l 461 1032 l 579 849 l 579 838 l 426 838 l 353 938 l 281 838 l 129 838 m 371 1068 l 371 1075 l 469 1272 l 693 1272 l 693 1265 l 542 1068 l 371 1068 z "},"ộ":{"ha":707,"x_min":46,"x_max":661,"o":"m 353 -11 q 144 20 208 -11 q 63 123 81 51 q 46 354 46 194 q 63 585 46 514 q 144 688 81 657 q 353 719 208 719 q 562 688 499 719 q 643 585 625 657 q 661 354 661 514 q 643 123 661 194 q 562 20 625 51 q 353 -11 499 -11 m 353 167 q 406 177 392 167 q 423 222 419 188 q 426 354 426 257 q 423 486 426 451 q 406 531 419 521 q 353 542 392 542 q 301 531 315 542 q 284 486 288 521 q 281 354 281 451 q 284 222 281 257 q 301 177 288 188 q 353 167 315 167 m 231 -294 l 231 -86 l 478 -86 l 478 -294 l 231 -294 m 129 838 l 129 849 l 243 1032 l 461 1032 l 579 849 l 579 838 l 426 838 l 353 938 l 281 838 l 129 838 z "},"ồ":{"ha":707,"x_min":46,"x_max":661,"o":"m 353 -11 q 144 20 208 -11 q 63 123 81 51 q 46 354 46 194 q 63 585 46 514 q 144 688 81 657 q 353 719 208 719 q 562 688 499 719 q 643 585 625 657 q 661 354 661 514 q 643 123 661 194 q 562 20 625 51 q 353 -11 499 -11 m 353 167 q 406 177 392 167 q 423 222 419 188 q 426 354 426 257 q 423 486 426 451 q 406 531 419 521 q 353 542 392 542 q 301 531 315 542 q 284 486 288 521 q 281 354 281 451 q 284 222 281 257 q 301 177 288 188 q 353 167 315 167 m 117 838 l 117 849 l 231 1032 l 449 1032 l 567 849 l 567 838 l 414 838 l 340 938 l 268 838 l 117 838 m 418 1068 l 268 1265 l 268 1272 l 492 1272 l 590 1075 l 590 1068 l 418 1068 z "},"ổ":{"ha":707,"x_min":46,"x_max":701,"o":"m 353 -11 q 144 20 208 -11 q 63 123 81 51 q 46 354 46 194 q 63 585 46 514 q 144 688 81 657 q 353 719 208 719 q 562 688 499 719 q 643 585 625 657 q 661 354 661 514 q 643 123 661 194 q 562 20 625 51 q 353 -11 499 -11 m 353 167 q 406 177 392 167 q 423 222 419 188 q 426 354 426 257 q 423 486 426 451 q 406 531 419 521 q 353 542 392 542 q 301 531 315 542 q 284 486 288 521 q 281 354 281 451 q 284 222 281 257 q 301 177 288 188 q 353 167 315 167 m 129 838 l 129 849 l 243 1032 l 461 1032 l 579 849 l 579 838 l 426 838 l 353 938 l 281 838 l 129 838 m 419 1075 q 432 1137 419 1119 q 482 1165 444 1154 l 501 1172 q 540 1189 531 1182 q 549 1211 549 1196 q 535 1236 549 1231 q 481 1242 522 1242 q 338 1235 404 1242 l 338 1347 q 422 1359 374 1354 q 511 1364 471 1364 q 614 1355 574 1364 q 678 1317 654 1346 q 701 1229 701 1288 q 682 1151 701 1175 q 613 1111 663 1128 l 593 1103 q 555 1085 563 1092 q 547 1060 547 1078 l 419 1060 l 419 1075 z "},"ỗ":{"ha":707,"x_min":46,"x_max":661,"o":"m 353 -11 q 144 20 208 -11 q 63 123 81 51 q 46 354 46 194 q 63 585 46 514 q 144 688 81 657 q 353 719 208 719 q 562 688 499 719 q 643 585 625 657 q 661 354 661 514 q 643 123 661 194 q 562 20 625 51 q 353 -11 499 -11 m 353 167 q 406 177 392 167 q 423 222 419 188 q 426 354 426 257 q 423 486 426 451 q 406 531 419 521 q 353 542 392 542 q 301 531 315 542 q 284 486 288 521 q 281 354 281 451 q 284 222 281 257 q 301 177 288 188 q 353 167 315 167 m 126 838 l 126 849 l 240 1032 l 458 1032 l 576 849 l 576 838 l 424 838 l 350 938 l 278 838 l 126 838 m 604 1272 q 598 1157 604 1196 q 565 1096 592 1118 q 481 1074 539 1074 q 336 1097 428 1074 l 308 1103 q 250 1113 269 1113 q 226 1101 231 1113 q 222 1057 222 1090 l 101 1057 q 108 1172 101 1133 q 141 1233 114 1211 q 226 1256 168 1256 q 298 1249 258 1256 q 371 1233 338 1242 q 456 1218 435 1218 q 481 1228 476 1218 q 485 1272 485 1239 l 604 1272 z "},"ȍ":{"ha":707,"x_min":46,"x_max":661,"o":"m 353 -11 q 144 20 208 -11 q 63 123 81 51 q 46 354 46 194 q 63 585 46 514 q 144 688 81 657 q 353 719 208 719 q 562 688 499 719 q 643 585 625 657 q 661 354 661 514 q 643 123 661 194 q 562 20 625 51 q 353 -11 499 -11 m 353 167 q 406 177 392 167 q 423 222 419 188 q 426 354 426 257 q 423 486 426 451 q 406 531 419 521 q 353 542 392 542 q 301 531 315 542 q 284 486 288 521 q 281 354 281 451 q 284 222 281 257 q 301 177 288 188 q 353 167 315 167 m 318 847 l 176 847 l 54 1008 l 54 1014 l 236 1014 l 318 854 l 318 847 m 553 847 l 414 847 l 290 1008 l 290 1014 l 472 1014 l 553 854 l 553 847 z "},"ö":{"ha":707,"x_min":46,"x_max":661,"o":"m 353 -11 q 144 20 208 -11 q 63 123 81 51 q 46 354 46 194 q 63 585 46 514 q 144 688 81 657 q 353 719 208 719 q 562 688 499 719 q 643 585 625 657 q 661 354 661 514 q 643 123 661 194 q 562 20 625 51 q 353 -11 499 -11 m 353 167 q 406 177 392 167 q 423 222 419 188 q 426 354 426 257 q 423 486 426 451 q 406 531 419 521 q 353 542 392 542 q 301 531 315 542 q 284 486 288 521 q 281 354 281 451 q 284 222 281 257 q 301 177 288 188 q 353 167 315 167 m 125 854 l 125 1011 l 314 1011 l 314 854 l 125 854 m 397 854 l 397 1011 l 588 1011 l 588 854 l 397 854 z "},"ọ":{"ha":707,"x_min":46,"x_max":661,"o":"m 353 -11 q 144 20 208 -11 q 63 123 81 51 q 46 354 46 194 q 63 585 46 514 q 144 688 81 657 q 353 719 208 719 q 562 688 499 719 q 643 585 625 657 q 661 354 661 514 q 643 123 661 194 q 562 20 625 51 q 353 -11 499 -11 m 353 167 q 406 177 392 167 q 423 222 419 188 q 426 354 426 257 q 423 486 426 451 q 406 531 419 521 q 353 542 392 542 q 301 531 315 542 q 284 486 288 521 q 281 354 281 451 q 284 222 281 257 q 301 177 288 188 q 353 167 315 167 m 231 -294 l 231 -86 l 478 -86 l 478 -294 l 231 -294 z "},"ò":{"ha":707,"x_min":46,"x_max":661,"o":"m 353 -11 q 144 20 208 -11 q 63 123 81 51 q 46 354 46 194 q 63 585 46 514 q 144 688 81 657 q 353 719 208 719 q 562 688 499 719 q 643 585 625 657 q 661 354 661 514 q 643 123 661 194 q 562 20 625 51 q 353 -11 499 -11 m 353 167 q 406 177 392 167 q 423 222 419 188 q 426 354 426 257 q 423 486 426 451 q 406 531 419 521 q 353 542 392 542 q 301 531 315 542 q 284 486 288 521 q 281 354 281 451 q 284 222 281 257 q 301 177 288 188 q 353 167 315 167 m 275 828 l 125 1025 l 125 1032 l 349 1032 l 447 835 l 447 828 l 275 828 z "},"ỏ":{"ha":707,"x_min":46,"x_max":661,"o":"m 353 -11 q 144 20 208 -11 q 63 123 81 51 q 46 354 46 194 q 63 585 46 514 q 144 688 81 657 q 353 719 208 719 q 562 688 499 719 q 643 585 625 657 q 661 354 661 514 q 643 123 661 194 q 562 20 625 51 q 353 -11 499 -11 m 353 167 q 406 177 392 167 q 423 222 419 188 q 426 354 426 257 q 423 486 426 451 q 406 531 419 521 q 353 542 392 542 q 301 531 315 542 q 284 486 288 521 q 281 354 281 451 q 284 222 281 257 q 301 177 288 188 q 353 167 315 167 m 253 864 q 265 926 253 908 q 315 954 278 943 l 335 961 q 373 978 364 971 q 382 1000 382 985 q 369 1025 382 1019 q 314 1031 356 1031 q 171 1024 238 1031 l 171 1136 q 256 1148 207 1143 q 344 1153 304 1153 q 447 1144 407 1153 q 511 1106 488 1135 q 535 1018 535 1076 q 515 940 535 964 q 446 900 496 917 l 426 892 q 388 874 396 881 q 381 849 381 867 l 253 849 l 253 864 z "},"ơ":{"ha":707,"x_min":46,"x_max":744,"o":"m 744 833 l 744 807 q 736 712 744 746 q 702 657 728 678 q 626 628 676 636 q 654 526 647 589 q 661 354 661 464 q 643 123 661 194 q 562 20 625 51 q 353 -11 499 -11 q 144 20 208 -11 q 63 123 81 51 q 46 354 46 194 q 63 585 46 514 q 144 688 81 657 q 353 719 208 719 q 500 708 449 719 l 504 708 q 563 716 544 708 q 588 740 582 724 q 594 789 594 756 l 594 833 l 744 833 m 353 167 q 406 177 392 167 q 423 222 419 188 q 426 354 426 257 q 423 486 426 451 q 406 531 419 521 q 353 542 392 542 q 301 531 315 542 q 284 486 288 521 q 281 354 281 451 q 284 222 281 257 q 301 177 288 188 q 353 167 315 167 z "},"ớ":{"ha":707,"x_min":46,"x_max":744,"o":"m 744 833 l 744 807 q 736 712 744 746 q 702 657 728 678 q 626 628 676 636 q 654 526 647 589 q 661 354 661 464 q 643 123 661 194 q 562 20 625 51 q 353 -11 499 -11 q 144 20 208 -11 q 63 123 81 51 q 46 354 46 194 q 63 585 46 514 q 144 688 81 657 q 353 719 208 719 q 500 708 449 719 l 504 708 q 563 716 544 708 q 588 740 582 724 q 594 789 594 756 l 594 833 l 744 833 m 353 167 q 406 177 392 167 q 423 222 419 188 q 426 354 426 257 q 423 486 426 451 q 406 531 419 521 q 353 542 392 542 q 301 531 315 542 q 284 486 288 521 q 281 354 281 451 q 284 222 281 257 q 301 177 288 188 q 353 167 315 167 m 265 828 l 265 835 l 364 1032 l 588 1032 l 588 1025 l 436 828 l 265 828 z "},"ợ":{"ha":707,"x_min":46,"x_max":744,"o":"m 744 833 l 744 807 q 736 712 744 746 q 702 657 728 678 q 626 628 676 636 q 654 526 647 589 q 661 354 661 464 q 643 123 661 194 q 562 20 625 51 q 353 -11 499 -11 q 144 20 208 -11 q 63 123 81 51 q 46 354 46 194 q 63 585 46 514 q 144 688 81 657 q 353 719 208 719 q 500 708 449 719 l 504 708 q 563 716 544 708 q 588 740 582 724 q 594 789 594 756 l 594 833 l 744 833 m 353 167 q 406 177 392 167 q 423 222 419 188 q 426 354 426 257 q 423 486 426 451 q 406 531 419 521 q 353 542 392 542 q 301 531 315 542 q 284 486 288 521 q 281 354 281 451 q 284 222 281 257 q 301 177 288 188 q 353 167 315 167 m 231 -294 l 231 -86 l 478 -86 l 478 -294 l 231 -294 z "},"ờ":{"ha":707,"x_min":46,"x_max":744,"o":"m 744 833 l 744 807 q 736 712 744 746 q 702 657 728 678 q 626 628 676 636 q 654 526 647 589 q 661 354 661 464 q 643 123 661 194 q 562 20 625 51 q 353 -11 499 -11 q 144 20 208 -11 q 63 123 81 51 q 46 354 46 194 q 63 585 46 514 q 144 688 81 657 q 353 719 208 719 q 500 708 449 719 l 504 708 q 563 716 544 708 q 588 740 582 724 q 594 789 594 756 l 594 833 l 744 833 m 353 167 q 406 177 392 167 q 423 222 419 188 q 426 354 426 257 q 423 486 426 451 q 406 531 419 521 q 353 542 392 542 q 301 531 315 542 q 284 486 288 521 q 281 354 281 451 q 284 222 281 257 q 301 177 288 188 q 353 167 315 167 m 271 828 l 121 1025 l 121 1032 l 344 1032 l 443 835 l 443 828 l 271 828 z "},"ở":{"ha":707,"x_min":46,"x_max":744,"o":"m 744 833 l 744 807 q 736 712 744 746 q 702 657 728 678 q 626 628 676 636 q 654 526 647 589 q 661 354 661 464 q 643 123 661 194 q 562 20 625 51 q 353 -11 499 -11 q 144 20 208 -11 q 63 123 81 51 q 46 354 46 194 q 63 585 46 514 q 144 688 81 657 q 353 719 208 719 q 500 708 449 719 l 504 708 q 563 716 544 708 q 588 740 582 724 q 594 789 594 756 l 594 833 l 744 833 m 353 167 q 406 177 392 167 q 423 222 419 188 q 426 354 426 257 q 423 486 426 451 q 406 531 419 521 q 353 542 392 542 q 301 531 315 542 q 284 486 288 521 q 281 354 281 451 q 284 222 281 257 q 301 177 288 188 q 353 167 315 167 m 253 864 q 265 926 253 908 q 315 954 278 943 l 335 961 q 373 978 364 971 q 382 1000 382 985 q 369 1025 382 1019 q 314 1031 356 1031 q 171 1024 238 1031 l 171 1136 q 256 1148 207 1143 q 344 1153 304 1153 q 447 1144 407 1153 q 511 1106 488 1135 q 535 1018 535 1076 q 515 940 535 964 q 446 900 496 917 l 426 892 q 388 874 396 881 q 381 849 381 867 l 253 849 l 253 864 z "},"ỡ":{"ha":707,"x_min":46,"x_max":744,"o":"m 744 833 l 744 807 q 736 712 744 746 q 702 657 728 678 q 626 628 676 636 q 654 526 647 589 q 661 354 661 464 q 643 123 661 194 q 562 20 625 51 q 353 -11 499 -11 q 144 20 208 -11 q 63 123 81 51 q 46 354 46 194 q 63 585 46 514 q 144 688 81 657 q 353 719 208 719 q 500 708 449 719 l 504 708 q 563 716 544 708 q 588 740 582 724 q 594 789 594 756 l 594 833 l 744 833 m 353 167 q 406 177 392 167 q 423 222 419 188 q 426 354 426 257 q 423 486 426 451 q 406 531 419 521 q 353 542 392 542 q 301 531 315 542 q 284 486 288 521 q 281 354 281 451 q 284 222 281 257 q 301 177 288 188 q 353 167 315 167 m 604 1032 q 598 917 604 956 q 565 856 592 878 q 481 833 539 833 q 336 857 428 833 l 308 863 q 250 872 269 872 q 226 861 231 872 q 222 817 222 850 l 101 817 q 108 932 101 893 q 141 993 114 971 q 226 1015 168 1015 q 298 1008 258 1015 q 371 993 338 1001 q 456 978 435 978 q 481 988 476 978 q 485 1032 485 999 l 604 1032 z "},"ő":{"ha":707,"x_min":46,"x_max":668,"o":"m 353 -11 q 144 20 208 -11 q 63 123 81 51 q 46 354 46 194 q 63 585 46 514 q 144 688 81 657 q 353 719 208 719 q 562 688 499 719 q 643 585 625 657 q 661 354 661 514 q 643 123 661 194 q 562 20 625 51 q 353 -11 499 -11 m 353 167 q 406 177 392 167 q 423 222 419 188 q 426 354 426 257 q 423 486 426 451 q 406 531 419 521 q 353 542 392 542 q 301 531 315 542 q 284 486 288 521 q 281 354 281 451 q 284 222 281 257 q 301 177 288 188 q 353 167 315 167 m 169 847 l 169 854 l 250 1014 l 432 1014 l 432 1008 l 308 847 l 169 847 m 404 847 l 404 854 l 486 1014 l 668 1014 l 668 1008 l 546 847 l 404 847 z "},"ȏ":{"ha":707,"x_min":46,"x_max":661,"o":"m 353 -11 q 144 20 208 -11 q 63 123 81 51 q 46 354 46 194 q 63 585 46 514 q 144 688 81 657 q 353 719 208 719 q 562 688 499 719 q 643 585 625 657 q 661 354 661 514 q 643 123 661 194 q 562 20 625 51 q 353 -11 499 -11 m 353 167 q 406 177 392 167 q 423 222 419 188 q 426 354 426 257 q 423 486 426 451 q 406 531 419 521 q 353 542 392 542 q 301 531 315 542 q 284 486 288 521 q 281 354 281 451 q 284 222 281 257 q 301 177 288 188 q 353 167 315 167 m 150 839 q 165 947 150 904 q 225 1015 181 990 q 354 1039 269 1039 q 483 1015 439 1039 q 541 948 526 990 q 556 839 556 906 l 426 839 q 423 882 426 867 q 404 906 419 897 q 354 915 389 915 q 304 906 319 915 q 285 882 289 897 q 281 839 281 867 l 150 839 z "},"ō":{"ha":707,"x_min":46,"x_max":661,"o":"m 353 -11 q 144 20 208 -11 q 63 123 81 51 q 46 354 46 194 q 63 585 46 514 q 144 688 81 657 q 353 719 208 719 q 562 688 499 719 q 643 585 625 657 q 661 354 661 514 q 643 123 661 194 q 562 20 625 51 q 353 -11 499 -11 m 353 167 q 406 177 392 167 q 423 222 419 188 q 426 354 426 257 q 423 486 426 451 q 406 531 419 521 q 353 542 392 542 q 301 531 315 542 q 284 486 288 521 q 281 354 281 451 q 284 222 281 257 q 301 177 288 188 q 353 167 315 167 m 179 843 l 179 1032 l 528 1032 l 528 843 l 179 843 z "},"ǫ":{"ha":707,"x_min":46,"x_max":661,"o":"m 353 719 q 562 688 499 719 q 643 585 625 657 q 661 354 661 514 q 656 190 661 250 q 631 90 650 131 q 574 26 613 50 q 488 -107 488 -32 q 501 -142 488 -129 q 547 -156 514 -156 q 569 -154 560 -156 l 569 -267 q 475 -272 519 -272 q 342 -239 382 -272 q 303 -153 303 -206 q 318 -81 303 -118 q 360 -11 333 -44 l 349 -11 q 143 21 206 -10 q 63 122 81 51 q 46 354 46 193 q 63 585 46 514 q 144 688 81 657 q 353 719 208 719 m 281 354 q 284 222 281 257 q 301 177 288 188 q 353 167 315 167 q 406 177 392 167 q 423 222 419 188 q 426 354 426 257 q 423 486 426 451 q 406 531 419 521 q 353 542 392 542 q 301 531 315 542 q 284 486 288 521 q 281 354 281 451 z "},"ø":{"ha":707,"x_min":46,"x_max":661,"o":"m 107 46 q 57 151 68 82 q 46 354 46 219 q 63 585 46 514 q 144 688 81 657 q 353 719 208 719 q 432 715 397 719 l 465 785 l 661 785 l 600 661 q 650 557 639 625 q 661 354 661 489 q 643 123 661 194 q 562 20 625 51 q 353 -11 499 -11 q 275 -8 297 -11 l 242 -76 l 47 -76 l 107 46 m 353 167 q 406 177 392 167 q 423 222 419 188 q 426 354 426 257 q 423 486 426 451 q 406 531 419 521 q 353 542 392 542 q 301 531 315 542 q 284 486 288 521 q 281 354 281 451 q 284 222 281 257 q 301 177 288 188 q 353 167 315 167 z "},"ǿ":{"ha":707,"x_min":46,"x_max":661,"o":"m 107 46 q 57 151 68 82 q 46 354 46 219 q 63 585 46 514 q 144 688 81 657 q 353 719 208 719 q 432 715 397 719 l 465 785 l 661 785 l 600 661 q 650 557 639 625 q 661 354 661 489 q 643 123 661 194 q 562 20 625 51 q 353 -11 499 -11 q 275 -8 297 -11 l 242 -76 l 47 -76 l 107 46 m 353 167 q 406 177 392 167 q 423 222 419 188 q 426 354 426 257 q 423 486 426 451 q 406 531 419 521 q 353 542 392 542 q 301 531 315 542 q 284 486 288 521 q 281 354 281 451 q 284 222 281 257 q 301 177 288 188 q 353 167 315 167 m 265 828 l 265 835 l 364 1032 l 588 1032 l 588 1025 l 436 828 l 265 828 z "},"õ":{"ha":707,"x_min":46,"x_max":661,"o":"m 353 -11 q 144 20 208 -11 q 63 123 81 51 q 46 354 46 194 q 63 585 46 514 q 144 688 81 657 q 353 719 208 719 q 562 688 499 719 q 643 585 625 657 q 661 354 661 514 q 643 123 661 194 q 562 20 625 51 q 353 -11 499 -11 m 353 167 q 406 177 392 167 q 423 222 419 188 q 426 354 426 257 q 423 486 426 451 q 406 531 419 521 q 353 542 392 542 q 301 531 315 542 q 284 486 288 521 q 281 354 281 451 q 284 222 281 257 q 301 177 288 188 q 353 167 315 167 m 607 1032 q 601 917 607 956 q 568 856 594 878 q 483 833 542 833 q 339 857 431 833 l 311 863 q 253 872 272 872 q 229 862 233 872 q 225 817 225 851 l 104 817 q 110 932 104 893 q 144 993 117 971 q 229 1015 171 1015 q 301 1008 261 1015 q 374 993 340 1001 q 458 978 438 978 q 483 988 479 978 q 488 1032 488 999 l 607 1032 z "},"œ":{"ha":1072,"x_min":46,"x_max":1022,"o":"m 1022 299 l 661 299 q 669 206 661 231 q 706 174 678 181 q 810 167 733 167 q 1000 175 872 167 l 1000 13 q 895 -4 961 3 q 765 -11 829 -11 q 550 40 624 -11 q 467 1 515 14 q 347 -11 418 -11 q 143 20 206 -11 q 63 123 81 51 q 46 354 46 194 q 63 585 46 514 q 143 688 81 657 q 347 719 206 719 q 465 707 417 719 q 547 668 514 694 q 744 719 617 719 q 937 685 879 719 q 1008 581 994 651 q 1022 353 1022 511 l 1022 299 m 732 553 q 685 544 699 553 q 666 510 671 536 q 661 418 661 483 l 804 418 q 799 510 804 483 q 781 545 794 538 q 732 553 767 553 m 353 167 q 406 177 392 167 q 423 222 419 188 q 426 354 426 257 q 423 486 426 451 q 406 531 419 521 q 353 542 392 542 q 301 531 315 542 q 284 486 288 521 q 281 354 281 451 q 284 222 281 257 q 301 177 288 188 q 353 167 315 167 z "},"p":{"ha":724,"x_min":65,"x_max":676,"o":"m 65 708 l 290 708 l 296 626 l 308 626 q 476 719 349 719 q 594 688 551 719 q 656 578 636 657 q 676 356 676 500 q 657 135 676 214 q 594 22 638 56 q 476 -11 551 -11 q 378 8 418 -11 q 313 74 338 26 l 300 74 l 300 -275 l 65 -275 l 65 708 m 371 182 q 420 191 407 182 q 438 233 433 200 q 442 354 442 265 q 438 476 442 443 q 420 517 433 508 q 371 526 407 526 q 326 518 340 526 q 307 485 313 510 q 301 432 303 467 q 300 354 300 397 q 301 278 300 311 q 306 231 301 244 q 326 192 311 201 q 371 182 340 182 z "},"þ":{"ha":724,"x_min":65,"x_max":676,"o":"m 65 1032 l 300 1032 l 300 628 l 313 628 q 378 699 336 679 q 476 719 419 719 q 594 688 551 719 q 656 578 636 657 q 676 356 676 500 q 657 135 676 214 q 594 22 638 56 q 476 -11 551 -11 q 378 8 419 -11 q 311 74 336 26 l 300 74 l 300 -264 l 65 -264 l 65 1032 m 371 182 q 420 191 407 182 q 438 233 433 200 q 442 354 442 265 q 438 476 442 443 q 420 517 433 508 q 371 526 407 526 q 325 517 339 526 q 306 476 311 507 q 300 354 300 450 q 304 238 300 258 q 324 192 310 203 q 371 182 338 182 z "},"q":{"ha":724,"x_min":46,"x_max":658,"o":"m 424 74 l 411 74 q 345 8 386 26 q 246 -11 304 -11 q 128 22 171 -11 q 65 135 85 56 q 46 356 46 214 q 66 578 46 500 q 128 688 86 657 q 246 719 171 719 q 347 699 304 719 q 414 626 390 679 l 428 626 l 433 708 l 658 708 l 658 -275 l 424 -275 l 424 74 m 353 182 q 395 190 382 182 q 415 221 408 197 q 424 354 424 246 q 414 492 424 461 q 394 519 408 513 q 353 526 381 526 q 302 517 315 526 q 285 476 289 508 q 281 354 281 443 q 285 233 281 265 q 302 191 289 200 q 353 182 315 182 z "},"r":{"ha":524,"x_min":65,"x_max":499,"o":"m 65 708 l 290 708 l 296 590 l 308 590 q 378 691 333 663 q 499 719 422 719 l 499 500 q 381 482 422 500 q 319 417 339 464 q 300 281 300 369 l 300 0 l 65 0 l 65 708 z "},"ŕ":{"ha":524,"x_min":65,"x_max":499,"o":"m 65 708 l 290 708 l 296 590 l 308 590 q 378 691 333 663 q 499 719 422 719 l 499 500 q 381 482 422 500 q 319 417 339 464 q 300 281 300 369 l 300 0 l 65 0 l 65 708 m 174 828 l 174 835 l 272 1032 l 496 1032 l 496 1025 l 344 828 l 174 828 z "},"ř":{"ha":524,"x_min":38,"x_max":499,"o":"m 65 708 l 290 708 l 296 590 l 308 590 q 378 691 333 663 q 499 719 422 719 l 499 500 q 381 482 422 500 q 319 417 339 464 q 300 281 300 369 l 300 0 l 65 0 l 65 708 m 153 838 l 38 1021 l 38 1032 l 190 1032 l 264 932 l 336 1032 l 488 1032 l 488 1021 l 371 838 l 153 838 z "},"ŗ":{"ha":524,"x_min":64,"x_max":499,"o":"m 65 708 l 290 708 l 296 590 l 308 590 q 378 691 333 663 q 499 719 422 719 l 499 500 q 381 482 422 500 q 319 417 339 464 q 300 281 300 369 l 300 0 l 65 0 l 65 708 m 64 -312 q 119 -308 101 -312 q 144 -291 138 -303 q 150 -256 150 -279 l 150 -242 l 67 -242 l 67 -83 l 299 -83 l 299 -186 q 283 -320 299 -276 q 218 -383 267 -364 q 64 -401 169 -401 l 64 -312 z "},"ȑ":{"ha":524,"x_min":-37,"x_max":499,"o":"m 65 708 l 290 708 l 296 590 l 308 590 q 378 691 333 663 q 499 719 422 719 l 499 500 q 381 482 422 500 q 319 417 339 464 q 300 281 300 369 l 300 0 l 65 0 l 65 708 m 226 847 l 85 847 l -37 1008 l -37 1014 l 144 1014 l 226 854 l 226 847 m 461 847 l 322 847 l 199 1008 l 199 1014 l 381 1014 l 461 854 l 461 847 z "},"ṛ":{"ha":524,"x_min":58,"x_max":499,"o":"m 65 708 l 290 708 l 296 590 l 308 590 q 378 691 333 663 q 499 719 422 719 l 499 500 q 381 482 422 500 q 319 417 339 464 q 300 281 300 369 l 300 0 l 65 0 l 65 708 m 58 -294 l 58 -86 l 306 -86 l 306 -294 l 58 -294 z "},"ȓ":{"ha":524,"x_min":58,"x_max":499,"o":"m 65 708 l 290 708 l 296 590 l 308 590 q 378 691 333 663 q 499 719 422 719 l 499 500 q 381 482 422 500 q 319 417 339 464 q 300 281 300 369 l 300 0 l 65 0 l 65 708 m 58 839 q 74 947 58 904 q 133 1015 89 990 q 263 1039 178 1039 q 391 1015 347 1039 q 449 948 435 990 q 464 839 464 906 l 335 839 q 331 882 335 867 q 313 906 328 897 q 263 915 297 915 q 213 906 228 915 q 193 882 197 897 q 189 839 189 867 l 58 839 z "},"s":{"ha":613,"x_min":38,"x_max":576,"o":"m 317 -11 q 181 -6 254 -11 q 57 10 108 0 l 57 172 q 238 161 153 161 q 317 165 293 161 q 349 178 342 168 q 356 213 356 189 q 352 244 356 235 q 336 257 349 253 q 293 265 324 261 l 151 285 q 61 344 85 293 q 38 503 38 396 q 71 638 38 590 q 163 702 104 685 q 310 719 222 719 q 433 713 368 719 q 539 699 499 707 l 539 536 q 369 547 417 547 q 296 544 318 547 q 266 531 274 540 q 258 500 258 522 q 261 470 258 479 q 274 458 264 461 q 313 450 285 454 l 438 433 q 513 410 483 426 q 559 349 542 393 q 576 222 576 306 q 544 73 576 124 q 458 6 513 22 q 317 -11 403 -11 z "},"ś":{"ha":613,"x_min":38,"x_max":576,"o":"m 317 -11 q 181 -6 254 -11 q 57 10 108 0 l 57 172 q 238 161 153 161 q 317 165 293 161 q 349 178 342 168 q 356 213 356 189 q 352 244 356 235 q 336 257 349 253 q 293 265 324 261 l 151 285 q 61 344 85 293 q 38 503 38 396 q 71 638 38 590 q 163 702 104 685 q 310 719 222 719 q 433 713 368 719 q 539 699 499 707 l 539 536 q 369 547 417 547 q 296 544 318 547 q 266 531 274 540 q 258 500 258 522 q 261 470 258 479 q 274 458 264 461 q 313 450 285 454 l 438 433 q 513 410 483 426 q 559 349 542 393 q 576 222 576 306 q 544 73 576 124 q 458 6 513 22 q 317 -11 403 -11 m 218 828 l 218 835 l 317 1032 l 540 1032 l 540 1025 l 389 828 l 218 828 z "},"ꞌ":{"ha":289,"x_min":40,"x_max":249,"o":"m 40 368 l 40 1032 l 249 1032 l 249 724 l 201 368 l 40 368 z "},"š":{"ha":613,"x_min":38,"x_max":576,"o":"m 317 -11 q 181 -6 254 -11 q 57 10 108 0 l 57 172 q 238 161 153 161 q 317 165 293 161 q 349 178 342 168 q 356 213 356 189 q 352 244 356 235 q 336 257 349 253 q 293 265 324 261 l 151 285 q 61 344 85 293 q 38 503 38 396 q 71 638 38 590 q 163 702 104 685 q 310 719 222 719 q 433 713 368 719 q 539 699 499 707 l 539 536 q 369 547 417 547 q 296 544 318 547 q 266 531 274 540 q 258 500 258 522 q 261 470 258 479 q 274 458 264 461 q 313 450 285 454 l 438 433 q 513 410 483 426 q 559 349 542 393 q 576 222 576 306 q 544 73 576 124 q 458 6 513 22 q 317 -11 403 -11 m 201 838 l 86 1021 l 86 1032 l 239 1032 l 313 932 l 385 1032 l 536 1032 l 536 1021 l 419 838 l 201 838 z "},"ş":{"ha":613,"x_min":38,"x_max":576,"o":"m 576 222 q 527 50 576 100 q 383 -8 478 0 l 338 -262 l 132 -262 l 132 -256 l 226 -8 q 57 10 133 -4 l 57 172 q 238 161 153 161 q 317 165 293 161 q 349 178 342 168 q 356 213 356 189 q 352 244 356 235 q 336 257 349 253 q 293 265 324 261 l 151 285 q 61 344 85 293 q 38 503 38 396 q 71 638 38 590 q 163 702 104 685 q 310 719 222 719 q 433 713 368 719 q 539 699 499 707 l 539 536 q 369 547 417 547 q 296 544 318 547 q 266 531 274 540 q 258 500 258 522 q 261 470 258 479 q 274 458 264 461 q 313 450 285 454 l 438 433 q 513 410 483 426 q 559 349 542 393 q 576 222 576 306 z "},"ŝ":{"ha":613,"x_min":38,"x_max":576,"o":"m 317 -11 q 181 -6 254 -11 q 57 10 108 0 l 57 172 q 238 161 153 161 q 317 165 293 161 q 349 178 342 168 q 356 213 356 189 q 352 244 356 235 q 336 257 349 253 q 293 265 324 261 l 151 285 q 61 344 85 293 q 38 503 38 396 q 71 638 38 590 q 163 702 104 685 q 310 719 222 719 q 433 713 368 719 q 539 699 499 707 l 539 536 q 369 547 417 547 q 296 544 318 547 q 266 531 274 540 q 258 500 258 522 q 261 470 258 479 q 274 458 264 461 q 313 450 285 454 l 438 433 q 513 410 483 426 q 559 349 542 393 q 576 222 576 306 q 544 73 576 124 q 458 6 513 22 q 317 -11 403 -11 m 82 838 l 82 849 l 196 1032 l 414 1032 l 532 849 l 532 838 l 379 838 l 306 938 l 233 838 l 82 838 z "},"ș":{"ha":613,"x_min":38,"x_max":576,"o":"m 317 -11 q 181 -6 254 -11 q 57 10 108 0 l 57 172 q 238 161 153 161 q 317 165 293 161 q 349 178 342 168 q 356 213 356 189 q 352 244 356 235 q 336 257 349 253 q 293 265 324 261 l 151 285 q 61 344 85 293 q 38 503 38 396 q 71 638 38 590 q 163 702 104 685 q 310 719 222 719 q 433 713 368 719 q 539 699 499 707 l 539 536 q 369 547 417 547 q 296 544 318 547 q 266 531 274 540 q 258 500 258 522 q 261 470 258 479 q 274 458 264 461 q 313 450 285 454 l 438 433 q 513 410 483 426 q 559 349 542 393 q 576 222 576 306 q 544 73 576 124 q 458 6 513 22 q 317 -11 403 -11 m 189 -312 q 244 -308 226 -312 q 269 -291 263 -303 q 275 -256 275 -279 l 275 -242 l 192 -242 l 192 -83 l 424 -83 l 424 -186 q 408 -320 424 -276 q 343 -383 392 -364 q 189 -401 294 -401 l 189 -312 z "},"ṣ":{"ha":613,"x_min":38,"x_max":576,"o":"m 317 -11 q 181 -6 254 -11 q 57 10 108 0 l 57 172 q 238 161 153 161 q 317 165 293 161 q 349 178 342 168 q 356 213 356 189 q 352 244 356 235 q 336 257 349 253 q 293 265 324 261 l 151 285 q 61 344 85 293 q 38 503 38 396 q 71 638 38 590 q 163 702 104 685 q 310 719 222 719 q 433 713 368 719 q 539 699 499 707 l 539 536 q 369 547 417 547 q 296 544 318 547 q 266 531 274 540 q 258 500 258 522 q 261 470 258 479 q 274 458 264 461 q 313 450 285 454 l 438 433 q 513 410 483 426 q 559 349 542 393 q 576 222 576 306 q 544 73 576 124 q 458 6 513 22 q 317 -11 403 -11 m 183 -294 l 183 -86 l 431 -86 l 431 -294 l 183 -294 z "},"ß":{"ha":746,"x_min":65,"x_max":700,"o":"m 364 0 l 364 178 l 379 178 q 436 186 421 178 q 457 228 451 194 q 463 347 463 261 q 456 458 463 426 q 433 499 450 490 q 378 508 417 508 l 365 508 l 365 686 l 378 686 q 428 692 413 686 q 447 716 443 699 q 451 775 451 733 q 444 833 451 814 q 423 859 438 853 q 378 865 408 865 q 329 858 344 865 q 307 826 314 850 q 300 751 300 803 l 300 0 l 65 0 l 65 767 q 94 924 65 864 q 191 1013 124 983 q 376 1042 258 1042 q 565 1015 496 1042 q 661 938 633 989 q 689 806 689 886 q 653 668 689 715 q 543 607 618 621 l 543 601 q 663 524 625 585 q 700 333 700 464 q 676 137 700 207 q 589 33 653 67 q 401 0 525 0 l 364 0 z "},"ſ":{"ha":511,"x_min":22,"x_max":504,"o":"m 128 531 l 22 531 l 22 708 l 128 708 l 128 740 q 156 942 128 883 q 255 1015 183 1000 q 504 1031 326 1031 l 504 871 q 408 865 435 871 q 374 842 382 860 q 365 776 365 824 l 365 0 l 128 0 l 128 531 z "},"t":{"ha":517,"x_min":22,"x_max":494,"o":"m 126 0 l 126 531 l 22 531 l 22 708 l 126 708 l 126 914 l 364 914 l 364 708 l 494 708 l 494 531 l 364 531 l 364 0 l 126 0 z "},"ŧ":{"ha":517,"x_min":22,"x_max":494,"o":"m 494 531 l 364 531 l 364 410 l 492 410 l 492 242 l 364 242 l 364 0 l 126 0 l 126 242 l 25 242 l 25 410 l 126 410 l 126 531 l 22 531 l 22 708 l 126 708 l 126 914 l 364 914 l 364 708 l 494 708 l 494 531 z "},"ť":{"ha":686,"x_min":22,"x_max":760,"o":"m 126 0 l 126 531 l 22 531 l 22 708 l 126 708 l 126 914 l 364 914 l 364 708 l 494 708 l 494 531 l 364 531 l 364 0 l 126 0 m 533 590 l 551 885 l 551 956 l 760 956 l 760 885 l 694 590 l 533 590 z "},"ţ":{"ha":517,"x_min":22,"x_max":494,"o":"m 364 708 l 494 708 l 494 531 l 364 531 l 364 0 l 324 0 l 276 -262 l 71 -262 l 71 -256 l 168 0 l 126 0 l 126 531 l 22 531 l 22 708 l 126 708 l 126 914 l 364 914 l 364 708 z "},"ț":{"ha":517,"x_min":22,"x_max":494,"o":"m 126 0 l 126 531 l 22 531 l 22 708 l 126 708 l 126 914 l 364 914 l 364 708 l 494 708 l 494 531 l 364 531 l 364 0 l 126 0 m 128 -312 q 183 -308 165 -312 q 208 -291 201 -303 q 214 -256 214 -279 l 214 -242 l 131 -242 l 131 -83 l 363 -83 l 363 -186 q 347 -320 363 -276 q 282 -383 331 -364 q 128 -401 233 -401 l 128 -312 z "},"ṭ":{"ha":517,"x_min":22,"x_max":494,"o":"m 126 0 l 126 531 l 22 531 l 22 708 l 126 708 l 126 914 l 364 914 l 364 708 l 494 708 l 494 531 l 364 531 l 364 0 l 126 0 m 122 -294 l 122 -86 l 369 -86 l 369 -294 l 122 -294 z "},"u":{"ha":729,"x_min":64,"x_max":664,"o":"m 433 82 l 421 82 q 247 -11 374 -11 q 130 18 169 -11 q 77 102 90 47 q 64 254 64 157 l 64 708 l 299 708 l 299 331 q 302 226 299 254 q 317 191 306 199 q 363 183 329 183 q 409 194 396 183 q 426 235 422 204 q 429 340 429 265 l 429 708 l 664 708 l 664 0 l 439 0 l 433 82 z "},"ú":{"ha":729,"x_min":64,"x_max":664,"o":"m 433 82 l 421 82 q 247 -11 374 -11 q 130 18 169 -11 q 77 102 90 47 q 64 254 64 157 l 64 708 l 299 708 l 299 331 q 302 226 299 254 q 317 191 306 199 q 363 183 329 183 q 409 194 396 183 q 426 235 422 204 q 429 340 429 265 l 429 708 l 664 708 l 664 0 l 439 0 l 433 82 m 281 828 l 281 835 l 379 1032 l 603 1032 l 603 1025 l 451 828 l 281 828 z "},"ŭ":{"ha":729,"x_min":64,"x_max":664,"o":"m 433 82 l 421 82 q 247 -11 374 -11 q 130 18 169 -11 q 77 102 90 47 q 64 254 64 157 l 64 708 l 299 708 l 299 331 q 302 226 299 254 q 317 191 306 199 q 363 183 329 183 q 409 194 396 183 q 426 235 422 204 q 429 340 429 265 l 429 708 l 664 708 l 664 0 l 439 0 l 433 82 m 567 1032 q 551 924 567 967 q 492 856 536 881 q 363 832 447 832 q 234 856 278 832 q 176 923 190 881 q 161 1032 161 965 l 290 1032 q 294 989 290 1004 q 313 965 297 974 q 363 956 328 956 q 413 965 397 956 q 432 989 428 974 q 436 1032 436 1004 l 567 1032 z "},"ǔ":{"ha":729,"x_min":64,"x_max":664,"o":"m 433 82 l 421 82 q 247 -11 374 -11 q 130 18 169 -11 q 77 102 90 47 q 64 254 64 157 l 64 708 l 299 708 l 299 331 q 302 226 299 254 q 317 191 306 199 q 363 183 329 183 q 409 194 396 183 q 426 235 422 204 q 429 340 429 265 l 429 708 l 664 708 l 664 0 l 439 0 l 433 82 m 254 838 l 139 1021 l 139 1032 l 292 1032 l 365 932 l 438 1032 l 589 1032 l 589 1021 l 472 838 l 254 838 z "},"û":{"ha":729,"x_min":64,"x_max":664,"o":"m 433 82 l 421 82 q 247 -11 374 -11 q 130 18 169 -11 q 77 102 90 47 q 64 254 64 157 l 64 708 l 299 708 l 299 331 q 302 226 299 254 q 317 191 306 199 q 363 183 329 183 q 409 194 396 183 q 426 235 422 204 q 429 340 429 265 l 429 708 l 664 708 l 664 0 l 439 0 l 433 82 m 140 838 l 140 849 l 254 1032 l 472 1032 l 590 849 l 590 838 l 438 838 l 364 938 l 292 838 l 140 838 z "},"ȕ":{"ha":729,"x_min":64,"x_max":664,"o":"m 433 82 l 421 82 q 247 -11 374 -11 q 130 18 169 -11 q 77 102 90 47 q 64 254 64 157 l 64 708 l 299 708 l 299 331 q 302 226 299 254 q 317 191 306 199 q 363 183 329 183 q 409 194 396 183 q 426 235 422 204 q 429 340 429 265 l 429 708 l 664 708 l 664 0 l 439 0 l 433 82 m 328 847 l 186 847 l 64 1008 l 64 1014 l 246 1014 l 328 854 l 328 847 m 563 847 l 424 847 l 300 1008 l 300 1014 l 482 1014 l 563 854 l 563 847 z "},"ü":{"ha":729,"x_min":64,"x_max":664,"o":"m 433 82 l 421 82 q 247 -11 374 -11 q 130 18 169 -11 q 77 102 90 47 q 64 254 64 157 l 64 708 l 299 708 l 299 331 q 302 226 299 254 q 317 191 306 199 q 363 183 329 183 q 409 194 396 183 q 426 235 422 204 q 429 340 429 265 l 429 708 l 664 708 l 664 0 l 439 0 l 433 82 m 133 854 l 133 1011 l 322 1011 l 322 854 l 133 854 m 406 854 l 406 1011 l 596 1011 l 596 854 l 406 854 z "},"ǘ":{"ha":729,"x_min":64,"x_max":664,"o":"m 433 82 l 421 82 q 247 -11 374 -11 q 130 18 169 -11 q 77 102 90 47 q 64 254 64 157 l 64 708 l 299 708 l 299 331 q 302 226 299 254 q 317 191 306 199 q 363 183 329 183 q 409 194 396 183 q 426 235 422 204 q 429 340 429 265 l 429 708 l 664 708 l 664 0 l 439 0 l 433 82 m 133 857 l 133 1014 l 322 1014 l 322 857 l 133 857 m 406 857 l 406 1014 l 596 1014 l 596 857 l 406 857 m 278 1050 l 278 1057 l 376 1254 l 600 1254 l 600 1247 l 449 1050 l 278 1050 z "},"ǚ":{"ha":729,"x_min":64,"x_max":664,"o":"m 433 82 l 421 82 q 247 -11 374 -11 q 130 18 169 -11 q 77 102 90 47 q 64 254 64 157 l 64 708 l 299 708 l 299 331 q 302 226 299 254 q 317 191 306 199 q 363 183 329 183 q 409 194 396 183 q 426 235 422 204 q 429 340 429 265 l 429 708 l 664 708 l 664 0 l 439 0 l 433 82 m 133 857 l 133 1014 l 322 1014 l 322 857 l 133 857 m 406 857 l 406 1014 l 596 1014 l 596 857 l 406 857 m 257 1060 l 142 1243 l 142 1254 l 294 1254 l 368 1154 l 440 1254 l 592 1254 l 592 1243 l 475 1060 l 257 1060 z "},"ǜ":{"ha":729,"x_min":64,"x_max":664,"o":"m 433 82 l 421 82 q 247 -11 374 -11 q 130 18 169 -11 q 77 102 90 47 q 64 254 64 157 l 64 708 l 299 708 l 299 331 q 302 226 299 254 q 317 191 306 199 q 363 183 329 183 q 409 194 396 183 q 426 235 422 204 q 429 340 429 265 l 429 708 l 664 708 l 664 0 l 439 0 l 433 82 m 133 857 l 133 1014 l 322 1014 l 322 857 l 133 857 m 406 857 l 406 1014 l 596 1014 l 596 857 l 406 857 m 283 1050 l 133 1247 l 133 1254 l 357 1254 l 456 1057 l 456 1050 l 283 1050 z "},"ǖ":{"ha":729,"x_min":64,"x_max":664,"o":"m 433 82 l 421 82 q 247 -11 374 -11 q 130 18 169 -11 q 77 102 90 47 q 64 254 64 157 l 64 708 l 299 708 l 299 331 q 302 226 299 254 q 317 191 306 199 q 363 183 329 183 q 409 194 396 183 q 426 235 422 204 q 429 340 429 265 l 429 708 l 664 708 l 664 0 l 439 0 l 433 82 m 133 857 l 133 1014 l 322 1014 l 322 857 l 133 857 m 406 857 l 406 1014 l 596 1014 l 596 857 l 406 857 m 192 1065 l 192 1254 l 540 1254 l 540 1065 l 192 1065 z "},"ụ":{"ha":729,"x_min":64,"x_max":664,"o":"m 433 82 l 421 82 q 247 -11 374 -11 q 130 18 169 -11 q 77 102 90 47 q 64 254 64 157 l 64 708 l 299 708 l 299 331 q 302 226 299 254 q 317 191 306 199 q 363 183 329 183 q 409 194 396 183 q 426 235 422 204 q 429 340 429 265 l 429 708 l 664 708 l 664 0 l 439 0 l 433 82 m 226 -294 l 226 -86 l 474 -86 l 474 -294 l 226 -294 z "},"ù":{"ha":729,"x_min":64,"x_max":664,"o":"m 433 82 l 421 82 q 247 -11 374 -11 q 130 18 169 -11 q 77 102 90 47 q 64 254 64 157 l 64 708 l 299 708 l 299 331 q 302 226 299 254 q 317 191 306 199 q 363 183 329 183 q 409 194 396 183 q 426 235 422 204 q 429 340 429 265 l 429 708 l 664 708 l 664 0 l 439 0 l 433 82 m 283 828 l 133 1025 l 133 1032 l 357 1032 l 456 835 l 456 828 l 283 828 z "},"ủ":{"ha":729,"x_min":64,"x_max":664,"o":"m 433 82 l 421 82 q 247 -11 374 -11 q 130 18 169 -11 q 77 102 90 47 q 64 254 64 157 l 64 708 l 299 708 l 299 331 q 302 226 299 254 q 317 191 306 199 q 363 183 329 183 q 409 194 396 183 q 426 235 422 204 q 429 340 429 265 l 429 708 l 664 708 l 664 0 l 439 0 l 433 82 m 263 864 q 275 926 263 908 q 325 954 288 943 l 344 961 q 383 978 374 971 q 392 1000 392 985 q 378 1025 392 1019 q 324 1031 365 1031 q 181 1024 247 1031 l 181 1136 q 265 1148 217 1143 q 354 1153 314 1153 q 457 1144 417 1153 q 521 1106 497 1135 q 544 1018 544 1076 q 525 940 544 964 q 456 900 506 917 l 436 892 q 398 874 406 881 q 390 849 390 867 l 263 849 l 263 864 z "},"ư":{"ha":729,"x_min":64,"x_max":767,"o":"m 767 833 l 767 807 q 747 684 767 722 q 664 632 728 646 l 664 0 l 439 0 l 433 82 l 421 82 q 247 -11 374 -11 q 130 18 169 -11 q 77 102 90 47 q 64 254 64 157 l 64 708 l 299 708 l 299 331 q 302 226 299 254 q 317 191 306 199 q 363 183 329 183 q 409 194 396 183 q 426 235 422 204 q 429 340 429 265 l 429 708 l 526 708 q 585 716 567 708 q 610 740 604 724 q 617 789 617 756 l 617 833 l 767 833 z "},"ứ":{"ha":729,"x_min":64,"x_max":767,"o":"m 767 833 l 767 807 q 747 684 767 722 q 664 632 728 646 l 664 0 l 439 0 l 433 82 l 421 82 q 247 -11 374 -11 q 130 18 169 -11 q 77 102 90 47 q 64 254 64 157 l 64 708 l 299 708 l 299 331 q 302 226 299 254 q 317 191 306 199 q 363 183 329 183 q 409 194 396 183 q 426 235 422 204 q 429 340 429 265 l 429 708 l 526 708 q 585 716 567 708 q 610 740 604 724 q 617 789 617 756 l 617 833 l 767 833 m 275 828 l 275 835 l 374 1032 l 597 1032 l 597 1025 l 446 828 l 275 828 z "},"ự":{"ha":729,"x_min":64,"x_max":767,"o":"m 767 833 l 767 807 q 747 684 767 722 q 664 632 728 646 l 664 0 l 439 0 l 433 82 l 421 82 q 247 -11 374 -11 q 130 18 169 -11 q 77 102 90 47 q 64 254 64 157 l 64 708 l 299 708 l 299 331 q 302 226 299 254 q 317 191 306 199 q 363 183 329 183 q 409 194 396 183 q 426 235 422 204 q 429 340 429 265 l 429 708 l 526 708 q 585 716 567 708 q 610 740 604 724 q 617 789 617 756 l 617 833 l 767 833 m 226 -294 l 226 -86 l 474 -86 l 474 -294 l 226 -294 z "},"ừ":{"ha":729,"x_min":64,"x_max":767,"o":"m 767 833 l 767 807 q 747 684 767 722 q 664 632 728 646 l 664 0 l 439 0 l 433 82 l 421 82 q 247 -11 374 -11 q 130 18 169 -11 q 77 102 90 47 q 64 254 64 157 l 64 708 l 299 708 l 299 331 q 302 226 299 254 q 317 191 306 199 q 363 183 329 183 q 409 194 396 183 q 426 235 422 204 q 429 340 429 265 l 429 708 l 526 708 q 585 716 567 708 q 610 740 604 724 q 617 789 617 756 l 617 833 l 767 833 m 281 828 l 131 1025 l 131 1032 l 354 1032 l 453 835 l 453 828 l 281 828 z "}}}
